<svg width="351" height="267" viewBox="0 0 351 267" fill="none" xmlns="http://www.w3.org/2000/svg">
<rect width="369.462" height="149.206" transform="matrix(0.948683 0.316228 0 1 0 0)" fill="white" fill-opacity="0.1"/>
<g clip-path="url(#clip0_146_4373)">
<path d="M27.9097 39.9149L27.416 39.7504V31.3201C27.416 31.2372 27.3848 31.1474 27.3293 31.0704C27.2737 30.9933 27.1984 30.9353 27.1198 30.9091L24.3552 29.9875C24.2766 29.9614 24.2013 29.9691 24.1457 30.0092C24.0902 30.0492 24.059 30.1182 24.059 30.201V32.3867L21.5906 31.5639C21.512 31.5377 21.4367 31.5455 21.3811 31.5855C21.3256 31.6255 21.2943 31.6945 21.2943 31.7774V33.963L19.2209 33.2718C19.1423 33.2456 19.067 33.2534 19.0114 33.2935C18.9559 33.3335 18.9247 33.4025 18.9247 33.4853V36.9199L18.431 36.7553C18.3524 36.7292 18.2771 36.7369 18.2215 36.777C18.166 36.817 18.1348 36.886 18.1348 36.9688C18.1348 37.0516 18.166 37.1415 18.2215 37.2185C18.2771 37.2956 18.3524 37.3536 18.431 37.3798L27.9097 40.5394C27.9883 40.5656 28.0636 40.5578 28.1192 40.5178C28.1747 40.4777 28.2059 40.4087 28.2059 40.3259C28.2059 40.2431 28.1747 40.1533 28.1192 40.0762C28.0636 39.9991 27.9883 39.9411 27.9097 39.9149ZM24.6514 30.7107L26.8236 31.4348V39.5529L24.6514 38.8288V30.7107ZM21.8868 32.2871L24.059 33.0111V38.6313L21.8868 37.9073V32.2871ZM19.5171 33.995L21.2943 34.5875V37.7098L19.5171 37.1174V33.995Z" fill="#A8ADB5"/>
</g>
<path d="M39.9933 41.6416C39.9933 42.3592 39.7574 42.8525 39.2856 43.1215C38.8205 43.3928 38.1701 43.3927 37.3342 43.1212V44.1017C37.3342 44.2154 37.2803 44.2542 37.1725 44.2183L37.0714 44.1846C36.9635 44.1486 36.9096 44.0738 36.9096 43.9602V42.969C36.1884 42.6717 35.5615 42.2354 35.029 41.6601C34.5033 41.0869 34.1865 40.3916 34.0786 39.5741V39.5315C34.0786 39.4462 34.1258 39.4193 34.2202 39.4508L35.3424 39.8249C35.4301 39.8541 35.484 39.9182 35.5042 40.0173C35.7064 40.8094 36.1749 41.3777 36.9096 41.7221V39.5053L36.8388 39.4604C36.2996 39.1527 35.8614 38.8788 35.5244 38.6386C35.1874 38.3912 34.8976 38.0815 34.6549 37.7093C34.4123 37.3371 34.2909 36.8988 34.2909 36.3943C34.2909 35.6838 34.5302 35.2129 35.0088 34.9817C35.4874 34.7433 36.1075 34.7511 36.8691 35.005L36.9096 35.0184V34.038C36.9096 33.9243 36.9635 33.8854 37.0714 33.9214L37.1725 33.9551C37.2803 33.991 37.3342 34.0658 37.3342 34.1795V35.192C37.9476 35.4675 38.4734 35.8665 38.9115 36.3892C39.3496 36.9118 39.6327 37.5177 39.7608 38.2069C39.7675 38.2234 39.7709 38.2423 39.7709 38.2636C39.7709 38.3489 39.7237 38.3758 39.6294 38.3443L38.5273 37.977C38.4464 37.95 38.3891 37.8883 38.3554 37.7918C38.1869 37.2027 37.8465 36.7589 37.3342 36.4602V38.3892C37.8937 38.7107 38.3487 39.0009 38.6992 39.2599C39.0564 39.5139 39.3597 39.8389 39.6091 40.2346C39.8653 40.6326 39.9933 41.1016 39.9933 41.6416ZM35.666 36.7354C35.666 37.0054 35.7705 37.2463 35.9794 37.458C36.1951 37.672 36.5052 37.8997 36.9096 38.1411V36.2547L36.8388 36.2311C36.4883 36.1143 36.2052 36.0981 35.9895 36.1825C35.7738 36.2669 35.666 36.4512 35.666 36.7354ZM37.3342 41.8849C37.7184 41.9988 38.0251 42.0086 38.2543 41.9145C38.4902 41.8155 38.6082 41.5955 38.6082 41.2545C38.6082 40.9561 38.497 40.6916 38.2745 40.4612C38.0588 40.2259 37.7454 39.9864 37.3342 39.7428V41.8849ZM43.6701 45.3184C43.5622 45.2825 43.5083 45.2076 43.5083 45.094V39.3069C43.5083 39.2145 43.4813 39.1594 43.4274 39.1414C43.3937 39.1302 43.3566 39.1391 43.3162 39.1683C43.0938 39.3428 42.8309 39.4683 42.5276 39.5448C42.231 39.6236 41.9108 39.6448 41.567 39.6083L41.5367 39.5982C41.4423 39.5668 41.3952 39.4978 41.3952 39.3912V38.3254C41.3952 38.2189 41.4457 38.1718 41.5468 38.1841C41.9782 38.2143 42.3624 38.1434 42.6994 37.9715C43.0365 37.7997 43.2993 37.5605 43.4881 37.2539C43.5285 37.1821 43.5925 37.1608 43.6802 37.1901L44.8025 37.5641C44.9103 37.6001 44.9642 37.6749 44.9642 37.7886V45.5793C44.9642 45.693 44.9103 45.7318 44.8025 45.6959L43.6701 45.3184ZM49.9452 47.5593C49.2173 47.3167 48.6039 46.8991 48.1051 46.3065C47.613 45.7162 47.3097 45.0467 47.1951 44.298V44.2553C47.1951 44.2127 47.2086 44.1852 47.2356 44.1729C47.2625 44.1535 47.2996 44.1516 47.3468 44.1673L48.4893 44.5482C48.5837 44.5796 48.6443 44.646 48.6713 44.7474C48.7589 45.1034 48.9139 45.4073 49.1364 45.6591C49.3656 45.906 49.6453 46.0845 49.9756 46.1946C50.3732 46.3272 50.69 46.2907 50.926 46.0851C51.1619 45.8724 51.2798 45.5316 51.2798 45.0627C51.2798 44.6151 51.1585 44.2123 50.9159 43.8543C50.6732 43.4892 50.3564 43.2415 49.9655 43.1112C49.7026 43.0236 49.47 43.01 49.2678 43.0705C49.0656 43.1239 48.8971 43.2453 48.7623 43.4349C48.7151 43.4973 48.6511 43.515 48.5702 43.4881L47.4479 43.114C47.394 43.096 47.3535 43.0683 47.3266 43.0309C47.2996 42.9864 47.2929 42.938 47.3063 42.8856L48.0748 38.8041C48.0882 38.7091 48.1455 38.6785 48.2466 38.7122L52.2201 40.0367C52.328 40.0727 52.3819 40.1475 52.3819 40.2611V41.2949C52.3819 41.4086 52.328 41.4475 52.2201 41.4115L49.3083 40.4409C49.2072 40.4072 49.1465 40.4403 49.1263 40.5401L48.8937 41.7735V41.8161C48.8937 41.8872 48.9139 41.9294 48.9544 41.9429C48.9948 41.9564 49.0319 41.9545 49.0656 41.9373C49.4498 41.7883 49.8542 41.7846 50.2789 41.9261C50.7575 42.0856 51.1821 42.3444 51.5528 42.7025C51.9303 43.0628 52.2201 43.4898 52.4223 43.9835C52.6313 44.4723 52.7358 44.9903 52.7358 45.5374C52.7358 46.1129 52.6178 46.5851 52.3819 46.9541C52.1527 47.3253 51.8258 47.5645 51.4012 47.6716C50.9765 47.7788 50.4912 47.7413 49.9452 47.5593ZM54.3803 49.0057C54.1511 48.9293 53.9556 48.7824 53.7938 48.5651C53.6321 48.3407 53.5512 48.1077 53.5512 47.8661C53.5512 47.6387 53.6321 47.4703 53.7938 47.3608C53.9623 47.2465 54.1578 47.2263 54.3803 47.3005C54.5892 47.3701 54.7712 47.5161 54.9262 47.7383C55.088 47.9556 55.1689 48.178 55.1689 48.4053C55.1689 48.6469 55.0914 48.8271 54.9363 48.9459C54.7813 49.0577 54.5959 49.0776 54.3803 49.0057ZM56.2251 49.5034C56.1173 49.4675 56.0634 49.3927 56.0634 49.279V48.4157C56.0634 48.3376 56.0937 48.2766 56.1544 48.2329L58.4798 46.8552C58.9584 46.5742 59.3123 46.2908 59.5414 46.0048C59.7773 45.714 59.8953 45.3838 59.8953 45.0144C59.8953 44.6307 59.7976 44.2961 59.6021 44.0107C59.4066 43.7182 59.1134 43.5068 58.7225 43.3765C57.9069 43.1046 57.4553 43.4585 57.3676 44.4382C57.3542 44.5474 57.2969 44.5852 57.1958 44.5515L56.1746 44.2111C56.1207 44.1931 56.0802 44.1654 56.0533 44.128C56.0263 44.0835 56.0162 44.0339 56.0229 43.9794C56.0768 43.0879 56.3364 42.4781 56.8014 42.15C57.2733 41.8241 57.9204 41.7982 58.7427 42.0723C59.228 42.2341 59.6594 42.4774 60.0369 42.8021C60.4143 43.1198 60.7075 43.4982 60.9165 43.9373C61.1322 44.3716 61.24 44.8338 61.24 45.3241C61.24 45.9564 61.0648 46.4913 60.7143 46.9286C60.3638 47.366 59.9256 47.7422 59.3999 48.0572L58.4191 48.6468C58.3787 48.6759 58.3585 48.7083 58.3585 48.7438C58.3585 48.7722 58.3686 48.8005 58.3888 48.8285C58.4158 48.8517 58.4528 48.8712 58.5 48.8869L61.4119 49.8575C61.5197 49.8935 61.5737 49.9683 61.5737 50.082V51.1158C61.5737 51.2294 61.5197 51.2683 61.4119 51.2324L56.2251 49.5034ZM62.7935 51.6929C62.6857 51.6569 62.6317 51.5821 62.6317 51.4684V43.6778C62.6317 43.5641 62.6857 43.5252 62.7935 43.5612L63.8349 43.9083C63.9428 43.9442 63.9967 44.0191 63.9967 44.1327V48.0121C63.9967 48.0618 64.0034 48.1032 64.0169 48.1361C64.0371 48.1712 64.0607 48.1933 64.0877 48.2023C64.1281 48.2158 64.1618 48.2057 64.1888 48.172L65.9885 46.8642C66.0424 46.8254 66.1098 46.8194 66.1907 46.8464L67.5253 47.2913C67.5657 47.3047 67.5961 47.3255 67.6163 47.3536C67.6433 47.3768 67.6567 47.4026 67.6567 47.431C67.6567 47.4665 67.6399 47.4964 67.6062 47.5207L65.4021 49.0667C65.3616 49.0959 65.3414 49.1318 65.3414 49.1744C65.3414 49.1886 65.3549 49.2286 65.3818 49.2944L67.8185 53.1654C67.8455 53.2099 67.8589 53.2499 67.8589 53.2855C67.8589 53.3139 67.8455 53.3342 67.8185 53.3466C67.7983 53.354 67.768 53.351 67.7275 53.3376L66.4131 52.8994C66.339 52.8747 66.2749 52.8214 66.221 52.7395L64.1888 49.451C64.1416 49.3855 64.1045 49.3483 64.0776 49.3393C64.0573 49.3325 64.0371 49.34 64.0169 49.3617C64.0034 49.3856 63.9967 49.4189 63.9967 49.4615V51.9234C63.9967 52.0371 63.9428 52.076 63.8349 52.04L62.7935 51.6929ZM73.9352 55.4068C73.8746 55.3866 73.8341 55.3447 73.8139 55.2811L71.0436 46.4391L71.0335 46.3931C71.0335 46.3362 71.0638 46.3179 71.1245 46.3381L71.8524 46.5808C71.9131 46.601 71.9535 46.6429 71.9737 46.7065L74.2992 54.3345C74.3194 54.3838 74.343 54.413 74.37 54.422C74.4104 54.4355 74.434 54.422 74.4407 54.3817L76.7662 48.304C76.7864 48.2539 76.8269 48.2389 76.8875 48.2592L77.6155 48.5018C77.6492 48.5131 77.6728 48.5351 77.6863 48.568C77.7065 48.5961 77.7099 48.6256 77.6964 48.6567L74.9261 55.6518C74.9058 55.7019 74.8654 55.7169 74.8047 55.6966L73.9352 55.4068ZM80.4552 57.6867C79.9294 57.5114 79.4576 57.2227 79.0397 56.8205C78.6285 56.4206 78.305 55.9468 78.0691 55.3993C77.8399 54.8539 77.7253 54.2864 77.7253 53.6967C77.7253 53.1212 77.8399 52.6407 78.0691 52.2553C78.305 51.8721 78.6285 51.6211 79.0397 51.5024C79.4576 51.3788 79.9294 51.4046 80.4552 51.5799C80.9809 51.7551 81.4528 52.0439 81.8707 52.4461C82.2886 52.8411 82.6155 53.3089 82.8514 53.8494C83.0873 54.3899 83.2053 54.9478 83.2053 55.5233C83.2053 56.1131 83.0873 56.6031 82.8514 56.9934C82.6222 57.3788 82.2987 57.6369 81.8808 57.7676C81.4629 57.8911 80.9877 57.8642 80.4552 57.6867ZM80.4552 56.8874C80.8057 57.0042 81.1225 57.0103 81.4056 56.9058C81.6954 56.8034 81.9212 56.6087 82.083 56.3216C82.2515 56.0296 82.3358 55.6669 82.3358 55.2335C82.3358 54.8214 82.2549 54.4179 82.0931 54.0229C81.9313 53.628 81.7055 53.2862 81.4157 52.9978C81.1326 52.7045 80.8124 52.4983 80.4552 52.3792C80.1047 52.2624 79.7845 52.2516 79.4947 52.3468C79.2116 52.4443 78.9891 52.6366 78.8274 52.9237C78.6656 53.2108 78.5847 53.564 78.5847 53.9832C78.5847 54.4166 78.6656 54.8343 78.8274 55.2364C78.9891 55.6384 79.2116 55.9861 79.4947 56.2794C79.7845 56.5679 80.1047 56.7705 80.4552 56.8874ZM85.7195 59.3349C85.2679 59.1844 84.9342 58.9666 84.7186 58.6815C84.5029 58.3965 84.395 57.9733 84.395 57.412V50.8682C84.395 50.7972 84.4287 50.7729 84.4961 50.7954L85.1533 51.0144C85.2207 51.0369 85.2544 51.0837 85.2544 51.1547V57.5599C85.2544 57.766 85.2679 57.9303 85.2949 58.053C85.3218 58.1685 85.3825 58.274 85.4769 58.3694C85.5712 58.4577 85.7195 58.5356 85.9217 58.603L86.0936 58.6603C86.161 58.6827 86.1947 58.7295 86.1947 58.8005V59.3867C86.1947 59.4578 86.161 59.4821 86.0936 59.4596L85.7195 59.3349ZM87.6743 60.0931C87.5058 60.0369 87.3609 59.9282 87.2396 59.767C87.1183 59.5986 87.0576 59.4257 87.0576 59.248C87.0576 59.0775 87.1183 58.9521 87.2396 58.8717C87.3609 58.7914 87.5058 58.7793 87.6743 58.8355C87.8294 58.8872 87.9642 58.996 88.0788 59.1621C88.1934 59.3211 88.2506 59.4823 88.2506 59.6457C88.2506 59.8233 88.1934 59.957 88.0788 60.0467C87.9642 60.1293 87.8294 60.1448 87.6743 60.0931Z" fill="white" fill-opacity="0.6"/>
<circle cx="0.888131" cy="0.888131" r="0.888131" transform="matrix(0.948683 0.316228 0 1 98.9424 58.8555)" fill="white" fill-opacity="0.4"/>
<path d="M114.071 68.936C113.242 68.6596 112.565 68.2064 112.039 67.5765C111.513 66.9465 111.217 66.2295 111.149 65.4255V65.3935C111.149 65.294 111.2 65.2611 111.301 65.2948L112.433 65.6723C112.528 65.7038 112.588 65.7773 112.615 65.8928C112.757 66.7713 113.249 67.351 114.091 67.6318C114.503 67.7689 114.823 67.7619 115.052 67.6109C115.281 67.46 115.396 67.1855 115.396 66.7877C115.396 66.3827 115.261 66.0358 114.991 65.747C114.728 65.4604 114.351 65.2351 113.859 65.0711L113.556 64.97C113.448 64.934 113.394 64.8592 113.394 64.7455V63.8396C113.394 63.726 113.448 63.6871 113.556 63.723L113.808 63.8073C114.145 63.9196 114.425 63.9205 114.647 63.8099C114.87 63.6922 114.981 63.4664 114.981 63.1325C114.981 62.8199 114.89 62.5444 114.708 62.3061C114.526 62.0678 114.27 61.8936 113.94 61.7835C113.63 61.6802 113.374 61.6801 113.171 61.7832C112.969 61.8863 112.834 62.1007 112.767 62.4264C112.747 62.5262 112.689 62.5604 112.595 62.529L111.584 62.1919C111.53 62.174 111.49 62.1463 111.463 62.1089C111.436 62.0643 111.426 62.0148 111.432 61.9602C111.479 61.5141 111.614 61.154 111.837 60.88C112.066 60.6012 112.362 60.4265 112.726 60.356C113.09 60.2855 113.498 60.3255 113.95 60.476C114.428 60.6356 114.853 60.873 115.224 61.1884C115.595 61.5038 115.881 61.8622 116.083 62.2636C116.285 62.6649 116.387 63.0752 116.387 63.4944C116.387 63.8709 116.299 64.1721 116.124 64.3979C115.948 64.6237 115.712 64.744 115.416 64.7588C115.362 64.7622 115.335 64.7674 115.335 64.7745C115.335 64.7887 115.345 64.8027 115.365 64.8166C115.392 64.8256 115.413 64.8323 115.426 64.8368C115.878 65.0939 116.228 65.4452 116.478 65.8907C116.727 66.3362 116.852 66.804 116.852 67.2943C116.852 67.7916 116.734 68.1964 116.498 68.5085C116.269 68.8229 115.942 69.0195 115.517 69.0982C115.099 69.172 114.617 69.1179 114.071 68.936ZM120.478 71.0715C119.75 70.8288 119.136 70.4112 118.638 69.8187C118.146 69.2283 117.842 68.5588 117.728 67.8101V67.7675C117.728 67.7249 117.741 67.6974 117.768 67.6851C117.795 67.6656 117.832 67.6638 117.879 67.6795L119.022 68.0603C119.116 68.0918 119.177 68.1582 119.204 68.2595C119.291 68.6156 119.447 68.9195 119.669 69.1713C119.898 69.4182 120.178 69.5967 120.508 69.7068C120.906 69.8393 121.223 69.8028 121.459 69.5973C121.694 69.3846 121.812 69.0438 121.812 68.5749C121.812 68.1273 121.691 67.7245 121.448 67.3665C121.206 67.0014 120.889 66.7537 120.498 66.6234C120.235 66.5357 120.003 66.5222 119.8 66.5827C119.598 66.636 119.43 66.7575 119.295 66.947C119.248 67.0095 119.184 67.0272 119.103 67.0002L117.98 66.6261C117.927 66.6082 117.886 66.5805 117.859 66.5431C117.832 66.4985 117.825 66.4501 117.839 66.3978L118.607 62.3163C118.621 62.2213 118.678 62.1907 118.779 62.2244L122.753 63.5489C122.861 63.5848 122.914 63.6596 122.914 63.7733V64.8071C122.914 64.9208 122.861 64.9596 122.753 64.9237L119.841 63.9531C119.74 63.9194 119.679 63.9524 119.659 64.0523L119.426 65.2856V65.3283C119.426 65.3993 119.447 65.4416 119.487 65.4551C119.527 65.4685 119.564 65.4667 119.598 65.4495C119.982 65.3005 120.387 65.2967 120.811 65.4383C121.29 65.5978 121.715 65.8566 122.085 66.2146C122.463 66.5749 122.753 67.0019 122.955 67.4956C123.164 67.9845 123.268 68.5024 123.268 69.0495C123.268 69.625 123.15 70.0973 122.914 70.4663C122.685 70.8375 122.358 71.0767 121.934 71.1838C121.509 71.2909 121.024 71.2535 120.478 71.0715ZM125.813 68.2244C125.503 68.121 125.22 67.9485 124.963 67.7068C124.714 67.4603 124.519 67.1713 124.377 66.8399C124.235 66.5014 124.165 66.1439 124.165 65.7673C124.165 65.3979 124.235 65.0946 124.377 64.8576C124.519 64.6135 124.711 64.4537 124.953 64.3783C125.203 64.298 125.479 64.3084 125.782 64.4095C126.086 64.5106 126.362 64.688 126.611 64.9417C126.861 65.1953 127.056 65.4914 127.198 65.8299C127.339 66.1684 127.41 66.5117 127.41 66.8598C127.41 67.208 127.339 67.5041 127.198 67.7483C127.063 67.9946 126.871 68.1615 126.622 68.2489C126.379 68.3314 126.109 68.3233 125.813 68.2244ZM124.953 72.4141C124.859 72.3827 124.812 72.3314 124.812 72.2603C124.812 72.2248 124.822 72.1962 124.842 72.1745L129.402 65.8825C129.449 65.8201 129.513 65.8024 129.594 65.8293L130.352 66.0821C130.447 66.1135 130.494 66.1648 130.494 66.2358C130.494 66.2643 130.484 66.2929 130.464 66.3216L125.894 72.6103C125.846 72.6727 125.782 72.6905 125.701 72.6635L124.953 72.4141ZM125.813 67.1373C125.981 67.1935 126.119 67.1614 126.227 67.041C126.335 66.9207 126.389 66.7468 126.389 66.5195C126.389 66.2708 126.332 66.0527 126.217 65.8653C126.103 65.6708 125.958 65.5444 125.782 65.4859C125.607 65.4275 125.462 65.4503 125.348 65.5542C125.24 65.6603 125.186 65.8449 125.186 66.1077C125.186 66.3706 125.243 66.5922 125.358 66.7725C125.479 66.9551 125.631 67.0767 125.813 67.1373ZM129.594 74.1102C129.284 74.0069 129.001 73.8344 128.745 73.5927C128.495 73.3461 128.3 73.0572 128.158 72.7258C128.017 72.3873 127.946 72.0333 127.946 71.6639C127.946 71.2944 128.013 70.99 128.148 70.7508C128.29 70.5066 128.482 70.3469 128.725 70.2714C128.974 70.1983 129.254 70.2133 129.564 70.3167C129.867 70.4178 130.14 70.5941 130.383 70.8455C130.632 71.092 130.828 71.3845 130.969 71.723C131.111 72.0615 131.181 72.4084 131.181 72.7636C131.181 73.1118 131.111 73.4044 130.969 73.6414C130.834 73.8807 130.646 74.0451 130.403 74.1347C130.16 74.2173 129.891 74.2091 129.594 74.1102ZM129.594 73.0445C129.756 73.0984 129.891 73.0652 129.998 72.9448C130.113 72.8267 130.17 72.654 130.17 72.4266C130.17 72.1708 130.113 71.9492 129.998 71.7618C129.884 71.5744 129.739 71.4515 129.564 71.3931C129.382 71.3324 129.237 71.3552 129.129 71.4613C129.021 71.5604 128.967 71.7414 128.967 72.0042C128.967 72.2742 129.021 72.4983 129.129 72.6763C129.244 72.8566 129.399 72.9793 129.594 73.0445Z" fill="white" fill-opacity="0.6"/>
<path d="M136.447 76.247C136.38 76.2246 136.346 76.1778 136.346 76.1068V68.1882C136.346 68.1171 136.38 68.0928 136.447 68.1153L139.217 69.0387C139.979 69.2926 140.576 69.6904 141.007 70.2321C141.445 70.7689 141.664 71.4174 141.664 72.1777C141.664 72.9166 141.442 73.4251 140.997 73.7031C140.559 73.9762 139.966 73.9881 139.217 73.7387L137.377 73.1254C137.31 73.1029 137.276 73.1272 137.276 73.1982V76.4168C137.276 76.4879 137.243 76.5122 137.175 76.4897L136.447 76.247ZM139.096 72.8244C139.629 73.0019 140.036 73.0135 140.32 72.8592C140.603 72.6977 140.744 72.379 140.744 71.903C140.744 71.434 140.599 71.0234 140.309 70.671C140.02 70.3186 139.615 70.0559 139.096 69.8829L137.377 69.3099C137.31 69.2875 137.276 69.3118 137.276 69.3828V72.1112C137.276 72.1822 137.31 72.229 137.377 72.2514L139.096 72.8244ZM142.834 78.3758C142.766 78.3534 142.732 78.3066 142.732 78.2355V72.5551C142.732 72.484 142.766 72.4597 142.834 72.4822L143.491 72.7013C143.558 72.7237 143.592 72.7705 143.592 72.8415V73.3531C143.592 73.4099 143.609 73.444 143.642 73.4552C143.669 73.4642 143.693 73.4578 143.713 73.4362C143.949 73.2448 144.198 73.1326 144.461 73.0994C144.731 73.0685 145.031 73.1081 145.361 73.2182C145.429 73.2406 145.462 73.2874 145.462 73.3584V74.0512C145.462 74.1222 145.429 74.1465 145.361 74.1241L145.169 74.06C144.717 73.9095 144.357 73.9314 144.087 74.1257C143.757 74.3496 143.592 74.8167 143.592 75.5272V78.522C143.592 78.5931 143.558 78.6174 143.491 78.5949L142.834 78.3758ZM148.686 80.4331C148.16 80.2578 147.688 79.9691 147.27 79.5669C146.859 79.167 146.535 78.6932 146.299 78.1456C146.07 77.6003 145.956 77.0328 145.956 76.4431C145.956 75.8676 146.07 75.3871 146.299 75.0017C146.535 74.6185 146.859 74.3675 147.27 74.2488C147.688 74.1252 148.16 74.151 148.686 74.3263C149.211 74.5015 149.683 74.7903 150.101 75.1924C150.519 75.5875 150.846 76.0553 151.082 76.5958C151.318 77.1362 151.436 77.6942 151.436 78.2697C151.436 78.8595 151.318 79.3495 151.082 79.7398C150.853 80.1252 150.529 80.3833 150.111 80.5139C149.693 80.6375 149.218 80.6106 148.686 80.4331ZM148.686 79.6338C149.036 79.7506 149.353 79.7567 149.636 79.6521C149.926 79.5498 150.152 79.3551 150.313 79.068C150.482 78.776 150.566 78.4133 150.566 77.9799C150.566 77.5678 150.485 77.1643 150.323 76.7693C150.162 76.3743 149.936 76.0326 149.646 75.7442C149.363 75.4509 149.043 75.2447 148.686 75.1256C148.335 75.0088 148.015 74.998 147.725 75.0932C147.442 75.1907 147.219 75.383 147.058 75.6701C146.896 75.9572 146.815 76.3103 146.815 76.7295C146.815 77.163 146.896 77.5807 147.058 77.9828C147.219 78.3848 147.442 78.7325 147.725 79.0258C148.015 79.3143 148.335 79.5169 148.686 79.6338ZM155.345 82.6529C154.988 82.5339 154.678 82.3666 154.415 82.151C154.152 81.9284 153.893 81.6181 153.636 81.2201C153.616 81.185 153.593 81.1629 153.566 81.1539C153.532 81.1427 153.515 81.1655 153.515 81.2223V81.8298C153.515 81.9008 153.481 81.9251 153.414 81.9027L152.757 81.6836C152.689 81.6611 152.656 81.6144 152.656 81.5433V73.6247C152.656 73.5537 152.689 73.5294 152.757 73.5519L153.414 73.7709C153.481 73.7934 153.515 73.8402 153.515 73.9112V76.7568C153.515 76.8136 153.532 76.8477 153.566 76.8589C153.593 76.8679 153.616 76.8615 153.636 76.8398C153.893 76.6055 154.152 76.4682 154.415 76.4279C154.678 76.3877 154.988 76.4271 155.345 76.5462C155.844 76.7124 156.279 76.9852 156.649 77.3646C157.027 77.7462 157.317 78.2052 157.519 78.7415C157.728 79.273 157.832 79.8371 157.832 80.434C157.832 81.0308 157.728 81.5253 157.519 81.9175C157.317 82.3119 157.027 82.5741 156.649 82.704C156.272 82.834 155.837 82.817 155.345 82.6529ZM155.264 81.8267C155.608 81.9412 155.908 81.9453 156.164 81.8389C156.427 81.7275 156.626 81.5238 156.761 81.2277C156.902 80.9339 156.973 80.5738 156.973 80.1475C156.973 79.7141 156.902 79.3033 156.761 78.915C156.626 78.5291 156.427 78.1963 156.164 77.9169C155.908 77.6326 155.608 77.4331 155.264 77.3185C154.921 77.2039 154.614 77.2012 154.344 77.3102C154.075 77.4122 153.862 77.6079 153.707 77.8972C153.559 78.1888 153.485 78.5513 153.485 78.9848C153.485 79.4111 153.559 79.823 153.707 80.2206C153.862 80.6133 154.075 80.9505 154.344 81.2322C154.614 81.5139 154.921 81.7121 155.264 81.8267ZM160.641 84.4182C160.082 84.2317 159.637 83.9342 159.306 83.5257C158.983 83.1195 158.821 82.657 158.821 82.1383C158.821 81.6268 159.003 81.2825 159.367 81.1054C159.664 80.9556 160.092 80.9135 160.651 80.9792L162.552 81.2291C162.613 81.2351 162.643 81.2062 162.643 81.1422C162.623 80.7163 162.508 80.3584 162.299 80.0685C162.043 79.7131 161.699 79.4635 161.268 79.3197C160.938 79.2096 160.648 79.2018 160.398 79.2963C160.156 79.3931 159.994 79.5771 159.913 79.8486C159.893 79.9058 159.856 79.9254 159.802 79.9074L159.145 79.6884C159.07 79.6637 159.04 79.6145 159.054 79.5408C159.168 79.0248 159.431 78.6826 159.842 78.5141C160.253 78.3386 160.732 78.3418 161.278 78.5238C161.608 78.6339 161.915 78.7894 162.198 78.9903C162.481 79.1842 162.72 79.4131 162.916 79.6772C163.172 80.0184 163.334 80.3672 163.401 80.7236C163.469 81.08 163.502 81.4358 163.502 81.7911V85.1588C163.502 85.2299 163.469 85.2542 163.401 85.2317L162.744 85.0127C162.677 84.9902 162.643 84.9434 162.643 84.8724V84.2649C162.643 84.2081 162.626 84.174 162.592 84.1628C162.565 84.1538 162.542 84.1601 162.522 84.1818C162.353 84.3459 162.168 84.4582 161.966 84.5187C161.622 84.6315 161.18 84.598 160.641 84.4182ZM160.742 83.6526C161.086 83.7672 161.382 83.7986 161.632 83.7467C161.996 83.6691 162.252 83.4951 162.4 83.2248C162.555 82.9568 162.64 82.5799 162.653 82.0941C162.653 82.0586 162.643 82.0304 162.623 82.0094C162.602 81.9814 162.576 81.9653 162.542 81.9611L160.833 81.7539C160.415 81.6999 160.109 81.7362 159.913 81.8629C159.758 81.9746 159.68 82.1548 159.68 82.4035C159.68 82.6735 159.775 82.9217 159.964 83.148C160.159 83.3766 160.419 83.5448 160.742 83.6526ZM167.579 86.7308C167.221 86.6117 166.911 86.4444 166.648 86.2289C166.386 86.0063 166.126 85.6959 165.87 85.2979C165.85 85.2628 165.826 85.2407 165.799 85.2317C165.765 85.2205 165.749 85.2433 165.749 85.3001V85.9076C165.749 85.9787 165.715 86.003 165.648 85.9805L164.99 85.7614C164.923 85.739 164.889 85.6922 164.889 85.6211V77.7026C164.889 77.6315 164.923 77.6072 164.99 77.6297L165.648 77.8488C165.715 77.8712 165.749 77.918 165.749 77.989V80.8346C165.749 80.8915 165.765 80.9255 165.799 80.9367C165.826 80.9457 165.85 80.9394 165.87 80.9177C166.126 80.6833 166.386 80.546 166.648 80.5058C166.911 80.4655 167.221 80.5049 167.579 80.624C168.077 80.7903 168.512 81.0631 168.883 81.4424C169.26 81.824 169.55 82.283 169.752 82.8193C169.961 83.3508 170.066 83.915 170.066 84.5118C170.066 85.1086 169.961 85.6031 169.752 85.9953C169.55 86.3897 169.26 86.6519 168.883 86.7819C168.505 86.9118 168.071 86.8948 167.579 86.7308ZM167.498 85.9045C167.842 86.0191 168.141 86.0231 168.398 85.9167C168.66 85.8054 168.859 85.6017 168.994 85.3056C169.136 85.0117 169.206 84.6516 169.206 84.2253C169.206 83.7919 169.136 83.3811 168.994 82.9929C168.859 82.6069 168.66 82.2742 168.398 81.9947C168.141 81.7104 167.842 81.5109 167.498 81.3963C167.154 81.2818 166.847 81.279 166.578 81.3881C166.308 81.49 166.096 81.6857 165.941 81.9751C165.792 82.2667 165.718 82.6292 165.718 83.0626C165.718 83.4889 165.792 83.9008 165.941 84.2984C166.096 84.6911 166.308 85.0283 166.578 85.3101C166.847 85.5918 167.154 85.7899 167.498 85.9045ZM171.388 87.8941C171.321 87.8716 171.287 87.8248 171.287 87.7538V82.0733C171.287 82.0022 171.321 81.978 171.388 82.0004L172.045 82.2195C172.113 82.242 172.147 82.2887 172.147 82.3598V88.0403C172.147 88.1113 172.113 88.1356 172.045 88.1131L171.388 87.8941ZM171.722 81.0992C171.54 81.0385 171.385 80.9229 171.257 80.7523C171.129 80.5746 171.065 80.3934 171.065 80.2087C171.065 80.024 171.129 79.889 171.257 79.8038C171.385 79.7186 171.54 79.7063 171.722 79.767C171.904 79.8276 172.059 79.9433 172.187 80.1138C172.315 80.2844 172.379 80.4621 172.379 80.6468C172.379 80.8315 172.315 80.9701 172.187 81.0624C172.059 81.1476 171.904 81.1598 171.722 81.0992ZM174.882 89.0587C174.43 88.9081 174.097 88.6904 173.881 88.4053C173.665 88.1203 173.558 87.6971 173.558 87.1358V80.592C173.558 80.521 173.591 80.4967 173.659 80.5192L174.316 80.7382C174.383 80.7607 174.417 80.8075 174.417 80.8785V87.2837C174.417 87.4897 174.43 87.6541 174.457 87.7768C174.484 87.8923 174.545 87.9978 174.639 88.0932C174.734 88.1815 174.882 88.2594 175.084 88.3268L175.256 88.3841C175.324 88.4065 175.357 88.4533 175.357 88.5243V89.1105C175.357 89.1816 175.324 89.2059 175.256 89.1834L174.882 89.0587ZM176.483 89.5923C176.416 89.5699 176.382 89.5231 176.382 89.4521V83.7716C176.382 83.7005 176.416 83.6762 176.483 83.6987L177.14 83.9178C177.208 83.9402 177.241 83.987 177.241 84.058V89.7385C177.241 89.8096 177.208 89.8339 177.14 89.8114L176.483 89.5923ZM176.817 82.7974C176.635 82.7368 176.48 82.6212 176.352 82.4506C176.224 82.2729 176.16 82.0917 176.16 81.907C176.16 81.7222 176.224 81.5873 176.352 81.5021C176.48 81.4169 176.635 81.4046 176.817 81.4653C176.999 81.5259 177.154 81.6415 177.282 81.8121C177.41 81.9827 177.474 82.1604 177.474 82.3451C177.474 82.5298 177.41 82.6683 177.282 82.7606C177.154 82.8458 176.999 82.8581 176.817 82.7974ZM180.452 90.9154C180.001 90.7648 179.667 90.547 179.451 90.262C179.235 89.9769 179.128 89.5538 179.128 88.9925V85.4861C179.128 85.4151 179.094 85.3683 179.027 85.3458L178.329 85.1133C178.261 85.0908 178.228 85.0441 178.228 84.973V84.3868C178.228 84.3158 178.261 84.2915 178.329 84.314L179.027 84.5465C179.094 84.569 179.128 84.5447 179.128 84.4736V82.4487C179.128 82.3777 179.161 82.3534 179.229 82.3758L179.886 82.5949C179.953 82.6174 179.987 82.6641 179.987 82.7352V84.7601C179.987 84.8312 180.021 84.8779 180.088 84.9004L181.14 85.2509C181.207 85.2734 181.241 85.3201 181.241 85.3912V85.9773C181.241 86.0484 181.207 86.0727 181.14 86.0502L180.088 85.6997C180.021 85.6772 179.987 85.7015 179.987 85.7726V89.0977C179.987 89.3038 180.001 89.4717 180.027 89.6015C180.054 89.7241 180.115 89.8367 180.209 89.9392C180.304 90.0346 180.452 90.116 180.654 90.1834L181.13 90.3418C181.197 90.3643 181.231 90.4111 181.231 90.4821V91.0683C181.231 91.1393 181.197 91.1636 181.13 91.1412L180.452 90.9154ZM182.427 93.8117C182.36 93.7893 182.326 93.7425 182.326 93.6715V93.0533C182.326 92.9823 182.36 92.958 182.427 92.9805L182.852 93.122C183.02 93.1782 183.148 93.2067 183.236 93.2074C183.324 93.2153 183.401 93.1879 183.468 93.1251C183.536 93.0623 183.603 92.9462 183.671 92.7769L183.954 92.0719C183.96 92.0599 183.964 92.0433 183.964 92.022C183.964 91.9865 183.957 91.9522 183.944 91.9193L181.841 85.6124C181.834 85.596 181.83 85.5771 181.83 85.5558C181.83 85.506 181.857 85.4902 181.911 85.5081L182.66 85.7575C182.713 85.7755 182.751 85.8163 182.771 85.8799L184.368 90.718C184.382 90.7651 184.402 90.7932 184.429 90.8022C184.456 90.8112 184.479 90.7977 184.5 90.7618L185.986 86.9516C186.006 86.9015 186.047 86.8866 186.107 86.9068L186.825 87.1461C186.859 87.1573 186.882 87.1794 186.896 87.2123C186.916 87.2403 186.92 87.2699 186.906 87.3009L184.469 93.4374C184.321 93.8072 184.153 94.0317 183.964 94.1109C183.775 94.1901 183.505 94.1712 183.155 94.0544L182.427 93.8117Z" fill="white" fill-opacity="0.6"/>
<path d="M320.803 132.805C321.082 132.898 321.35 133.105 321.548 133.379C321.745 133.653 321.856 133.972 321.856 134.266C321.856 134.561 321.745 134.806 321.548 134.949C321.35 135.091 321.082 135.119 320.803 135.026C320.524 134.932 320.256 134.726 320.058 134.452C319.861 134.178 319.75 133.859 319.75 133.564C319.75 133.27 319.861 133.025 320.058 132.882C320.256 132.74 320.524 132.712 320.803 132.805ZM325.016 134.21C325.295 134.303 325.563 134.509 325.76 134.783C325.958 135.057 326.069 135.376 326.069 135.671C326.069 135.965 325.958 136.211 325.76 136.353C325.563 136.495 325.295 136.523 325.016 136.43C324.736 136.337 324.469 136.13 324.271 135.856C324.074 135.582 323.963 135.263 323.963 134.969C323.963 134.674 324.074 134.429 324.271 134.286C324.469 134.144 324.736 134.116 325.016 134.21ZM329.229 135.614C329.508 135.707 329.776 135.913 329.973 136.187C330.171 136.461 330.282 136.781 330.282 137.075C330.282 137.369 330.171 137.615 329.973 137.757C329.776 137.9 329.508 137.927 329.229 137.834C328.949 137.741 328.681 137.535 328.484 137.261C328.286 136.987 328.175 136.667 328.175 136.373C328.175 136.078 328.286 135.833 328.484 135.691C328.681 135.548 328.949 135.521 329.229 135.614Z" fill="white" fill-opacity="0.6"/>
<path d="M17.9969 72.3116C17.943 72.2937 17.8981 72.2645 17.8621 72.2241C17.8262 72.1742 17.8082 72.1161 17.8082 72.0498V61.6054C17.8082 61.5391 17.8262 61.4977 17.8621 61.4812C17.8981 61.4553 17.943 61.4514 17.9969 61.4693L21.812 62.741C23.0343 63.1485 23.9151 63.7262 24.4543 64.4744C24.8947 65.0759 25.1149 65.7698 25.1149 66.5561C25.1149 67.0961 25.0115 67.5353 24.8048 67.8738C24.5981 68.2122 24.306 68.4085 23.9285 68.4627C23.8566 68.4861 23.8207 68.5168 23.8207 68.5546C23.8207 68.5925 23.8611 68.6392 23.942 68.6946C24.4902 69.0289 24.9081 69.4571 25.1957 69.9793C25.4833 70.5014 25.6271 71.0894 25.6271 71.743C25.6271 72.2167 25.5462 72.616 25.3845 72.9411C25.2317 73.2691 25.025 73.5128 24.7643 73.6722C24.3959 73.8904 23.96 73.982 23.4567 73.9468C22.9534 73.9022 22.4636 73.8005 21.9873 73.6418L17.9969 72.3116ZM21.7312 67.2897C22.2704 67.4695 22.6838 67.4794 22.9714 67.3195C23.259 67.1501 23.4028 66.8285 23.4028 66.3549C23.4028 65.9191 23.2725 65.5299 23.0118 65.1872C22.8591 64.9847 22.6523 64.8069 22.3917 64.6537C22.1401 64.5035 21.8255 64.3655 21.4481 64.2397L19.709 63.66C19.5832 63.618 19.5203 63.6634 19.5203 63.796V66.3538C19.5203 66.4865 19.5832 66.5737 19.709 66.6157L21.7312 67.2897ZM21.7851 71.9544C22.1446 72.0742 22.4681 72.1537 22.7557 72.1927C23.0433 72.2317 23.2904 72.1862 23.4971 72.0562C23.7847 71.8773 23.9285 71.5368 23.9285 71.0347C23.9285 70.3905 23.7443 69.917 23.3758 69.6142C23.0163 69.3049 22.5625 69.0589 22.0143 68.8762L19.709 68.1077C19.5832 68.0658 19.5203 68.1111 19.5203 68.2438V71.0005C19.5203 71.1332 19.5832 71.2204 19.709 71.2624L21.7851 71.9544ZM29.465 76.1343C29.411 76.1163 29.3661 76.0872 29.3302 76.0468C29.2942 75.9969 29.2762 75.9388 29.2762 75.8725V67.048C29.2762 66.9154 29.2133 66.8281 29.0875 66.7861L26.2296 65.8335C26.1037 65.7916 26.0408 65.7043 26.0408 65.5716V64.3496C26.0408 64.2169 26.1037 64.1716 26.2296 64.2135L34.0619 66.8243C34.1159 66.8423 34.1608 66.8762 34.1968 66.9261C34.2327 66.9665 34.2507 67.0199 34.2507 67.0862V68.3083C34.2507 68.3746 34.2327 68.4207 34.1968 68.4466C34.1608 68.463 34.1159 68.4623 34.0619 68.4443L31.177 67.4827C31.0512 67.4407 30.9883 67.4861 30.9883 67.6187V76.4432C30.9883 76.5758 30.9254 76.6211 30.7996 76.5792L29.465 76.1343ZM39.3007 79.5976C38.2223 79.2382 37.3146 78.6845 36.5776 77.9368C35.8496 77.1826 35.3059 76.3192 34.9464 75.3468C34.5869 74.3744 34.4072 73.3766 34.4072 72.3535C34.4072 71.3303 34.5869 70.4571 34.9464 69.7338C35.3059 69.001 35.8496 68.5049 36.5776 68.2455C37.3146 67.9891 38.2223 68.0406 39.3007 68.4001C40.4691 68.7895 41.4217 69.4008 42.1587 70.2338C42.9046 71.0603 43.372 71.9976 43.5607 73.0458V73.1026C43.5607 73.2068 43.5023 73.2394 43.3854 73.2005L41.9025 72.7062C41.7947 72.6703 41.7228 72.5847 41.6869 72.4496C41.552 71.8836 41.2689 71.3866 40.8376 70.9586C40.4152 70.5241 39.8939 70.2035 39.2738 69.9968C38.2852 69.6673 37.5213 69.7774 36.982 70.3271C36.4428 70.8673 36.1732 71.739 36.1732 72.9421C36.1732 74.1453 36.4428 75.2061 36.982 76.1248C37.5213 77.034 38.2852 77.6534 39.2738 77.9829C39.9029 78.1926 40.4286 78.2116 40.851 78.0397C41.2734 77.8679 41.552 77.5013 41.6869 76.94C41.7318 76.8413 41.8037 76.8084 41.9025 76.8413L43.3854 77.3356C43.4573 77.3596 43.5068 77.395 43.5337 77.4419C43.5697 77.4823 43.5787 77.5279 43.5607 77.5788C43.381 78.5799 42.9181 79.264 42.1722 79.6311C41.4352 80.0012 40.4781 79.9901 39.3007 79.5976ZM48.3225 80.7718C48.3045 80.7753 48.2821 80.7725 48.2551 80.7635C48.2102 80.7486 48.1697 80.7209 48.1338 80.6805C48.1068 80.6336 48.0933 80.5817 48.0933 80.5249V79.4023C48.0933 79.2886 48.1472 79.2308 48.2551 79.2288L52.5151 79.0573C52.5959 79.0558 52.6364 79.022 52.6364 78.9556C52.6364 78.8988 52.5959 78.8427 52.5151 78.7873L48.2551 75.7758C48.1472 75.7114 48.0933 75.6177 48.0933 75.4945V74.3719C48.0933 74.2961 48.1158 74.2515 48.1607 74.2381C48.2057 74.2246 48.2596 74.2426 48.3225 74.292L54.335 78.6124C54.4428 78.6862 54.4967 78.78 54.4967 78.8937V80.2721C54.4967 80.3763 54.4428 80.4341 54.335 80.4455L48.3225 80.7718ZM66.6566 85.3343C66.6566 86.3005 66.3465 86.9645 65.7264 87.3262C65.1153 87.6815 64.2525 87.6828 63.1381 87.3303V88.5808C63.1381 88.7134 63.0752 88.7587 62.9494 88.7168L62.7606 88.6539C62.6348 88.6119 62.5719 88.5247 62.5719 88.392V87.1273C61.6103 86.731 60.7789 86.1507 60.0779 85.3866C59.3769 84.6129 58.95 83.6843 58.7972 82.6008V82.5582C58.7972 82.454 58.8512 82.4198 58.959 82.4558L60.2936 82.9006C60.4015 82.9366 60.4689 83.0112 60.4958 83.1244C60.6396 83.7407 60.8958 84.2524 61.2642 84.6594C61.6327 85.0664 62.0686 85.387 62.5719 85.6211V82.2959L62.491 82.2547C61.763 81.8416 61.1744 81.4748 60.725 81.1545C60.2846 80.8372 59.9072 80.4366 59.5926 79.9528C59.2781 79.4596 59.1208 78.8767 59.1208 78.204C59.1208 77.2662 59.4353 76.6368 60.0644 76.316C60.6936 75.9952 61.5159 76.0041 62.5314 76.3426L62.5719 76.3561V75.1056C62.5719 74.973 62.6348 74.9276 62.7606 74.9696L62.9494 75.0325C63.0752 75.0744 63.1381 75.1617 63.1381 75.2943V76.5874C63.9559 76.9548 64.6524 77.4854 65.2276 78.1792C65.8028 78.8635 66.1758 79.6699 66.3465 80.5984V80.6553C66.3465 80.7595 66.2926 80.7936 66.1848 80.7576L64.8906 80.3263C64.7828 80.2903 64.7154 80.2157 64.6884 80.1025C64.5716 79.6468 64.3783 79.2555 64.1087 78.9288C63.8391 78.5926 63.5156 78.319 63.1381 78.1079V81.0068C63.875 81.423 64.4772 81.8037 64.9445 82.1489C65.4209 82.4972 65.8253 82.9351 66.1578 83.4628C66.4903 83.9905 66.6566 84.6143 66.6566 85.3343ZM60.752 78.6057C60.752 79.0225 60.9048 79.386 61.2103 79.6963C61.5159 80.0066 61.9697 80.3379 62.5719 80.6902V77.8481L62.5045 77.8257C61.9653 77.6459 61.5384 77.6268 61.2238 77.7682C60.9093 77.9002 60.752 78.1794 60.752 78.6057ZM63.1381 85.8382C63.7133 86.011 64.1671 86.0249 64.4997 85.88C64.8412 85.7286 65.0119 85.3971 65.0119 84.8855C65.0119 84.4213 64.8502 84.0169 64.5266 83.6722C64.2121 83.3305 63.7492 82.982 63.1381 82.6267V85.8382ZM71.5454 90.1611C71.4915 90.1432 71.4466 90.114 71.4106 90.0736C71.3747 90.0237 71.3567 89.9656 71.3567 89.8993V81.8422C71.3567 81.7285 71.3252 81.6612 71.2623 81.6402C71.2264 81.6282 71.1859 81.6431 71.141 81.685C70.8354 81.9431 70.4714 82.125 70.049 82.2305C69.6356 82.339 69.1908 82.3754 68.7144 82.3398L68.6605 82.3218C68.5617 82.2889 68.5122 82.2108 68.5122 82.0877V80.8087C68.5122 80.6951 68.5661 80.642 68.674 80.6495C69.2582 80.6927 69.7839 80.5932 70.2513 80.3511C70.7186 80.109 71.0826 79.7898 71.3432 79.3935C71.3971 79.3168 71.4735 79.2949 71.5724 79.3278L72.88 79.7637C73.0058 79.8056 73.0688 79.8929 73.0688 80.0256V90.47C73.0688 90.6026 73.0058 90.6479 72.88 90.606L71.5454 90.1611ZM76.3129 91.7503C76.1871 91.7084 76.1242 91.6211 76.1242 91.4884V90.4085C76.1242 90.3232 76.1601 90.2547 76.232 90.2029L79.3731 88.3936C80.0471 88.0026 80.5459 87.6099 80.8694 87.2156C81.193 86.8119 81.3548 86.3306 81.3548 85.7717C81.3548 85.2127 81.2155 84.7305 80.9369 84.325C80.6582 83.9101 80.2403 83.6097 79.6831 83.424C78.5148 83.0345 77.8632 83.5326 77.7284 84.9181C77.7194 85.0478 77.6565 85.0931 77.5397 85.0542L76.3129 84.6453C76.25 84.6243 76.2006 84.5936 76.1646 84.5532C76.1287 84.5033 76.1152 84.4467 76.1242 84.3834C76.1961 83.2421 76.5376 82.4513 77.1487 82.0108C77.7688 81.5638 78.6136 81.5186 79.6831 81.8751C80.3212 82.0878 80.8874 82.4092 81.3817 82.8392C81.885 83.2627 82.2715 83.761 82.5411 84.334C82.8197 84.91 82.959 85.5201 82.959 86.1643C82.959 87.0169 82.7253 87.7301 82.258 88.3037C81.7996 88.8804 81.1975 89.3949 80.4515 89.8473L78.8743 90.7426C78.8204 90.7625 78.7934 90.7961 78.7934 90.8435C78.7934 90.9193 78.8473 90.9752 78.9552 91.0111L83.2421 92.4401C83.3679 92.482 83.4308 92.5693 83.4308 92.7019V93.924C83.4308 94.0566 83.3679 94.102 83.2421 94.06L76.3129 91.7503ZM88.2522 95.9006C87.0659 95.5052 86.1492 94.7401 85.5021 93.6055C84.855 92.4709 84.5315 90.9515 84.5315 89.0474C84.5315 87.1527 84.8461 85.8555 85.4752 85.1557C86.1133 84.459 87.0165 84.3053 88.1848 84.6948C89.3711 85.0902 90.2833 85.8538 90.9214 86.9854C91.5685 88.12 91.8921 89.6441 91.8921 91.5577C91.8921 93.4429 91.573 94.7339 90.9349 95.4307C90.3058 96.1304 89.4116 96.287 88.2522 95.9006ZM88.2118 94.2672C88.8409 94.4769 89.3262 94.3308 89.6677 93.8288C90.0092 93.3269 90.18 92.3749 90.18 90.9728C90.18 89.5518 90.0047 88.4703 89.6542 87.7282C89.3037 86.9861 88.8094 86.5087 88.1713 86.296C87.5422 86.0863 87.0614 86.2387 86.7289 86.7531C86.4053 87.2705 86.2436 88.2302 86.2436 89.6323C86.2436 91.0533 86.4098 92.1271 86.7424 92.8537C87.0839 93.5833 87.5737 94.0545 88.2118 94.2672ZM93.4511 97.463C93.3253 97.4211 93.2624 97.3338 93.2624 97.2012V86.7568C93.2624 86.6241 93.3253 86.5788 93.4511 86.6207L94.6644 87.0252C94.7902 87.0671 94.8531 87.1544 94.8531 87.287V92.6584C94.8531 92.7153 94.8621 92.7609 94.8801 92.7953C94.907 92.8327 94.934 92.8559 94.961 92.8649C95.0059 92.8799 95.0508 92.8712 95.0958 92.8388L97.6976 91.0488C97.7695 90.9969 97.8459 90.9845 97.9268 91.0115L99.531 91.5462C99.6388 91.5822 99.6928 91.638 99.6928 91.7138C99.6928 91.7612 99.6703 91.8011 99.6254 91.8335L96.5517 93.8783C96.5068 93.9296 96.4843 93.9742 96.4843 94.0121C96.4843 94.0595 96.5023 94.1081 96.5382 94.158L99.9354 99.3829C99.9714 99.4422 99.9893 99.4909 99.9893 99.5288C99.9893 99.6045 99.9354 99.6245 99.8276 99.5885L98.2638 99.0673C98.1559 99.0313 98.0795 98.968 98.0346 98.8772L95.0823 94.2979C95.0374 94.2261 94.9924 94.1827 94.9475 94.1677C94.8846 94.1468 94.8531 94.1931 94.8531 94.3068V97.7314C94.8531 97.8641 94.7902 97.9094 94.6644 97.8675L93.4511 97.463ZM108.354 102.587C107.923 102.443 107.55 102.248 107.235 102.001C106.921 101.754 106.615 101.406 106.318 100.956C106.265 100.882 106.22 100.838 106.184 100.826C106.13 100.808 106.103 100.842 106.103 100.927V101.481C106.103 101.614 106.04 101.659 105.914 101.617L104.701 101.213C104.575 101.171 104.512 101.084 104.512 100.951V90.5067C104.512 90.374 104.575 90.3287 104.701 90.3706L105.914 90.7751C106.04 90.817 106.103 90.9043 106.103 91.0369V94.4615C106.103 94.5089 106.112 94.5498 106.13 94.5842C106.148 94.6186 106.166 94.6388 106.184 94.6448C106.238 94.6628 106.283 94.6493 106.318 94.6045C106.615 94.3528 106.921 94.2131 107.235 94.1853C107.55 94.1481 107.923 94.2014 108.354 94.3452C109.01 94.5638 109.585 94.9308 110.08 95.4461C110.583 95.9549 110.974 96.5684 111.252 97.2865C111.531 98.0046 111.67 98.7663 111.67 99.5715C111.67 100.377 111.531 101.046 111.252 101.578C110.974 102.11 110.583 102.468 110.08 102.651C109.585 102.827 109.01 102.806 108.354 102.587ZM108.031 101.03C108.651 101.236 109.145 101.15 109.513 100.771C109.882 100.392 110.066 99.8136 110.066 99.0368C110.066 98.26 109.882 97.5591 109.513 96.9342C109.145 96.3093 108.651 95.8934 108.031 95.6867C107.626 95.5519 107.267 95.5458 106.952 95.6683C106.638 95.7908 106.39 96.0258 106.211 96.3732C106.031 96.7207 105.941 97.1502 105.941 97.6617C105.941 98.1733 106.031 98.6627 106.211 99.13C106.39 99.5972 106.638 99.997 106.952 100.329C107.267 100.661 107.626 100.895 108.031 101.03ZM113.256 106.964C113.131 106.922 113.068 106.834 113.068 106.702V105.664C113.068 105.532 113.131 105.487 113.256 105.528L113.863 105.731C114.133 105.821 114.335 105.85 114.47 105.819C114.604 105.788 114.721 105.652 114.82 105.41L115.09 104.804C115.108 104.753 115.117 104.713 115.117 104.685C115.117 104.638 115.108 104.582 115.09 104.52L112.394 96.0753C112.385 96.0534 112.38 96.0187 112.38 95.9714C112.38 95.8766 112.43 95.8458 112.528 95.8787L113.877 96.3281C113.975 96.361 114.047 96.4418 114.092 96.5705L115.845 102.498C115.872 102.601 115.912 102.662 115.966 102.68C116.02 102.698 116.06 102.664 116.087 102.579L117.692 97.7703C117.719 97.6656 117.79 97.6327 117.907 97.6717L119.228 98.112C119.291 98.133 119.336 98.1717 119.363 98.228C119.39 98.2749 119.395 98.3332 119.377 98.403L116.384 106.258C116.159 106.847 115.894 107.213 115.589 107.357C115.283 107.511 114.847 107.494 114.281 107.305L113.256 106.964ZM124.217 107.718C124.163 107.7 124.118 107.671 124.082 107.631C124.046 107.581 124.028 107.523 124.028 107.456V97.012C124.028 96.9457 124.046 96.9043 124.082 96.8879C124.118 96.862 124.163 96.858 124.217 96.876L126.751 97.7208C126.868 97.7597 126.94 97.8405 126.967 97.9632L129.151 106.706C129.178 106.809 129.214 106.869 129.259 106.884C129.322 106.905 129.357 106.869 129.366 106.778L131.55 99.491C131.577 99.3863 131.649 99.3534 131.766 99.3924L134.3 100.237C134.426 100.279 134.489 100.366 134.489 100.499V110.943C134.489 111.076 134.426 111.121 134.3 111.079L132.966 110.635C132.912 110.617 132.867 110.587 132.831 110.547C132.795 110.497 132.777 110.439 132.777 110.373V101.847C132.777 101.809 132.768 101.777 132.75 101.752C132.732 101.718 132.71 101.696 132.683 101.687C132.629 101.669 132.593 101.686 132.575 101.737L130.148 109.525C130.112 109.627 130.041 109.66 129.933 109.624L128.598 109.179C128.481 109.14 128.409 109.059 128.382 108.936L125.942 99.5969C125.933 99.5276 125.897 99.4824 125.834 99.4614C125.772 99.4405 125.74 99.4726 125.74 99.5579V108.027C125.74 108.16 125.677 108.205 125.551 108.163L124.217 107.718ZM138.344 112.584C137.607 112.338 137.014 111.937 136.565 111.379C136.115 110.822 135.89 110.179 135.89 109.45C135.89 108.711 136.165 108.219 136.713 107.976C137.108 107.804 137.692 107.767 138.465 107.864L140.676 108.16C140.73 108.169 140.771 108.158 140.798 108.13C140.833 108.104 140.847 108.056 140.838 107.987C140.793 107.517 140.663 107.133 140.447 106.833C140.168 106.447 139.791 106.174 139.315 106.015C138.955 105.895 138.636 105.889 138.357 105.995C138.088 106.104 137.904 106.312 137.805 106.62C137.76 106.729 137.688 106.766 137.589 106.733L136.376 106.329C136.313 106.308 136.268 106.274 136.241 106.227C136.214 106.171 136.205 106.111 136.214 106.048C136.376 105.325 136.744 104.851 137.319 104.626C137.904 104.403 138.573 104.418 139.328 104.67C139.777 104.82 140.195 105.025 140.582 105.287C140.977 105.551 141.314 105.862 141.593 106.221C141.961 106.703 142.191 107.201 142.28 107.714C142.379 108.23 142.429 108.82 142.429 109.483V113.59C142.429 113.723 142.366 113.768 142.24 113.726L141.027 113.322C140.901 113.28 140.838 113.192 140.838 113.06V112.52C140.838 112.406 140.811 112.34 140.757 112.322C140.739 112.316 140.708 112.329 140.663 112.362C140.483 112.539 140.29 112.659 140.083 112.723C139.661 112.876 139.081 112.829 138.344 112.584ZM138.695 111.336C139.063 111.459 139.409 111.494 139.733 111.441C140.128 111.364 140.411 111.184 140.582 110.9C140.753 110.616 140.847 110.206 140.865 109.672C140.865 109.606 140.847 109.553 140.811 109.512C140.775 109.463 140.726 109.432 140.663 109.42L138.856 109.202C138.335 109.142 137.967 109.18 137.751 109.317C137.571 109.446 137.481 109.653 137.481 109.937C137.481 110.25 137.589 110.532 137.805 110.784C138.029 111.029 138.326 111.213 138.695 111.336ZM144.153 114.364C144.028 114.322 143.965 114.235 143.965 114.102V106.556C143.965 106.5 143.978 106.457 144.005 106.428C144.041 106.402 144.091 106.399 144.153 106.42L145.367 106.825C145.43 106.846 145.475 106.88 145.502 106.927C145.537 106.976 145.555 107.03 145.555 107.087V107.541C145.555 107.646 145.582 107.707 145.636 107.725C145.672 107.737 145.717 107.723 145.771 107.684C146.05 107.465 146.346 107.341 146.661 107.313C146.984 107.288 147.357 107.346 147.78 107.487C147.906 107.529 147.969 107.616 147.969 107.749V108.985C147.969 109.042 147.951 109.083 147.915 109.109C147.888 109.138 147.843 109.142 147.78 109.121L147.564 109.049C146.962 108.849 146.499 108.865 146.176 109.098C145.762 109.368 145.555 110 145.555 110.994V114.632C145.555 114.765 145.493 114.81 145.367 114.768L144.153 114.364ZM152.244 117.217C151.507 116.971 150.855 116.579 150.289 116.04C149.723 115.5 149.283 114.866 148.968 114.136C148.653 113.396 148.496 112.619 148.496 111.804C148.496 111.018 148.653 110.369 148.968 109.858C149.283 109.338 149.723 109.002 150.289 108.849C150.855 108.687 151.507 108.729 152.244 108.975C153.089 109.257 153.812 109.716 154.414 110.352C155.016 110.979 155.425 111.703 155.641 112.523C155.65 112.545 155.655 112.57 155.655 112.599C155.655 112.703 155.596 112.736 155.479 112.697L154.131 112.247C154.032 112.214 153.96 112.133 153.915 112.005C153.781 111.619 153.565 111.282 153.268 110.993C152.981 110.708 152.639 110.499 152.244 110.368C151.83 110.23 151.462 110.221 151.138 110.34C150.815 110.45 150.563 110.679 150.383 111.026C150.204 111.374 150.114 111.813 150.114 112.343C150.114 112.893 150.204 113.406 150.383 113.883C150.563 114.359 150.815 114.765 151.138 115.101C151.462 115.436 151.83 115.672 152.244 115.81C152.675 115.954 153.039 115.966 153.336 115.847C153.632 115.728 153.844 115.5 153.969 115.163C153.996 115.068 154.068 115.04 154.185 115.079L155.52 115.524C155.663 115.572 155.722 115.662 155.695 115.795C155.488 116.532 155.075 117.024 154.455 117.272C153.835 117.52 153.098 117.502 152.244 117.217ZM157.141 118.693C157.015 118.651 156.952 118.564 156.952 118.431V107.987C156.952 107.854 157.015 107.809 157.141 107.851L158.354 108.255C158.48 108.297 158.543 108.384 158.543 108.517V111.942C158.543 111.989 158.552 112.03 158.57 112.064C158.588 112.099 158.606 112.119 158.624 112.125C158.678 112.143 158.723 112.129 158.759 112.085C159.055 111.842 159.352 111.7 159.648 111.656C159.954 111.616 160.291 111.657 160.659 111.78C161.783 112.155 162.551 112.842 162.965 113.842C163.108 114.202 163.198 114.55 163.234 114.884C163.27 115.218 163.288 115.622 163.288 116.095V120.543C163.288 120.676 163.225 120.721 163.099 120.679L161.886 120.275C161.76 120.233 161.697 120.145 161.697 120.013V115.565C161.697 114.769 161.567 114.176 161.306 113.786C161.091 113.459 160.749 113.217 160.282 113.061C159.743 112.881 159.338 112.917 159.069 113.168C158.889 113.326 158.754 113.575 158.664 113.915C158.583 114.248 158.543 114.722 158.543 115.338V118.961C158.543 119.094 158.48 119.139 158.354 119.097L157.141 118.693ZM168.413 122.45C168.287 122.408 168.224 122.321 168.224 122.189V121.109C168.224 121.023 168.26 120.955 168.332 120.903L171.473 119.094C172.147 118.703 172.646 118.31 172.97 117.916C173.293 117.512 173.455 117.031 173.455 116.472C173.455 115.913 173.316 115.431 173.037 115.025C172.758 114.61 172.341 114.31 171.783 114.124C170.615 113.735 169.963 114.233 169.829 115.618C169.82 115.748 169.757 115.793 169.64 115.754L168.413 115.345C168.35 115.324 168.301 115.294 168.265 115.253C168.229 115.203 168.215 115.147 168.224 115.083C168.296 113.942 168.638 113.151 169.249 112.711C169.869 112.264 170.714 112.219 171.783 112.575C172.421 112.788 172.988 113.109 173.482 113.539C173.985 113.963 174.372 114.461 174.641 115.034C174.92 115.61 175.059 116.22 175.059 116.864C175.059 117.717 174.826 118.43 174.358 119.004C173.9 119.58 173.298 120.095 172.552 120.547L170.974 121.443C170.921 121.463 170.894 121.496 170.894 121.544C170.894 121.619 170.948 121.675 171.055 121.711L175.342 123.14C175.468 123.182 175.531 123.269 175.531 123.402V124.624C175.531 124.757 175.468 124.802 175.342 124.76L168.413 122.45ZM180.352 126.601C179.166 126.205 178.249 125.44 177.602 124.306C176.955 123.171 176.632 121.652 176.632 119.747C176.632 117.853 176.946 116.556 177.575 115.856C178.213 115.159 179.117 115.005 180.285 115.395C181.471 115.79 182.384 116.554 183.022 117.685C183.669 118.82 183.992 120.344 183.992 122.258C183.992 124.143 183.673 125.434 183.035 126.131C182.406 126.83 181.512 126.987 180.352 126.601ZM180.312 124.967C180.941 125.177 181.426 125.031 181.768 124.529C182.109 124.027 182.28 123.075 182.28 121.673C182.28 120.252 182.105 119.17 181.754 118.428C181.404 117.686 180.91 117.209 180.272 116.996C179.642 116.786 179.162 116.939 178.829 117.453C178.506 117.971 178.344 118.93 178.344 120.332C178.344 121.753 178.51 122.827 178.843 123.554C179.184 124.283 179.674 124.755 180.312 124.967ZM185.39 128.109C185.264 128.067 185.201 127.98 185.201 127.847V126.767C185.201 126.682 185.237 126.614 185.309 126.562L188.45 124.753C189.124 124.361 189.623 123.969 189.946 123.575C190.27 123.171 190.431 122.689 190.431 122.131C190.431 121.572 190.292 121.089 190.013 120.684C189.735 120.269 189.317 119.969 188.76 119.783C187.591 119.393 186.94 119.891 186.805 121.277C186.796 121.407 186.733 121.452 186.616 121.413L185.39 121.004C185.327 120.983 185.277 120.952 185.241 120.912C185.205 120.862 185.192 120.806 185.201 120.742C185.273 119.601 185.614 118.81 186.225 118.37C186.845 117.923 187.69 117.877 188.76 118.234C189.398 118.447 189.964 118.768 190.458 119.198C190.962 119.622 191.348 120.12 191.618 120.693C191.896 121.269 192.036 121.879 192.036 122.523C192.036 123.376 191.802 124.089 191.335 124.663C190.876 125.239 190.274 125.754 189.528 126.206L187.951 127.101C187.897 127.121 187.87 127.155 187.87 127.202C187.87 127.278 187.924 127.334 188.032 127.37L192.319 128.799C192.445 128.841 192.507 128.928 192.507 129.061V130.283C192.507 130.415 192.445 130.461 192.319 130.419L185.39 128.109ZM197.477 132.323C196.228 131.907 195.275 131.125 194.619 129.978C193.972 128.834 193.649 127.433 193.649 125.775C193.649 123.928 193.977 122.588 194.633 121.755C195.289 120.922 196.25 120.717 197.518 121.139C198.443 121.448 199.198 121.96 199.782 122.676C200.376 123.385 200.753 124.221 200.915 125.185V125.241C200.915 125.346 200.861 125.38 200.753 125.344L199.567 124.948C199.45 124.909 199.378 124.829 199.351 124.706C199.081 123.678 198.47 123.005 197.518 122.688C196.808 122.451 196.264 122.545 195.886 122.968C195.518 123.386 195.311 124.089 195.266 125.078C195.266 125.144 195.275 125.199 195.293 125.243C195.32 125.281 195.352 125.305 195.388 125.317C195.433 125.332 195.482 125.32 195.536 125.281C196.075 124.836 196.785 124.76 197.666 125.054C198.313 125.269 198.884 125.606 199.378 126.065C199.872 126.523 200.254 127.067 200.524 127.697C200.802 128.33 200.942 129.002 200.942 129.712C200.942 130.432 200.793 131.032 200.497 131.511C200.209 131.983 199.8 132.292 199.27 132.438C198.74 132.583 198.142 132.545 197.477 132.323ZM197.45 130.751C197.998 130.934 198.43 130.874 198.744 130.571C199.068 130.272 199.23 129.805 199.23 129.17C199.23 128.535 199.072 127.971 198.758 127.478C198.443 126.985 198.007 126.645 197.45 126.46C196.866 126.265 196.39 126.305 196.021 126.58C195.662 126.849 195.482 127.296 195.482 127.921C195.482 128.565 195.662 129.151 196.021 129.678C196.39 130.199 196.866 130.556 197.45 130.751ZM204.402 130.723C204.402 130.193 204.469 129.775 204.604 129.469C204.739 129.164 204.9 128.943 205.089 128.807C205.278 128.671 205.525 128.535 205.831 128.4C206.181 128.261 206.437 128.11 206.599 127.946C206.761 127.782 206.842 127.511 206.842 127.132C206.842 126.639 206.693 126.215 206.397 125.861C206.1 125.506 205.7 125.245 205.197 125.077C204.658 124.897 204.226 124.924 203.903 125.157C203.579 125.381 203.399 125.79 203.364 126.384L201.921 125.904C201.957 125.234 202.114 124.699 202.393 124.299C202.681 123.893 203.062 123.641 203.539 123.544C204.024 123.441 204.572 123.491 205.183 123.694C206.1 124 206.851 124.506 207.435 125.212C208.028 125.921 208.325 126.754 208.325 127.711C208.325 128.128 208.266 128.459 208.149 128.704C208.041 128.953 207.907 129.14 207.745 129.266C207.583 129.382 207.363 129.503 207.084 129.628C206.833 129.743 206.63 129.856 206.478 129.966C206.334 130.07 206.204 130.22 206.087 130.418C205.979 130.619 205.916 130.887 205.898 131.222L205.844 131.744L204.402 131.263V130.723ZM205.103 134.837C204.833 134.747 204.599 134.565 204.402 134.29C204.213 134.019 204.118 133.741 204.118 133.457C204.118 133.182 204.213 132.977 204.402 132.841C204.599 132.698 204.833 132.672 205.103 132.762C205.372 132.852 205.601 133.028 205.79 133.289C205.988 133.554 206.087 133.829 206.087 134.113C206.087 134.407 205.988 134.625 205.79 134.767C205.601 134.903 205.372 134.926 205.103 134.837Z" fill="white"/>
<rect width="163.416" height="39.0778" transform="matrix(0.948683 0.316228 0 1 16.8511 97.9805)" fill="#25FFD7" fill-opacity="0.16"/>
<path d="M77.6496 142.785C77.5395 142.748 77.4845 142.672 77.4845 142.556V139.161C77.4845 139.078 77.4648 139.001 77.4255 138.93L74.2878 132.389C74.2642 132.339 74.2524 132.302 74.2524 132.277C74.2524 132.244 74.2642 132.223 74.2878 132.215C74.3193 132.2 74.3586 132.201 74.4058 132.217L75.7859 132.677C75.8724 132.705 75.9392 132.769 75.9864 132.868L78.1332 137.513C78.1725 137.584 78.2119 137.626 78.2512 137.639C78.2905 137.652 78.3298 137.636 78.3691 137.591L80.5514 134.389C80.5828 134.317 80.6457 134.297 80.7401 134.328L82.1084 134.784C82.1556 134.8 82.191 134.824 82.2146 134.857C82.246 134.884 82.2617 134.914 82.2617 134.947C82.2617 134.972 82.2499 135.001 82.2264 135.035L79.1005 139.489C79.069 139.544 79.0533 139.61 79.0533 139.684V143.079C79.0533 143.195 78.9982 143.234 78.8882 143.198L77.6496 142.785ZM84.6954 145.27C84.0505 145.055 83.4765 144.711 82.9732 144.236C82.4778 143.756 82.0924 143.201 81.8172 142.57C81.542 141.931 81.4043 141.272 81.4043 140.592C81.4043 139.962 81.5262 139.41 81.77 138.936C82.0216 138.465 82.3912 138.14 82.8788 137.963C83.3742 137.788 83.968 137.816 84.66 138.047C85.2419 138.241 85.7806 138.553 86.276 138.983C86.7793 139.408 87.1803 139.936 87.4792 140.566C87.7858 141.198 87.9392 141.9 87.9392 142.671V142.87C87.9392 142.928 87.9235 142.968 87.892 142.991C87.8606 143.005 87.8212 143.005 87.7741 142.989L82.9968 141.397C82.8788 141.357 82.8316 141.404 82.8552 141.536C82.8867 141.737 82.9496 141.953 83.0439 142.183C83.2012 142.625 83.4253 143.007 83.7163 143.328C84.0151 143.651 84.3533 143.876 84.7307 144.001C85.1003 144.125 85.4228 144.137 85.698 144.038C85.9732 143.939 86.1816 143.76 86.3232 143.5C86.3704 143.433 86.4333 143.413 86.5119 143.439L87.6207 143.808C87.6836 143.829 87.7269 143.86 87.7505 143.901C87.7819 143.937 87.7898 143.972 87.7741 144.009C87.546 144.612 87.1725 145.039 86.6535 145.289C86.1344 145.539 85.4817 145.532 84.6954 145.27ZM86.2996 141.341C86.3625 141.362 86.4057 141.36 86.4293 141.335C86.4608 141.312 86.4687 141.269 86.4529 141.206C86.39 140.969 86.331 140.792 86.276 140.674C86.1187 140.332 85.9025 140.04 85.6272 139.799C85.352 139.55 85.0453 139.369 84.7072 139.256C84.3611 139.141 84.0545 139.117 83.7871 139.186C83.5197 139.246 83.3035 139.393 83.1383 139.628C83.0518 139.757 82.9889 139.894 82.9496 140.038C82.9417 140.052 82.9378 140.071 82.9378 140.096C82.9378 140.179 82.9889 140.238 83.0911 140.272L86.2996 141.341ZM91.9582 147.691C91.1797 147.432 90.5113 147.018 89.953 146.451C89.3946 145.875 89.0407 145.198 88.8913 144.418V144.369C88.8913 144.277 88.9424 144.249 89.0447 144.283L90.1181 144.641C90.2125 144.672 90.2754 144.743 90.3068 144.853C90.4169 145.238 90.6096 145.571 90.8848 145.854C91.1679 146.139 91.5257 146.353 91.9582 146.498C92.3436 146.626 92.6503 146.654 92.8783 146.58C93.1142 146.502 93.2322 146.321 93.2322 146.039C93.2322 145.816 93.1575 145.612 93.0081 145.43C92.8665 145.25 92.6856 145.09 92.4654 144.951C92.2531 144.805 91.9582 144.628 91.5808 144.42C91.0618 144.139 90.6371 143.885 90.3068 143.659C89.9844 143.436 89.7052 143.152 89.4693 142.808C89.2413 142.459 89.1272 142.048 89.1272 141.575C89.1272 140.912 89.3632 140.485 89.835 140.294C90.3068 140.103 90.9045 140.128 91.628 140.369C92.3514 140.611 92.9569 140.999 93.4445 141.535C93.9399 142.064 94.2623 142.69 94.4118 143.411V143.461C94.4118 143.552 94.3606 143.581 94.2584 143.547L93.2794 143.22C93.1929 143.191 93.1299 143.121 93.0906 143.008C92.9805 142.64 92.7957 142.334 92.5362 142.09C92.2846 141.848 91.9818 141.669 91.628 141.551C91.2741 141.433 90.9949 141.41 90.7905 141.483C90.586 141.556 90.4838 141.712 90.4838 141.953C90.4838 142.152 90.5506 142.336 90.6843 142.504C90.8258 142.668 90.9988 142.816 91.2033 142.951C91.4156 143.08 91.7066 143.243 92.0762 143.441C92.6031 143.716 93.0356 143.972 93.3737 144.209C93.7119 144.446 94.0028 144.746 94.2466 145.109C94.4904 145.464 94.6123 145.886 94.6123 146.375C94.6123 147.047 94.3764 147.503 93.9045 147.743C93.4327 147.984 92.7839 147.966 91.9582 147.691Z" fill="#25FFD7"/>
<path d="M106.567 149.628C106.567 150.474 106.296 151.055 105.753 151.371C105.218 151.682 104.463 151.683 103.488 151.375V152.469C103.488 152.585 103.433 152.625 103.323 152.588L103.158 152.533C103.048 152.496 102.993 152.42 102.993 152.304V151.197C102.151 150.85 101.424 150.343 100.811 149.674C100.197 148.997 99.8238 148.185 99.6901 147.236V147.199C99.6901 147.108 99.7373 147.078 99.8316 147.11L100.999 147.499C101.094 147.53 101.153 147.595 101.176 147.695C101.302 148.234 101.526 148.682 101.849 149.038C102.171 149.394 102.553 149.674 102.993 149.879V146.97L102.922 146.934C102.285 146.572 101.77 146.251 101.377 145.971C100.992 145.693 100.661 145.343 100.386 144.919C100.111 144.488 99.9732 143.978 99.9732 143.389C99.9732 142.569 100.248 142.018 100.799 141.737C101.349 141.457 102.069 141.464 102.957 141.761L102.993 141.772V140.678C102.993 140.562 103.048 140.522 103.158 140.559L103.323 140.614C103.433 140.651 103.488 140.727 103.488 140.843V141.975C104.204 142.296 104.813 142.76 105.317 143.368C105.82 143.966 106.146 144.672 106.296 145.484V145.534C106.296 145.625 106.249 145.655 106.154 145.624L105.022 145.246C104.927 145.215 104.868 145.149 104.845 145.05C104.743 144.652 104.574 144.309 104.338 144.023C104.102 143.729 103.819 143.49 103.488 143.305V145.842C104.133 146.206 104.66 146.539 105.069 146.841C105.486 147.146 105.84 147.529 106.131 147.991C106.422 148.452 106.567 148.998 106.567 149.628ZM101.4 143.741C101.4 144.105 101.534 144.424 101.802 144.695C102.069 144.966 102.466 145.256 102.993 145.565V143.078L102.934 143.058C102.462 142.901 102.089 142.884 101.813 143.008C101.538 143.123 101.4 143.368 101.4 143.741ZM103.488 150.069C103.992 150.22 104.389 150.233 104.68 150.106C104.979 149.973 105.128 149.683 105.128 149.236C105.128 148.829 104.986 148.475 104.703 148.174C104.428 147.875 104.023 147.57 103.488 147.259V150.069ZM111.505 154.072C111.458 154.056 111.419 154.031 111.387 153.995C111.356 153.952 111.34 153.901 111.34 153.843V152.015C111.34 151.899 111.285 151.823 111.175 151.786L107.53 150.571C107.42 150.534 107.365 150.458 107.365 150.342V149.111C107.365 149.02 107.385 148.952 107.424 148.907L111.305 144.618C111.344 144.564 111.407 144.552 111.493 144.581L112.673 144.974C112.783 145.011 112.838 145.087 112.838 145.203V150.749C112.838 150.865 112.893 150.941 113.003 150.978L113.9 151.277C114.01 151.313 114.065 151.39 114.065 151.506V152.575C114.065 152.691 114.01 152.731 113.9 152.694L113.003 152.395C112.893 152.359 112.838 152.398 112.838 152.514V154.342C112.838 154.458 112.783 154.498 112.673 154.461L111.505 154.072ZM111.175 150.368C111.285 150.405 111.34 150.365 111.34 150.249V146.942C111.34 146.843 111.313 146.784 111.258 146.765C111.218 146.752 111.183 146.769 111.151 146.817L108.91 149.402C108.887 149.427 108.875 149.457 108.875 149.49C108.875 149.564 108.922 149.617 109.016 149.649L111.175 150.368Z" fill="#25FFD7"/>
<rect width="163.416" height="39.0778" transform="matrix(0.948683 0.316228 0 1 178.622 151.902)" fill="#FF7752" fill-opacity="0.16"/>
<path d="M239.326 196.678C239.279 196.662 239.24 196.637 239.208 196.601C239.177 196.558 239.161 196.507 239.161 196.449V187.31C239.161 187.252 239.177 187.216 239.208 187.201C239.24 187.179 239.279 187.175 239.326 187.191L240.836 187.694C240.938 187.728 241.005 187.788 241.037 187.873L244.587 195.895C244.619 195.964 244.654 196.004 244.693 196.018C244.717 196.025 244.737 196.02 244.752 196C244.776 195.983 244.788 195.95 244.788 195.9V189.186C244.788 189.069 244.843 189.03 244.953 189.066L246.109 189.452C246.219 189.489 246.274 189.565 246.274 189.681V198.82C246.274 198.936 246.219 198.976 246.109 198.939L244.599 198.436C244.505 198.404 244.438 198.344 244.399 198.257L240.86 190.251C240.828 190.174 240.793 190.129 240.754 190.116C240.73 190.108 240.706 190.117 240.683 190.142C240.667 190.162 240.659 190.192 240.659 190.234V196.948C240.659 197.064 240.604 197.104 240.494 197.067L239.326 196.678ZM250.935 200.684C250.29 200.469 249.716 200.124 249.212 199.65C248.709 199.176 248.316 198.618 248.033 197.976C247.758 197.329 247.62 196.649 247.62 195.936C247.62 195.248 247.758 194.681 248.033 194.234C248.316 193.781 248.709 193.489 249.212 193.358C249.716 193.22 250.29 193.258 250.935 193.472C251.579 193.687 252.153 194.032 252.657 194.507C253.16 194.973 253.553 195.527 253.836 196.168C254.119 196.801 254.261 197.462 254.261 198.15C254.261 198.854 254.119 199.437 253.836 199.898C253.561 200.354 253.172 200.655 252.668 200.802C252.165 200.941 251.587 200.902 250.935 200.684ZM250.935 199.403C251.296 199.524 251.623 199.533 251.914 199.431C252.205 199.321 252.429 199.114 252.586 198.81C252.751 198.509 252.834 198.13 252.834 197.674C252.834 197.243 252.751 196.826 252.586 196.423C252.429 196.014 252.205 195.661 251.914 195.366C251.623 195.07 251.296 194.861 250.935 194.741C250.573 194.62 250.246 194.611 249.955 194.713C249.665 194.806 249.436 195.004 249.271 195.305C249.114 195.601 249.035 195.969 249.035 196.408C249.035 196.872 249.118 197.31 249.283 197.721C249.448 198.133 249.672 198.485 249.955 198.779C250.246 199.075 250.573 199.283 250.935 199.403Z" fill="#FF7752"/>
<path d="M265.966 202.757C265.966 203.603 265.695 204.184 265.152 204.5C264.617 204.811 263.862 204.812 262.887 204.504V205.598C262.887 205.714 262.832 205.754 262.722 205.717L262.557 205.662C262.447 205.625 262.392 205.549 262.392 205.433V204.326C261.55 203.979 260.823 203.472 260.21 202.803C259.596 202.126 259.223 201.313 259.089 200.365V200.328C259.089 200.237 259.136 200.207 259.231 200.238L260.398 200.628C260.493 200.659 260.552 200.724 260.575 200.823C260.701 201.363 260.925 201.81 261.248 202.167C261.57 202.523 261.951 202.803 262.392 203.008V200.099L262.321 200.063C261.684 199.701 261.169 199.38 260.776 199.1C260.39 198.822 260.06 198.472 259.785 198.048C259.51 197.617 259.372 197.107 259.372 196.518C259.372 195.698 259.647 195.147 260.198 194.866C260.748 194.585 261.468 194.593 262.356 194.889L262.392 194.901V193.807C262.392 193.691 262.447 193.651 262.557 193.688L262.722 193.743C262.832 193.78 262.887 193.856 262.887 193.972V195.104C263.603 195.425 264.212 195.889 264.716 196.496C265.219 197.095 265.545 197.801 265.695 198.613V198.663C265.695 198.754 265.647 198.784 265.553 198.753L264.421 198.375C264.326 198.344 264.267 198.278 264.244 198.179C264.142 197.781 263.972 197.438 263.737 197.152C263.501 196.858 263.218 196.619 262.887 196.434V198.971C263.532 199.335 264.059 199.668 264.468 199.97C264.885 200.275 265.239 200.658 265.529 201.12C265.82 201.581 265.966 202.127 265.966 202.757ZM260.799 196.87C260.799 197.234 260.933 197.552 261.2 197.824C261.468 198.095 261.865 198.385 262.392 198.694V196.207L262.333 196.187C261.861 196.03 261.487 196.013 261.212 196.137C260.937 196.252 260.799 196.497 260.799 196.87ZM262.887 203.198C263.391 203.349 263.788 203.361 264.079 203.235C264.377 203.102 264.527 202.812 264.527 202.364C264.527 201.958 264.385 201.604 264.102 201.303C263.827 201.004 263.422 200.699 262.887 200.388V203.198ZM270.904 207.201C270.857 207.185 270.818 207.16 270.786 207.124C270.755 207.081 270.739 207.03 270.739 206.972V205.144C270.739 205.028 270.684 204.952 270.574 204.915L266.929 203.7C266.819 203.663 266.764 203.587 266.764 203.471V202.24C266.764 202.149 266.784 202.081 266.823 202.036L270.704 197.746C270.743 197.693 270.806 197.681 270.892 197.71L272.072 198.103C272.182 198.14 272.237 198.216 272.237 198.332V203.878C272.237 203.994 272.292 204.07 272.402 204.107L273.299 204.406C273.409 204.442 273.464 204.519 273.464 204.635V205.704C273.464 205.82 273.409 205.86 273.299 205.823L272.402 205.524C272.292 205.488 272.237 205.527 272.237 205.643V207.471C272.237 207.587 272.182 207.627 272.072 207.59L270.904 207.201ZM270.574 203.497C270.684 203.534 270.739 203.494 270.739 203.378V200.071C270.739 199.971 270.712 199.913 270.656 199.894C270.617 199.881 270.582 199.898 270.55 199.946L268.309 202.531C268.286 202.556 268.274 202.586 268.274 202.619C268.274 202.693 268.321 202.746 268.415 202.778L270.574 203.497Z" fill="#FF7752"/>
<defs>
<clipPath id="clip0_146_4373">
<rect width="13.322" height="13.322" fill="white" transform="matrix(0.948683 0.316228 0 1 16.8511 25.7188)"/>
</clipPath>
</defs>
</svg>
