<svg width="248" height="188" viewBox="0 0 248 188" fill="none" xmlns="http://www.w3.org/2000/svg">
<rect width="261.094" height="105.442" transform="matrix(0.948683 -0.316228 0 1 0 82.5664)" fill="white" fill-opacity="0.1"/>
<g clip-path="url(#clip0_146_4399)">
<path d="M19.7237 97.7663L19.3749 97.8825V91.925C19.3749 91.8664 19.3528 91.8177 19.3136 91.7894C19.2743 91.7611 19.2211 91.7556 19.1655 91.7741L17.2118 92.4253C17.1563 92.4438 17.103 92.4848 17.0638 92.5393C17.0245 92.5938 17.0025 92.6572 17.0025 92.7158V94.2603L15.2581 94.8418C15.2026 94.8603 15.1493 94.9013 15.1101 94.9557C15.0708 95.0102 15.0488 95.0737 15.0488 95.1322V96.6768L13.5835 97.1652C13.5279 97.1837 13.4747 97.2247 13.4354 97.2792C13.3962 97.3336 13.3741 97.3971 13.3741 97.4556V99.8828L13.0252 99.9991C12.9697 100.018 12.9165 100.059 12.8772 100.113C12.838 100.168 12.8159 100.231 12.8159 100.29C12.8159 100.348 12.838 100.397 12.8772 100.425C12.9165 100.453 12.9697 100.459 13.0252 100.44L19.7237 98.2076C19.7793 98.189 19.8325 98.1481 19.8718 98.0936C19.911 98.0391 19.9331 97.9756 19.9331 97.9171C19.9331 97.8586 19.911 97.8098 19.8718 97.7815C19.8325 97.7532 19.7793 97.7477 19.7237 97.7663ZM17.4211 92.7969L18.9562 92.2852V98.0221L17.4211 98.5338V92.7969ZM15.4674 95.2133L17.0025 94.7016V98.6733L15.4674 99.185V95.2133ZM13.7928 97.5367L15.0488 97.1181V99.3246L13.7928 99.7432V97.5367Z" fill="#A8ADB5"/>
</g>
<path d="M27.6043 93.1858C27.6043 93.6929 27.4376 94.1527 27.1041 94.5651C26.7754 94.9759 26.3158 95.2823 25.7251 95.4842V96.1771C25.7251 96.2574 25.687 96.3103 25.6108 96.3357L25.5393 96.3595C25.4631 96.3849 25.425 96.3574 25.425 96.2771V95.5767C24.9153 95.7064 24.4724 95.6934 24.096 95.5376C23.7245 95.3803 23.5006 95.0382 23.4244 94.5113V94.4812C23.4244 94.4209 23.4578 94.3797 23.5244 94.3574L24.3175 94.0931C24.3795 94.0724 24.4176 94.0924 24.4319 94.1529C24.5748 94.6174 24.9058 94.7983 25.425 94.6955V93.1289L25.375 93.1305C24.9939 93.1672 24.6843 93.18 24.4462 93.169C24.208 93.153 24.0032 93.0706 23.8317 92.9219C23.6602 92.7732 23.5745 92.5206 23.5745 92.1641C23.5745 91.662 23.7436 91.2165 24.0818 90.8277C24.42 90.4337 24.8582 90.1471 25.3964 89.9677L25.425 89.9581V89.2652C25.425 89.1849 25.4631 89.132 25.5393 89.1066L25.6108 89.0828C25.687 89.0574 25.7251 89.0849 25.7251 89.1652V89.8807C26.1586 89.7864 26.5301 89.8207 26.8398 89.9836C27.1494 90.1465 27.3494 90.4414 27.4399 90.8681C27.4447 90.8766 27.4471 90.8883 27.4471 90.9034C27.4471 90.9636 27.4137 91.0049 27.3471 91.0271L26.5682 91.2867C26.5111 91.3058 26.4706 91.2891 26.4468 91.2368C26.3277 90.8999 26.0871 90.7467 25.7251 90.7769V92.1402C26.1205 92.1038 26.442 92.0945 26.6897 92.1124C26.9422 92.1236 27.1565 92.2103 27.3328 92.3725C27.5138 92.5331 27.6043 92.8042 27.6043 93.1858ZM24.5462 91.7574C24.5462 91.9482 24.62 92.0692 24.7677 92.1204C24.9201 92.17 25.1392 92.1848 25.425 92.1649V90.8318L25.375 90.8485C25.1273 90.931 24.9273 91.0529 24.7748 91.2142C24.6224 91.3755 24.5462 91.5565 24.5462 91.7574ZM25.7251 94.6105C25.9966 94.51 26.2134 94.3724 26.3753 94.198C26.542 94.0169 26.6254 93.8058 26.6254 93.5648C26.6254 93.3539 26.5468 93.2194 26.3896 93.1614C26.2372 93.0967 26.0157 93.0751 25.7251 93.0967V94.6105ZM30.2026 94.0519C30.1264 94.0773 30.0882 94.0499 30.0882 93.9695V89.8799C30.0882 89.8146 30.0692 89.7883 30.0311 89.801C30.0073 89.809 29.9811 89.8328 29.9525 89.8724C29.7953 90.1006 29.6095 90.3131 29.3952 90.5101C29.1856 90.7055 28.9593 90.8713 28.7164 91.0075L28.695 91.0146C28.6283 91.0369 28.5949 91.0103 28.5949 90.935V90.1819C28.5949 90.1065 28.6307 90.0494 28.7021 90.0106C29.007 89.8286 29.2785 89.5975 29.5166 89.3173C29.7548 89.0371 29.9406 88.7442 30.074 88.4386C30.1025 88.3688 30.1478 88.3236 30.2097 88.303L31.0028 88.0386C31.079 88.0132 31.1171 88.0407 31.1171 88.121V93.6266C31.1171 93.7069 31.079 93.7598 31.0028 93.7852L30.2026 94.0519ZM34.6371 92.6792C34.1227 92.8507 33.6892 92.8445 33.3367 92.6608C32.989 92.4754 32.7747 92.1452 32.6937 91.6701V91.6399C32.6937 91.6098 32.7032 91.584 32.7223 91.5626C32.7413 91.5362 32.7675 91.5174 32.8009 91.5063L33.6083 91.2372C33.6749 91.2149 33.7178 91.2333 33.7369 91.2922C33.7988 91.5025 33.9083 91.6443 34.0655 91.7174C34.2275 91.7839 34.4252 91.7783 34.6586 91.7005C34.9396 91.6068 35.1635 91.4317 35.3302 91.1753C35.4969 90.9139 35.5803 90.6175 35.5803 90.2861C35.5803 89.9698 35.4946 89.7423 35.3231 89.6036C35.1516 89.4599 34.9277 89.4341 34.6514 89.5262C34.4657 89.5882 34.3013 89.6881 34.1584 89.8261C34.0155 89.9591 33.8964 90.1244 33.8012 90.3218C33.7678 90.3881 33.7226 90.4308 33.6654 90.4499L32.8723 90.7143C32.8342 90.727 32.8056 90.7265 32.7866 90.7127C32.7675 90.694 32.7628 90.6629 32.7723 90.6196L33.3153 87.3732C33.3248 87.2998 33.3653 87.2511 33.4368 87.2273L36.2448 86.2913C36.321 86.2659 36.3591 86.2933 36.3591 86.3737V87.1042C36.3591 87.1846 36.321 87.2375 36.2448 87.2629L34.187 87.9488C34.1156 87.9726 34.0727 88.0246 34.0584 88.1046L33.8941 89.0858V89.1159C33.8941 89.1661 33.9083 89.1865 33.9369 89.1769C33.9655 89.1674 33.9917 89.1486 34.0155 89.1206C34.287 88.8343 34.5728 88.6411 34.8729 88.5411C35.2111 88.4284 35.5112 88.4112 35.7732 88.4895C36.04 88.5663 36.2448 88.7315 36.3877 88.9851C36.5354 89.2322 36.6092 89.549 36.6092 89.9356C36.6092 90.3423 36.5258 90.7316 36.3591 91.1035C36.1972 91.4738 35.9661 91.7969 35.666 92.0726C35.3659 92.3484 35.023 92.5506 34.6371 92.6792ZM37.7713 91.6119C37.6094 91.6659 37.4712 91.6542 37.3569 91.5768C37.2426 91.4944 37.1854 91.3678 37.1854 91.1971C37.1854 91.0364 37.2426 90.8793 37.3569 90.7257C37.476 90.5655 37.6141 90.4592 37.7713 90.4068C37.919 90.3576 38.0476 90.375 38.1572 90.459C38.2715 90.5363 38.3286 90.6554 38.3286 90.816C38.3286 90.9868 38.2739 91.1506 38.1643 91.3077C38.0547 91.4597 37.9237 91.5611 37.7713 91.6119ZM39.0751 91.0944C38.9989 91.1198 38.9607 91.0924 38.9607 91.012V90.402C38.9607 90.3468 38.9822 90.2894 39.0251 90.2299L40.6684 88.1608C41.0066 87.7367 41.2567 87.3697 41.4187 87.0596C41.5854 86.7429 41.6687 86.4541 41.6687 86.193C41.6687 85.9218 41.5997 85.7315 41.4615 85.6219C41.3234 85.5072 41.1162 85.496 40.8399 85.5881C40.2635 85.7802 39.9444 86.2431 39.8825 86.9767C39.8729 87.0602 39.8324 87.1139 39.761 87.1377L39.0393 87.3782C39.0012 87.3909 38.9727 87.3904 38.9536 87.3767C38.9345 87.3579 38.9274 87.3277 38.9322 87.2859C38.9703 86.6305 39.1537 86.0773 39.4823 85.6263C39.8158 85.1738 40.2731 84.8506 40.8542 84.6569C41.1972 84.5426 41.502 84.5113 41.7688 84.5629C42.0355 84.6096 42.2427 84.7388 42.3904 84.9507C42.5428 85.156 42.619 85.4318 42.619 85.7783C42.619 86.2252 42.4952 86.6857 42.2475 87.1599C41.9998 87.6341 41.6902 88.1064 41.3186 88.5767L40.6255 89.4554C40.597 89.4951 40.5827 89.5274 40.5827 89.5526C40.5827 89.5726 40.5898 89.5878 40.6041 89.5981C40.6232 89.6018 40.6494 89.5981 40.6827 89.587L42.7405 88.9011C42.8167 88.8757 42.8548 88.9031 42.8548 88.9835V89.714C42.8548 89.7944 42.8167 89.8472 42.7405 89.8726L39.0751 91.0944ZM43.7169 89.5472C43.6406 89.5726 43.6025 89.5451 43.6025 89.4648V83.9592C43.6025 83.8789 43.6406 83.826 43.7169 83.8006L44.4528 83.5553C44.529 83.5299 44.5671 83.5573 44.5671 83.6377V86.3792C44.5671 86.4143 44.5719 86.4403 44.5814 86.4573C44.5957 86.4726 44.6124 86.4771 44.6314 86.4707C44.66 86.4612 44.6838 86.4382 44.7029 86.4017L45.9747 84.6296C46.0128 84.5767 46.0604 84.5408 46.1176 84.5217L47.0607 84.2073C47.0893 84.1978 47.1108 84.1982 47.1251 84.2085C47.1441 84.2122 47.1536 84.2241 47.1536 84.2442C47.1536 84.2693 47.1417 84.2983 47.1179 84.3314L45.5603 86.4624C45.5317 86.502 45.5174 86.5369 45.5174 86.567C45.5174 86.5771 45.5269 86.599 45.546 86.6328L47.268 88.2204C47.287 88.2391 47.2965 88.2611 47.2965 88.2862C47.2965 88.3063 47.287 88.327 47.268 88.3484C47.2537 88.3632 47.2322 88.3754 47.2036 88.3849L46.2748 88.6945C46.2224 88.712 46.1771 88.7045 46.139 88.672L44.7029 87.3055C44.6695 87.2815 44.6433 87.2726 44.6243 87.279C44.61 87.2837 44.5957 87.2985 44.5814 87.3234C44.5719 87.3466 44.5671 87.3733 44.5671 87.4035V89.1433C44.5671 89.2236 44.529 89.2765 44.4528 89.3019L43.7169 89.5472ZM51.5906 86.9226C51.5477 86.9369 51.5191 86.9263 51.5048 86.8909L49.5471 81.9476L49.5399 81.9198C49.5399 81.8797 49.5614 81.8524 49.6042 81.8381L50.1187 81.6667C50.1615 81.6524 50.1901 81.6629 50.2044 81.6983L51.8478 85.9933C51.8621 86.0187 51.8787 86.0282 51.8978 86.0219C51.9264 86.0123 51.943 85.9917 51.9478 85.96L53.5912 80.5694C53.6055 80.5245 53.634 80.4949 53.6769 80.4806L54.1914 80.3091C54.2152 80.3012 54.2318 80.3056 54.2414 80.3226C54.2557 80.3329 54.258 80.3521 54.2485 80.3804L52.2908 86.629C52.2765 86.6739 52.2479 86.7035 52.205 86.7178L51.5906 86.9226ZM56.1981 85.4621C55.8266 85.5859 55.4931 85.6042 55.1978 85.5168C54.9072 85.4279 54.6786 85.2456 54.5119 84.9697C54.3499 84.6923 54.2689 84.3453 54.2689 83.9285C54.2689 83.5218 54.3499 83.1283 54.5119 82.7479C54.6786 82.366 54.9072 82.0362 55.1978 81.7586C55.4931 81.4744 55.8266 81.2703 56.1981 81.1465C56.5697 81.0226 56.9031 81.0044 57.1984 81.0917C57.4938 81.174 57.7248 81.3506 57.8915 81.6214C58.0582 81.8922 58.1416 82.2309 58.1416 82.6376C58.1416 83.0544 58.0582 83.4562 57.8915 83.8432C57.7295 84.2235 57.5009 84.5583 57.2056 84.8476C56.9102 85.1318 56.5744 85.3366 56.1981 85.4621ZM56.1981 84.8972C56.4458 84.8146 56.6697 84.6697 56.8698 84.4624C57.0746 84.2536 57.2342 84.0096 57.3485 83.7305C57.4676 83.4447 57.5271 83.1487 57.5271 82.8425C57.5271 82.5512 57.4699 82.3042 57.3556 82.1013C57.2413 81.8984 57.0817 81.7633 56.8769 81.696C56.6768 81.6221 56.4506 81.6272 56.1981 81.7114C55.9504 81.7939 55.7242 81.9371 55.5193 82.141C55.3193 82.3432 55.1621 82.5839 55.0478 82.863C54.9334 83.1421 54.8763 83.4298 54.8763 83.7261C54.8763 84.0324 54.9334 84.2895 55.0478 84.4974C55.1621 84.7053 55.3193 84.8462 55.5193 84.9201C55.7242 84.9874 55.9504 84.9798 56.1981 84.8972ZM59.9184 84.1467C59.5992 84.2531 59.3634 84.2563 59.211 84.1565C59.0586 84.0567 58.9823 83.8085 58.9823 83.4118V78.7874C58.9823 78.7372 59.0062 78.7042 59.0538 78.6883L59.5182 78.5335C59.5659 78.5176 59.5897 78.5348 59.5897 78.585V83.1114C59.5897 83.2571 59.5992 83.3668 59.6183 83.4408C59.6373 83.5098 59.6802 83.5558 59.7469 83.5787C59.8136 83.5967 59.9184 83.5818 60.0613 83.5342L60.1827 83.4937C60.2304 83.4778 60.2542 83.495 60.2542 83.5452V83.9594C60.2542 84.0096 60.2304 84.0427 60.1827 84.0586L59.9184 84.1467ZM61.2998 83.7615C61.1807 83.8012 61.0783 83.7927 60.9926 83.7359C60.9068 83.6741 60.864 83.5804 60.864 83.4549C60.864 83.3344 60.9068 83.2172 60.9926 83.1032C61.0783 82.9893 61.1807 82.9125 61.2998 82.8728C61.4094 82.8363 61.5046 82.8497 61.5856 82.9131C61.6666 82.9715 61.7071 83.0584 61.7071 83.1739C61.7071 83.2994 61.6666 83.4208 61.5856 83.5382C61.5046 83.6506 61.4094 83.725 61.2998 83.7615Z" fill="white" fill-opacity="0.6"/>
<circle cx="0.62763" cy="0.62763" r="0.62763" transform="matrix(0.948683 -0.316228 0 1 69.2627 77.9023)" fill="white" fill-opacity="0.4"/>
<path d="M80.3836 77.4271C79.7977 77.6224 79.319 77.6213 78.9474 77.4238C78.5759 77.2263 78.3663 76.8594 78.3187 76.3229V76.3003C78.3187 76.23 78.3544 76.183 78.4259 76.1592L79.2261 75.8924C79.2928 75.8702 79.3357 75.8935 79.3547 75.9625C79.4547 76.5166 79.8025 76.6944 80.3979 76.496C80.6885 76.3991 80.9147 76.2434 81.0767 76.0287C81.2386 75.814 81.3196 75.5661 81.3196 75.2849C81.3196 74.9987 81.2243 74.8171 81.0338 74.74C80.848 74.6614 80.5813 74.68 80.2336 74.7959L80.0192 74.8673C79.943 74.8928 79.9049 74.8653 79.9049 74.7849V74.1448C79.9049 74.0644 79.943 74.0116 80.0192 73.9862L80.1978 73.9266C80.436 73.8472 80.6337 73.7161 80.7909 73.5331C80.9481 73.3451 81.0267 73.1332 81.0267 72.8972C81.0267 72.6763 80.9624 72.5245 80.8337 72.4418C80.7051 72.3592 80.5241 72.3567 80.2907 72.4345C80.0716 72.5076 79.8906 72.6282 79.7477 72.7963C79.6048 72.9644 79.5095 73.1795 79.4619 73.4414C79.4476 73.5214 79.4071 73.5726 79.3404 73.5948L78.6259 73.833C78.5878 73.8457 78.5592 73.8452 78.5402 73.8314C78.5211 73.8127 78.514 73.7824 78.5187 73.7407C78.5521 73.4032 78.6474 73.0852 78.8045 72.7868C78.9665 72.4818 79.1761 72.2186 79.4333 71.9973C79.6905 71.776 79.9787 71.6121 80.2979 71.5058C80.6361 71.393 80.9362 71.3608 81.1981 71.409C81.4601 71.4573 81.6626 71.5756 81.8055 71.7639C81.9484 71.9523 82.0198 72.1946 82.0198 72.4908C82.0198 72.7569 81.9579 73.011 81.8341 73.2532C81.7102 73.4953 81.5435 73.6915 81.3339 73.8417C81.2958 73.8694 81.2767 73.8858 81.2767 73.8908C81.2767 73.9009 81.2839 73.906 81.2982 73.9063C81.3172 73.8999 81.3315 73.8952 81.341 73.892C81.6602 73.8609 81.9079 73.9441 82.0841 74.1414C82.2604 74.3387 82.3485 74.6106 82.3485 74.957C82.3485 75.3085 82.2651 75.6501 82.0984 75.9819C81.9365 76.312 81.7054 76.6049 81.4054 76.8606C81.11 77.1097 80.7694 77.2985 80.3836 77.4271ZM84.9111 75.918C84.3966 76.0894 83.9632 76.0833 83.6107 75.8995C83.2629 75.7142 83.0486 75.384 82.9676 74.9088V74.8787C82.9676 74.8486 82.9771 74.8228 82.9962 74.8014C83.0152 74.775 83.0414 74.7562 83.0748 74.7451L83.8822 74.4759C83.9489 74.4537 83.9917 74.4721 84.0108 74.531C84.0727 74.7413 84.1823 74.883 84.3395 74.9562C84.5014 75.0227 84.6991 75.017 84.9325 74.9392C85.2135 74.8456 85.4374 74.6705 85.6041 74.4141C85.7709 74.1527 85.8542 73.8563 85.8542 73.5249C85.8542 73.2085 85.7685 72.981 85.597 72.8424C85.4255 72.6987 85.2016 72.6729 84.9254 72.765C84.7396 72.8269 84.5752 72.9269 84.4323 73.0649C84.2894 73.1979 84.1704 73.3631 84.0751 73.5606C84.0418 73.6269 83.9965 73.6696 83.9393 73.6887L83.1462 73.953C83.1081 73.9657 83.0795 73.9652 83.0605 73.9515C83.0414 73.9327 83.0367 73.9017 83.0462 73.8583L83.5892 70.612C83.5988 70.5385 83.6392 70.4899 83.7107 70.4661L86.5187 69.5301C86.5949 69.5047 86.633 69.5321 86.633 69.6125V70.343C86.633 70.4234 86.5949 70.4762 86.5187 70.5016L84.4609 71.1876C84.3895 71.2114 84.3466 71.2633 84.3323 71.3434L84.168 72.3246V72.3547C84.168 72.4049 84.1823 72.4252 84.2109 72.4157C84.2394 72.4062 84.2656 72.3874 84.2894 72.3594C84.561 72.0731 84.8468 71.8799 85.1469 71.7799C85.4851 71.6671 85.7851 71.6499 86.0471 71.7283C86.3139 71.8051 86.5187 71.9703 86.6616 72.2239C86.8093 72.4709 86.8831 72.7878 86.8831 73.1744C86.8831 73.5811 86.7997 73.9704 86.633 74.3423C86.4711 74.7126 86.2401 75.0356 85.94 75.3114C85.6399 75.5872 85.2969 75.7894 84.9111 75.918ZM88.6812 71.3926C88.462 71.4656 88.262 71.4771 88.081 71.4269C87.9047 71.3702 87.7666 71.2581 87.6666 71.0906C87.5665 70.9181 87.5165 70.6988 87.5165 70.4326C87.5165 70.1715 87.5665 69.9239 87.6666 69.6897C87.7666 69.4505 87.9023 69.2471 88.0738 69.0795C88.2501 68.9052 88.4454 68.7824 88.6597 68.7109C88.8741 68.6395 89.0694 68.6346 89.2456 68.6964C89.4219 68.7582 89.56 68.8753 89.66 69.0478C89.7601 69.2203 89.8101 69.4296 89.8101 69.6756C89.8101 69.9217 89.7601 70.1643 89.66 70.4035C89.5648 70.6411 89.429 70.8496 89.2528 71.0288C89.0813 71.2015 88.8907 71.3227 88.6812 71.3926ZM88.0738 74.7583C88.0071 74.7805 87.9738 74.7665 87.9738 74.7163C87.9738 74.6912 87.9809 74.6662 87.9952 74.6414L91.2177 68.0466C91.251 67.9802 91.2962 67.9375 91.3534 67.9185L91.8893 67.7399C91.956 67.7176 91.9893 67.7316 91.9893 67.7818C91.9893 67.8019 91.9822 67.8269 91.9679 67.8568L88.7383 74.4539C88.705 74.5203 88.6597 74.563 88.6026 74.582L88.0738 74.7583ZM88.6812 70.6243C88.8002 70.5847 88.8979 70.4969 88.9741 70.361C89.0503 70.2251 89.0884 70.0769 89.0884 69.9162C89.0884 69.7405 89.0479 69.6134 88.967 69.5349C88.886 69.4514 88.7836 69.4304 88.6597 69.4716C88.5359 69.5129 88.4335 69.5973 88.3525 69.7247C88.2763 69.8505 88.2382 70.0063 88.2382 70.1921C88.2382 70.3779 88.2786 70.5075 88.3596 70.5809C88.4454 70.6527 88.5525 70.6672 88.6812 70.6243ZM91.3534 73.7705C91.1343 73.8436 90.9342 73.855 90.7532 73.8049C90.577 73.7481 90.4388 73.636 90.3388 73.4685C90.2388 73.296 90.1888 73.0792 90.1888 72.8181C90.1888 72.557 90.2364 72.3102 90.3317 72.0776C90.4317 71.8384 90.5675 71.635 90.7389 71.4673C90.9152 71.2981 91.1129 71.177 91.332 71.104C91.5463 71.0325 91.7392 71.0285 91.9107 71.0918C92.087 71.1485 92.2251 71.2632 92.3251 71.4357C92.4252 71.6082 92.4752 71.82 92.4752 72.071C92.4752 72.3171 92.4252 72.5572 92.3251 72.7914C92.2299 73.024 92.0965 73.2291 91.925 73.4068C91.7535 73.5794 91.563 73.7007 91.3534 73.7705ZM91.3534 73.0174C91.4677 72.9793 91.563 72.8923 91.6392 72.7564C91.7202 72.6189 91.7607 72.4699 91.7607 72.3092C91.7607 72.1284 91.7202 71.9988 91.6392 71.9204C91.5582 71.8419 91.4558 71.8234 91.332 71.8646C91.2034 71.9075 91.101 71.9919 91.0247 72.1177C90.9485 72.2385 90.9104 72.3918 90.9104 72.5776C90.9104 72.7684 90.9485 72.9013 91.0247 72.9763C91.1057 73.0497 91.2153 73.0634 91.3534 73.0174Z" fill="white" fill-opacity="0.6"/>
<path d="M96.3218 72.007C96.2742 72.0229 96.2503 72.0057 96.2503 71.9555V66.3595C96.2503 66.3093 96.2742 66.2763 96.3218 66.2604L98.2795 65.6078C98.8178 65.4284 99.2394 65.4285 99.5442 65.608C99.8538 65.781 100.009 66.1361 100.009 66.6733C100.009 67.1955 99.8515 67.6597 99.5371 68.0657C99.2274 68.4652 98.8083 68.753 98.2795 68.9292L96.9791 69.3627C96.9315 69.3786 96.9077 69.4116 96.9077 69.4618V71.7364C96.9077 71.7866 96.8839 71.8196 96.8362 71.8355L96.3218 72.007ZM98.1938 68.3402C98.5701 68.2148 98.8583 68.0309 99.0583 67.7885C99.2584 67.541 99.3584 67.2491 99.3584 66.9127C99.3584 66.5813 99.256 66.3593 99.0512 66.2469C98.8464 66.1344 98.5606 66.1393 98.1938 66.2615L96.9791 66.6664C96.9315 66.6823 96.9077 66.7153 96.9077 66.7655V68.6936C96.9077 68.7438 96.9315 68.761 96.9791 68.7451L98.1938 68.3402ZM100.835 70.5026C100.787 70.5185 100.764 70.5013 100.764 70.4511V66.4368C100.764 66.3866 100.787 66.3535 100.835 66.3376L101.299 66.1828C101.347 66.167 101.371 66.1841 101.371 66.2343V66.5959C101.371 66.636 101.383 66.6521 101.407 66.6442C101.426 66.6378 101.442 66.6222 101.457 66.5974C101.623 66.351 101.8 66.1542 101.985 66.0069C102.176 65.858 102.388 65.7447 102.621 65.6669C102.669 65.651 102.693 65.6682 102.693 65.7184V66.208C102.693 66.2582 102.669 66.2912 102.621 66.3071L102.485 66.3523C102.166 66.4587 101.911 66.6441 101.721 66.9084C101.488 67.2222 101.371 67.6302 101.371 68.1323V70.2487C101.371 70.2989 101.347 70.3319 101.299 70.3478L100.835 70.5026ZM104.971 69.1994C104.599 69.3233 104.266 69.3415 103.97 69.2542C103.68 69.1653 103.451 68.9829 103.284 68.7071C103.122 68.4297 103.041 68.0826 103.041 67.6658C103.041 67.2591 103.122 66.8656 103.284 66.4853C103.451 66.1033 103.68 65.7735 103.97 65.4959C104.266 65.2117 104.599 65.0077 104.971 64.8838C105.342 64.76 105.675 64.7417 105.971 64.8291C106.266 64.9114 106.497 65.0879 106.664 65.3587C106.831 65.6295 106.914 65.9683 106.914 66.375C106.914 66.7917 106.831 67.1936 106.664 67.5805C106.502 67.9609 106.273 68.2957 105.978 68.5849C105.683 68.8691 105.347 69.074 104.971 69.1994ZM104.971 68.6345C105.218 68.552 105.442 68.4071 105.642 68.1998C105.847 67.9909 106.007 67.7469 106.121 67.4678C106.24 67.1821 106.299 66.8861 106.299 66.5798C106.299 66.2886 106.242 66.0415 106.128 65.8386C106.014 65.6357 105.854 65.5006 105.649 65.4333C105.449 65.3594 105.223 65.3645 104.971 65.4487C104.723 65.5313 104.497 65.6745 104.292 65.8783C104.092 66.0806 103.934 66.3212 103.82 66.6004C103.706 66.8795 103.649 67.1672 103.649 67.4634C103.649 67.7697 103.706 68.0268 103.82 68.2347C103.934 68.4426 104.092 68.5835 104.292 68.6574C104.497 68.7247 104.723 68.7171 104.971 68.6345ZM109.677 67.6307C109.424 67.7148 109.205 67.7427 109.019 67.7142C108.834 67.6807 108.65 67.5837 108.469 67.4231C108.455 67.4078 108.438 67.4033 108.419 67.4096C108.395 67.4176 108.384 67.4416 108.384 67.4818V67.9111C108.384 67.9613 108.36 67.9944 108.312 68.0102L107.848 68.1651C107.8 68.1809 107.776 68.1638 107.776 68.1136V62.5176C107.776 62.4674 107.8 62.4343 107.848 62.4185L108.312 62.2637C108.36 62.2478 108.384 62.2649 108.384 62.3152V64.3261C108.384 64.3663 108.395 64.3824 108.419 64.3744C108.438 64.3681 108.455 64.3525 108.469 64.3276C108.65 64.0413 108.834 63.8221 109.019 63.6698C109.205 63.5174 109.424 63.3992 109.677 63.3151C110.029 63.1976 110.336 63.1855 110.598 63.279C110.865 63.3708 111.07 63.5586 111.213 63.8424C111.361 64.1195 111.434 64.469 111.434 64.8907C111.434 65.3125 111.361 65.7112 111.213 66.0868C111.07 66.4608 110.865 66.7826 110.598 67.0523C110.332 67.322 110.024 67.5147 109.677 67.6307ZM109.62 67.0848C109.863 67.0039 110.075 66.8654 110.256 66.6695C110.441 66.467 110.582 66.2294 110.677 65.9566C110.777 65.6822 110.827 65.3944 110.827 65.0932C110.827 64.7869 110.777 64.5299 110.677 64.3222C110.582 64.113 110.441 63.9715 110.256 63.8979C110.075 63.8176 109.863 63.818 109.62 63.899C109.377 63.98 109.16 64.1225 108.969 64.3266C108.779 64.5257 108.629 64.764 108.519 65.0415C108.414 65.3175 108.362 65.6086 108.362 65.9149C108.362 66.2161 108.414 66.4723 108.519 66.6834C108.629 66.8879 108.779 67.0262 108.969 67.0982C109.16 67.1703 109.377 67.1658 109.62 67.0848ZM113.419 66.3831C113.024 66.5149 112.71 66.5143 112.476 66.3812C112.247 66.2465 112.133 65.9959 112.133 65.6294C112.133 65.2679 112.262 64.9388 112.519 64.6422C112.729 64.3966 113.031 64.1652 113.426 63.9481L114.77 63.2292C114.813 63.2048 114.834 63.1701 114.834 63.1249C114.82 62.8334 114.739 62.6345 114.591 62.528C114.41 62.3976 114.167 62.3831 113.862 62.4848C113.629 62.5626 113.424 62.6936 113.248 62.8779C113.076 63.0606 112.962 63.2669 112.905 63.4968C112.891 63.5468 112.864 63.5781 112.826 63.5908L112.362 63.7456C112.309 63.7631 112.288 63.7426 112.297 63.6842C112.378 63.2656 112.564 62.8999 112.855 62.5871C113.145 62.2693 113.484 62.0461 113.869 61.9175C114.103 61.8397 114.32 61.8051 114.52 61.8138C114.72 61.8174 114.889 61.8664 115.027 61.961C115.208 62.0814 115.322 62.2517 115.37 62.4718C115.418 62.6919 115.441 62.9275 115.441 63.1785V65.5585C115.441 65.6087 115.418 65.6418 115.37 65.6576L114.905 65.8124C114.858 65.8283 114.834 65.8112 114.834 65.7609V65.3316C114.834 65.2915 114.822 65.2754 114.798 65.2833C114.779 65.2897 114.763 65.3053 114.748 65.3301C114.629 65.5254 114.498 65.6921 114.355 65.8301C114.112 66.0718 113.8 66.2561 113.419 66.3831ZM113.491 65.7945C113.734 65.7135 113.943 65.5959 114.119 65.4418C114.377 65.2154 114.558 64.9718 114.663 64.711C114.772 64.4485 114.832 64.1425 114.841 63.7928C114.841 63.7677 114.834 63.7525 114.82 63.7472C114.805 63.7369 114.786 63.7383 114.763 63.7512L113.555 64.4098C113.26 64.5685 113.043 64.7387 112.905 64.9203C112.795 65.0723 112.74 65.2362 112.74 65.4119C112.74 65.6027 112.807 65.7336 112.941 65.8046C113.079 65.8741 113.262 65.8707 113.491 65.7945ZM118.322 64.7489C118.07 64.8331 117.85 64.8609 117.665 64.8324C117.479 64.799 117.296 64.7019 117.114 64.5414C117.1 64.526 117.084 64.5215 117.064 64.5279C117.041 64.5358 117.029 64.5599 117.029 64.6001V65.0294C117.029 65.0796 117.005 65.1126 116.957 65.1285L116.493 65.2833C116.445 65.2992 116.421 65.282 116.421 65.2318V59.6358C116.421 59.5856 116.445 59.5526 116.493 59.5367L116.957 59.3819C117.005 59.366 117.029 59.3832 117.029 59.4334V61.4443C117.029 61.4845 117.041 61.5006 117.064 61.4927C117.084 61.4863 117.1 61.4707 117.114 61.4459C117.296 61.1596 117.479 60.9403 117.665 60.788C117.85 60.6357 118.07 60.5175 118.322 60.4333C118.675 60.3158 118.982 60.3038 119.244 60.3972C119.51 60.4891 119.715 60.6769 119.858 60.9606C120.006 61.2378 120.08 61.5872 120.08 62.009C120.08 62.4307 120.006 62.8294 119.858 63.205C119.715 63.579 119.51 63.9009 119.244 64.1705C118.977 64.4402 118.67 64.633 118.322 64.7489ZM118.265 64.2031C118.508 64.1221 118.72 63.9837 118.901 63.7878C119.087 63.5853 119.227 63.3476 119.322 63.0748C119.422 62.8005 119.472 62.5127 119.472 62.2114C119.472 61.9051 119.422 61.6482 119.322 61.4405C119.227 61.2312 119.087 61.0898 118.901 61.0161C118.72 60.9359 118.508 60.9363 118.265 61.0172C118.022 61.0982 117.805 61.2408 117.615 61.4449C117.424 61.6439 117.274 61.8822 117.165 62.1598C117.06 62.4357 117.007 62.7268 117.007 63.0331C117.007 63.3344 117.06 63.5905 117.165 63.8016C117.274 64.0061 117.424 64.1444 117.615 64.2165C117.805 64.2885 118.022 64.2841 118.265 64.2031ZM121.014 63.7762C120.967 63.7921 120.943 63.7749 120.943 63.7247V59.7104C120.943 59.6602 120.967 59.6271 121.014 59.6112L121.479 59.4564C121.526 59.4405 121.55 59.4577 121.55 59.5079V63.5222C121.55 63.5725 121.526 63.6055 121.479 63.6214L121.014 63.7762ZM121.25 58.8171C121.121 58.86 121.012 58.8513 120.921 58.7911C120.831 58.7259 120.786 58.628 120.786 58.4975C120.786 58.3669 120.831 58.2414 120.921 58.1208C121.012 58.0003 121.121 57.9186 121.25 57.8757C121.379 57.8328 121.488 57.8415 121.579 57.9017C121.669 57.9619 121.714 58.0573 121.714 58.1878C121.714 58.3184 121.669 58.4464 121.579 58.572C121.488 58.6926 121.379 58.7743 121.25 58.8171ZM123.483 62.9532C123.164 63.0596 122.928 63.0628 122.776 62.963C122.623 62.8632 122.547 62.6149 122.547 62.2183V57.5939C122.547 57.5437 122.571 57.5106 122.619 57.4948L123.083 57.34C123.131 57.3241 123.155 57.3412 123.155 57.3915V61.9179C123.155 62.0635 123.164 62.1733 123.183 62.2473C123.202 62.3163 123.245 62.3622 123.312 62.3852C123.378 62.4031 123.483 62.3883 123.626 62.3407L123.748 62.3002C123.795 62.2843 123.819 62.3015 123.819 62.3517V62.7659C123.819 62.8161 123.795 62.8492 123.748 62.865L123.483 62.9532ZM124.615 62.576C124.567 62.5919 124.543 62.5748 124.543 62.5245V58.5102C124.543 58.46 124.567 58.427 124.615 58.4111L125.079 58.2563C125.127 58.2404 125.151 58.2576 125.151 58.3078V62.3221C125.151 62.3723 125.127 62.4054 125.079 62.4212L124.615 62.576ZM124.85 57.617C124.722 57.6599 124.612 57.6512 124.522 57.591C124.431 57.5258 124.386 57.4279 124.386 57.2973C124.386 57.1668 124.431 57.0412 124.522 56.9207C124.612 56.8001 124.722 56.7184 124.85 56.6755C124.979 56.6327 125.089 56.6413 125.179 56.7016C125.27 56.7618 125.315 56.8571 125.315 56.9877C125.315 57.1182 125.27 57.2463 125.179 57.3719C125.089 57.4924 124.979 57.5741 124.85 57.617ZM127.42 61.6411C127.1 61.7475 126.865 61.7507 126.712 61.6509C126.56 61.5511 126.484 61.3029 126.484 60.9062V58.4283C126.484 58.3781 126.46 58.3609 126.412 58.3768L125.919 58.5411C125.871 58.557 125.848 58.5399 125.848 58.4896V58.0754C125.848 58.0252 125.871 57.9922 125.919 57.9763L126.412 57.8119C126.46 57.7961 126.484 57.763 126.484 57.7128V56.2818C126.484 56.2316 126.507 56.1986 126.555 56.1827L127.019 56.0279C127.067 56.012 127.091 56.0292 127.091 56.0794V57.5104C127.091 57.5606 127.115 57.5777 127.162 57.5619L127.905 57.3142C127.953 57.2983 127.977 57.3155 127.977 57.3657V57.7799C127.977 57.8301 127.953 57.8632 127.905 57.879L127.162 58.1267C127.115 58.1426 127.091 58.1757 127.091 58.2259V60.5757C127.091 60.7213 127.1 60.8336 127.119 60.9126C127.138 60.9866 127.181 61.0376 127.248 61.0656C127.315 61.0886 127.42 61.0762 127.562 61.0286L127.898 60.9166C127.946 60.9008 127.97 60.9179 127.97 60.9681V61.3824C127.97 61.4326 127.946 61.4656 127.898 61.4815L127.42 61.6411ZM128.815 62.7575C128.768 62.7734 128.744 62.7562 128.744 62.706V62.2692C128.744 62.219 128.768 62.1859 128.815 62.17L129.115 62.07C129.234 62.0303 129.325 61.9901 129.387 61.9494C129.449 61.9137 129.503 61.8578 129.551 61.7816C129.599 61.7055 129.646 61.5917 129.694 61.4403L129.894 60.8087C129.899 60.7971 129.901 60.7837 129.901 60.7687C129.901 60.7436 129.896 60.7226 129.887 60.7056L128.401 57.2394C128.396 57.231 128.394 57.2192 128.394 57.2042C128.394 57.169 128.413 57.1451 128.451 57.1324L128.979 56.9561C129.018 56.9434 129.044 56.9548 129.058 56.9902L130.187 59.6566C130.197 59.6836 130.211 59.6939 130.23 59.6875C130.249 59.6812 130.266 59.6606 130.28 59.6257L131.33 56.2328C131.345 56.1879 131.373 56.1583 131.416 56.144L131.923 55.9749C131.947 55.9669 131.964 55.9714 131.973 55.9883C131.988 55.9986 131.99 56.0179 131.98 56.0462L130.258 61.5308C130.154 61.8619 130.035 62.1 129.901 62.2449C129.768 62.3897 129.577 62.5035 129.33 62.586L128.815 62.7575Z" fill="white" fill-opacity="0.6"/>
<path d="M226.708 25.4242C226.905 25.3584 227.094 25.378 227.234 25.4786C227.374 25.5792 227.452 25.7526 227.452 25.9607C227.452 26.1688 227.374 26.3944 227.234 26.5881C227.094 26.7818 226.905 26.9275 226.708 26.9933C226.51 27.0591 226.321 27.0396 226.181 26.939C226.042 26.8384 225.963 26.6649 225.963 26.4569C225.963 26.2488 226.042 26.0231 226.181 25.8295C226.321 25.6358 226.51 25.49 226.708 25.4242ZM229.685 24.4319C229.882 24.3661 230.072 24.3856 230.211 24.4862C230.351 24.5868 230.429 24.7602 230.429 24.9683C230.429 25.1764 230.351 25.4021 230.211 25.5957C230.072 25.7894 229.882 25.9351 229.685 26.0009C229.487 26.0667 229.298 26.0472 229.159 25.9466C229.019 25.846 228.941 25.6726 228.941 25.4645C228.941 25.2564 229.019 25.0307 229.159 24.8371C229.298 24.6434 229.487 24.4977 229.685 24.4319ZM232.662 23.4395C232.859 23.3737 233.049 23.3933 233.188 23.4939C233.328 23.5945 233.406 23.7679 233.406 23.9759C233.406 24.184 233.328 24.4097 233.188 24.6034C233.049 24.797 232.859 24.9428 232.662 25.0086C232.465 25.0744 232.275 25.0548 232.136 24.9542C231.996 24.8536 231.918 24.6802 231.918 24.4721C231.918 24.2641 231.996 24.0384 232.136 23.8447C232.275 23.6511 232.465 23.5053 232.662 23.4395Z" fill="white" fill-opacity="0.6"/>
<path d="M14.1665 124.908C14.0903 124.933 14.0427 124.909 14.0236 124.835L12.0992 118.085V118.045C12.0992 117.971 12.1405 117.921 12.2231 117.893L13.2139 117.563C13.2964 117.535 13.3472 117.559 13.3663 117.633L14.8429 123.005C14.862 123.066 14.8906 123.09 14.9287 123.077C14.9604 123.066 14.9858 123.024 15.0049 122.951L16.4053 116.62C16.4244 116.533 16.472 116.477 16.5482 116.452L17.7486 116.051C17.8248 116.026 17.8724 116.05 17.8915 116.124L19.2919 121.532C19.311 121.593 19.3396 121.617 19.3777 121.604C19.4221 121.589 19.4475 121.547 19.4539 121.478L20.9401 115.108C20.9591 115.021 21.0067 114.965 21.083 114.94L22.0737 114.61C22.1246 114.593 22.1595 114.595 22.1785 114.615C22.1976 114.635 22.2008 114.671 22.1881 114.722L20.2732 122.751C20.2414 122.842 20.1906 122.9 20.1208 122.923L18.6632 123.409C18.6251 123.421 18.5901 123.423 18.5584 123.413C18.533 123.402 18.5171 123.377 18.5107 123.339L17.2246 118.305C17.2183 118.28 17.2087 118.263 17.196 118.254C17.1833 118.238 17.1675 118.233 17.1484 118.24C17.1167 118.25 17.0912 118.289 17.0722 118.356L15.7766 124.25C15.7575 124.337 15.7067 124.394 15.6241 124.422L14.1665 124.908ZM23.0418 121.949C22.9528 121.979 22.9084 121.947 22.9084 121.853V116.521C22.9084 116.48 22.9179 116.444 22.937 116.411C22.9624 116.375 22.9973 116.35 23.0418 116.336L23.8992 116.05C23.9436 116.035 23.9754 116.038 23.9944 116.058C24.0198 116.077 24.0325 116.106 24.0325 116.146V121.478C24.0325 121.572 23.9881 121.634 23.8992 121.663L23.0418 121.949ZM23.4705 115.47C23.2672 115.537 23.0926 115.529 22.9465 115.443C22.8068 115.349 22.7369 115.199 22.7369 114.991C22.7369 114.784 22.8068 114.59 22.9465 114.409C23.0926 114.22 23.2672 114.091 23.4705 114.024C23.68 113.954 23.8547 113.966 23.9944 114.06C24.1342 114.147 24.204 114.295 24.204 114.502C24.204 114.71 24.1342 114.907 23.9944 115.094C23.8547 115.275 23.68 115.4 23.4705 115.47ZM26.3863 120.834C25.9735 120.972 25.6623 120.975 25.4527 120.844C25.2431 120.713 25.1383 120.417 25.1383 119.955V113.729C25.1383 113.635 25.1828 113.573 25.2717 113.544L26.1291 113.258C26.218 113.228 26.2625 113.26 26.2625 113.354V119.269C26.2625 119.49 26.2974 119.635 26.3673 119.706C26.4435 119.774 26.5768 119.777 26.7674 119.713L26.9484 119.653C27.0373 119.623 27.0818 119.655 27.0818 119.749V120.462C27.0818 120.556 27.0373 120.617 26.9484 120.647L26.3863 120.834ZM29.0821 119.936C28.6693 120.073 28.3581 120.077 28.1485 119.946C27.9389 119.815 27.8341 119.518 27.8341 119.056V112.83C27.8341 112.736 27.8785 112.675 27.9675 112.645L28.8249 112.359C28.9138 112.33 28.9582 112.362 28.9582 112.455V118.37C28.9582 118.591 28.9932 118.737 29.063 118.807C29.1393 118.876 29.2726 118.878 29.4632 118.814L29.6442 118.754C29.7331 118.725 29.7775 118.757 29.7775 118.85V119.563C29.7775 119.657 29.7331 119.719 29.6442 119.748L29.0821 119.936ZM35.9169 117.788C35.4278 117.951 34.9642 118.025 34.526 118.011C34.0941 117.987 33.7225 117.85 33.4113 117.599C33.1001 117.341 32.9032 116.945 32.8207 116.41V116.37C32.8207 116.296 32.862 116.246 32.9445 116.218L33.9162 115.894C33.9925 115.869 34.0433 115.892 34.0687 115.964C34.1894 116.399 34.4212 116.666 34.7641 116.766C35.1071 116.86 35.4977 116.833 35.9359 116.687C36.3742 116.541 36.7235 116.327 36.9839 116.047C37.2443 115.766 37.3745 115.434 37.3745 115.053C37.3745 114.772 37.2919 114.575 37.1268 114.462C36.968 114.348 36.7679 114.291 36.5266 114.291C36.2852 114.284 35.9518 114.302 35.5263 114.343C34.9991 114.398 34.5704 114.417 34.2402 114.4C33.9099 114.383 33.6273 114.273 33.3923 114.07C33.1636 113.865 33.0493 113.519 33.0493 113.03C33.0493 112.568 33.1573 112.137 33.3732 111.737C33.5892 111.33 33.8845 110.981 34.2592 110.688C34.6403 110.387 35.0722 110.156 35.5549 109.995C36.2535 109.763 36.86 109.745 37.3745 109.941C37.8953 110.136 38.2223 110.572 38.3557 111.251V111.291C38.3557 111.365 38.3176 111.414 38.2414 111.44L37.2887 111.757C37.2125 111.783 37.1617 111.76 37.1363 111.688C37.0347 111.34 36.841 111.123 36.5552 111.038C36.2694 110.946 35.9296 110.965 35.5358 111.096C35.142 111.228 34.8308 111.418 34.6022 111.669C34.3735 111.919 34.2592 112.201 34.2592 112.516C34.2592 112.764 34.3323 112.937 34.4783 113.036C34.6308 113.132 34.8213 113.182 35.0499 113.186C35.2786 113.184 35.5898 113.164 35.9836 113.126C36.5425 113.067 36.9934 113.051 37.3364 113.077C37.6793 113.097 37.9715 113.22 38.2128 113.448C38.4605 113.666 38.5844 114.04 38.5844 114.569C38.5844 115.285 38.3494 115.933 37.8794 116.511C37.4157 117.081 36.7616 117.506 35.9169 117.788ZM41.9897 115.744C41.4689 115.917 41.0053 115.948 40.5988 115.836C40.1923 115.723 39.8748 115.485 39.6461 115.119C39.4239 114.744 39.3127 114.269 39.3127 113.694C39.3127 113.138 39.4239 112.605 39.6461 112.096C39.8748 111.578 40.1923 111.131 40.5988 110.754C41.0053 110.371 41.4689 110.093 41.9897 109.919C42.5105 109.746 42.9742 109.715 43.3806 109.827C43.7871 109.933 44.1047 110.168 44.3333 110.534C44.562 110.893 44.6763 111.35 44.6763 111.906C44.6763 112.475 44.562 113.022 44.3333 113.546C44.111 114.062 43.7966 114.515 43.3902 114.905C42.9837 115.288 42.5169 115.568 41.9897 115.744ZM41.9897 114.709C42.2819 114.612 42.5455 114.444 42.7805 114.205C43.0154 113.959 43.1965 113.671 43.3235 113.341C43.4569 113.008 43.5235 112.658 43.5235 112.29C43.5235 111.942 43.4569 111.649 43.3235 111.413C43.1965 111.167 43.0154 111.003 42.7805 110.921C42.5455 110.839 42.2819 110.846 41.9897 110.943C41.6976 111.041 41.434 111.209 41.199 111.448C40.964 111.68 40.7798 111.963 40.6465 112.295C40.5194 112.619 40.4559 112.958 40.4559 113.313C40.4559 113.687 40.5226 113.997 40.656 114.24C40.7894 114.483 40.9704 114.647 41.199 114.732C41.434 114.814 41.6976 114.807 41.9897 114.709ZM46.8242 114.022C46.4114 114.159 46.1002 114.163 45.8906 114.032C45.681 113.901 45.5762 113.604 45.5762 113.142V106.916C45.5762 106.822 45.6206 106.761 45.7096 106.731L46.567 106.445C46.6559 106.416 46.7003 106.448 46.7003 106.541V112.456C46.7003 112.677 46.7353 112.823 46.8051 112.893C46.8814 112.962 47.0147 112.964 47.2053 112.9L47.3863 112.84C47.4752 112.81 47.5196 112.843 47.5196 112.936V113.649C47.5196 113.743 47.4752 113.805 47.3863 113.834L46.8242 114.022ZM49.8153 113.135C49.2945 113.309 48.8753 113.304 48.5578 113.122C48.2402 112.94 48.0814 112.592 48.0814 112.076C48.0814 111.554 48.2751 111.078 48.6626 110.647C48.942 110.34 49.3548 110.038 49.901 109.742L51.4634 108.91C51.5015 108.891 51.5301 108.865 51.5492 108.832C51.5746 108.796 51.5841 108.756 51.5777 108.712C51.546 108.401 51.4539 108.19 51.3015 108.081C51.1046 107.939 50.8378 107.924 50.5012 108.036C50.2472 108.121 50.0217 108.266 49.8248 108.472C49.6343 108.676 49.5041 108.911 49.4342 109.175C49.4025 109.273 49.3517 109.333 49.2818 109.356L48.4244 109.642C48.3799 109.657 48.3482 109.654 48.3291 109.634C48.3101 109.607 48.3037 109.569 48.3101 109.52C48.4244 108.932 48.6848 108.424 49.0913 107.994C49.5041 107.562 49.9773 107.257 50.5107 107.079C50.8283 106.973 51.1236 106.921 51.3967 106.924C51.6762 106.925 51.9144 106.986 52.1112 107.108C52.3716 107.275 52.5336 107.519 52.5971 107.84C52.667 108.158 52.7019 108.551 52.7019 109.02V111.922C52.7019 112.016 52.6574 112.077 52.5685 112.107L51.7111 112.393C51.6222 112.422 51.5777 112.39 51.5777 112.297V111.915C51.5777 111.835 51.5587 111.801 51.5206 111.813C51.5079 111.818 51.4857 111.842 51.4539 111.886C51.3269 112.096 51.1903 112.272 51.0442 112.414C50.7457 112.721 50.3361 112.961 49.8153 113.135ZM50.063 112.088C50.3234 112.002 50.5679 111.863 50.7966 111.673C51.076 111.433 51.2761 111.172 51.3967 110.891C51.5174 110.61 51.5841 110.276 51.5968 109.89C51.5968 109.843 51.5841 109.814 51.5587 109.802C51.5333 109.784 51.4984 109.786 51.4539 109.807L50.1773 110.504C49.8089 110.707 49.5485 110.908 49.3961 111.106C49.2691 111.282 49.2056 111.47 49.2056 111.671C49.2056 111.892 49.2818 112.041 49.4342 112.117C49.593 112.185 49.8026 112.175 50.063 112.088ZM53.9207 111.656C53.8318 111.686 53.7874 111.654 53.7874 111.56V106.228C53.7874 106.187 53.7969 106.151 53.8159 106.118C53.8413 106.082 53.8763 106.057 53.9207 106.043L54.7781 105.757C54.8226 105.742 54.8544 105.745 54.8734 105.765C54.8988 105.784 54.9115 105.813 54.9115 105.853V106.225C54.9115 106.298 54.9306 106.329 54.9687 106.316C54.9941 106.307 55.0258 106.277 55.0639 106.224C55.2672 105.915 55.4736 105.676 55.6832 105.505C55.8991 105.333 56.1373 105.203 56.3977 105.117C57.1979 104.85 57.741 104.973 58.0268 105.487C58.1347 105.672 58.2014 105.874 58.2268 106.093C58.2522 106.313 58.2649 106.59 58.2649 106.924V110.067C58.2649 110.114 58.2522 110.155 58.2268 110.191C58.2014 110.219 58.1697 110.24 58.1316 110.253L57.2646 110.542C57.2265 110.554 57.1948 110.555 57.1694 110.543C57.144 110.525 57.1312 110.492 57.1312 110.445V107.302C57.1312 107.008 57.109 106.774 57.0646 106.601C57.0265 106.427 56.9598 106.302 56.8645 106.226C56.7121 106.096 56.4707 106.086 56.1405 106.196C55.753 106.326 55.4641 106.542 55.2735 106.847C55.1465 107.043 55.0544 107.278 54.9973 107.552C54.9401 107.825 54.9115 108.183 54.9115 108.625V111.185C54.9115 111.279 54.8671 111.341 54.7781 111.37L53.9207 111.656ZM60.8727 109.449C60.3519 109.623 59.9327 109.619 59.6151 109.437C59.2976 109.255 59.1388 108.906 59.1388 108.39C59.1388 107.868 59.3325 107.392 59.7199 106.962C59.9994 106.654 60.4122 106.352 60.9584 106.057L62.5208 105.225C62.5589 105.205 62.5875 105.179 62.6065 105.146C62.6319 105.11 62.6415 105.07 62.6351 105.026C62.6034 104.715 62.5113 104.505 62.3588 104.395C62.162 104.253 61.8952 104.238 61.5586 104.35C61.3045 104.435 61.0791 104.58 60.8822 104.787C60.6917 104.991 60.5615 105.225 60.4916 105.489C60.4598 105.587 60.409 105.647 60.3392 105.671L59.4818 105.956C59.4373 105.971 59.4055 105.968 59.3865 105.948C59.3674 105.921 59.3611 105.883 59.3674 105.834C59.4818 105.247 59.7422 104.738 60.1486 104.308C60.5615 103.876 61.0346 103.571 61.5681 103.393C61.8857 103.287 62.181 103.236 62.4541 103.238C62.7336 103.239 62.9717 103.3 63.1686 103.422C63.429 103.59 63.591 103.833 63.6545 104.154C63.7243 104.472 63.7593 104.865 63.7593 105.334V108.236C63.7593 108.33 63.7148 108.391 63.6259 108.421L62.7685 108.707C62.6796 108.737 62.6351 108.704 62.6351 108.611V108.229C62.6351 108.149 62.6161 108.115 62.578 108.128C62.5653 108.132 62.543 108.156 62.5113 108.2C62.3842 108.41 62.2477 108.586 62.1016 108.728C61.8031 109.035 61.3935 109.276 60.8727 109.449ZM61.1204 108.403C61.3808 108.316 61.6253 108.177 61.8539 107.987C62.1334 107.747 62.3334 107.486 62.4541 107.205C62.5748 106.924 62.6415 106.59 62.6542 106.204C62.6542 106.157 62.6415 106.128 62.6161 106.117C62.5907 106.098 62.5557 106.1 62.5113 106.121L61.2347 106.818C60.8663 107.021 60.6059 107.222 60.4535 107.42C60.3265 107.596 60.2629 107.785 60.2629 107.986C60.2629 108.206 60.3392 108.355 60.4916 108.432C60.6504 108.499 60.86 108.489 61.1204 108.403ZM69.0123 106.626C68.5995 106.763 68.2883 106.767 68.0787 106.636C67.8691 106.505 67.7643 106.208 67.7643 105.746V102.553C67.7643 102.459 67.7198 102.427 67.6309 102.457L67.0974 102.635C67.0085 102.664 66.9641 102.632 66.9641 102.538V101.835C66.9641 101.795 66.9736 101.759 66.9926 101.725C67.018 101.69 67.053 101.665 67.0974 101.65L67.6309 101.473C67.7198 101.443 67.7643 101.381 67.7643 101.288V99.5201C67.7643 99.4264 67.8088 99.3647 67.8977 99.335L68.7551 99.0492C68.844 99.0196 68.8885 99.0516 68.8885 99.1454V100.913C68.8885 100.96 68.9012 100.992 68.9266 101.011C68.952 101.022 68.9837 101.022 69.0218 101.009L69.8411 100.736C69.8856 100.721 69.9174 100.724 69.9364 100.744C69.9618 100.763 69.9745 100.792 69.9745 100.832V101.535C69.9745 101.629 69.9301 101.69 69.8411 101.72L69.0218 101.993C68.9837 102.006 68.952 102.03 68.9266 102.065C68.9012 102.094 68.8885 102.131 68.8885 102.178V105.04C68.8885 105.254 68.9202 105.404 68.9837 105.49C69.0472 105.57 69.187 105.573 69.4029 105.501L69.8316 105.358C69.9205 105.329 69.965 105.361 69.965 105.454V106.167C69.965 106.261 69.9205 106.323 69.8316 106.353L69.0123 106.626ZM73.178 105.348C72.6572 105.521 72.1935 105.552 71.7871 105.44C71.3806 105.327 71.063 105.088 70.8344 104.723C70.6121 104.348 70.5009 103.873 70.5009 103.298C70.5009 102.742 70.6121 102.209 70.8344 101.7C71.063 101.182 71.3806 100.735 71.7871 100.358C72.1935 99.9751 72.6572 99.6967 73.178 99.5231C73.6988 99.3495 74.1624 99.3188 74.5689 99.431C74.9753 99.5366 75.2929 99.7721 75.5215 100.138C75.7502 100.497 75.8645 100.954 75.8645 101.51C75.8645 102.079 75.7502 102.626 75.5215 103.15C75.2993 103.666 74.9849 104.119 74.5784 104.509C74.1719 104.892 73.7051 105.172 73.178 105.348ZM73.178 104.313C73.4701 104.216 73.7337 104.048 73.9687 103.809C74.2037 103.563 74.3847 103.275 74.5117 102.945C74.6451 102.612 74.7118 102.262 74.7118 101.894C74.7118 101.546 74.6451 101.253 74.5117 101.017C74.3847 100.771 74.2037 100.607 73.9687 100.525C73.7337 100.443 73.4701 100.45 73.178 100.547C72.8858 100.645 72.6222 100.813 72.3872 101.052C72.1522 101.284 71.9681 101.567 71.8347 101.899C71.7077 102.222 71.6442 102.562 71.6442 102.916C71.6442 103.291 71.7108 103.601 71.8442 103.844C71.9776 104.087 72.1586 104.251 72.3872 104.336C72.6222 104.418 72.8858 104.411 73.178 104.313ZM78.6221 103.533C77.8219 103.8 77.2789 103.673 76.9931 103.152C76.9105 102.999 76.8502 102.818 76.812 102.61C76.7803 102.393 76.7644 102.093 76.7644 101.712V98.5686C76.7644 98.5285 76.7739 98.4918 76.793 98.4587C76.8184 98.4234 76.8533 98.3984 76.8978 98.3836L77.7552 98.0978C77.7997 98.083 77.8314 98.0858 77.8505 98.1062C77.8759 98.1245 77.8886 98.1538 77.8886 98.1939V101.347C77.8886 101.909 77.9807 102.267 78.1648 102.42C78.3173 102.55 78.5586 102.56 78.8889 102.45C79.2509 102.329 79.5367 102.113 79.7463 101.802C79.8797 101.604 79.9749 101.368 80.0321 101.095C80.0893 100.814 80.1178 100.457 80.1178 100.022V97.4508C80.1178 97.4107 80.1274 97.374 80.1464 97.3409C80.1718 97.3056 80.2068 97.2806 80.2512 97.2658L81.1086 96.98C81.1531 96.9652 81.1848 96.968 81.2039 96.9884C81.2293 97.0067 81.242 97.0359 81.242 97.0761V102.408C81.242 102.502 81.1975 102.564 81.1086 102.594L80.2512 102.879C80.1623 102.909 80.1178 102.877 80.1178 102.783V102.422C80.1178 102.348 80.0956 102.319 80.0511 102.333C80.0194 102.344 79.9845 102.379 79.9464 102.439C79.7495 102.732 79.5462 102.967 79.3366 103.144C79.1271 103.314 78.8889 103.444 78.6221 103.533ZM84.8022 101.473C84.2814 101.646 83.8209 101.676 83.4208 101.562C83.0207 101.447 82.7095 101.206 82.4872 100.839C82.2649 100.464 82.1537 99.989 82.1537 99.4133C82.1537 98.8576 82.2649 98.3252 82.4872 97.8159C82.7095 97.3 83.0207 96.8548 83.4208 96.4804C83.8209 96.0993 84.2814 95.822 84.8022 95.6484C85.3992 95.4494 85.9104 95.4329 86.336 95.599C86.7615 95.7585 87.0505 96.0772 87.2029 96.5553C87.2093 96.5666 87.2124 96.5822 87.2124 96.6023C87.2124 96.676 87.1712 96.7265 87.0886 96.7541L86.1359 97.0716C86.0661 97.0949 86.0152 97.0717 85.9835 97.0019C85.8882 96.7927 85.7358 96.656 85.5262 96.592C85.323 96.5259 85.0816 96.5394 84.8022 96.6325C84.51 96.7299 84.2496 96.897 84.021 97.1339C83.7923 97.3641 83.6145 97.6443 83.4875 97.9745C83.3605 98.3047 83.2969 98.6573 83.2969 99.0322C83.2969 99.4205 83.3605 99.7408 83.4875 99.993C83.6145 100.245 83.7923 100.414 84.021 100.498C84.2496 100.582 84.51 100.576 84.8022 100.479C85.107 100.377 85.3642 100.214 85.5738 99.9904C85.7834 99.7666 85.9327 99.506 86.0216 99.2085C86.0406 99.1285 86.0915 99.0748 86.174 99.0473L87.1172 98.7329C87.2188 98.699 87.2601 98.7355 87.241 98.8422C87.0949 99.46 86.8028 100.003 86.3646 100.47C85.9263 100.937 85.4055 101.272 84.8022 101.473ZM88.2628 100.209C88.1739 100.238 88.1295 100.206 88.1295 100.113V92.7317C88.1295 92.638 88.1739 92.5763 88.2628 92.5467L89.1202 92.2609C89.2092 92.2312 89.2536 92.2633 89.2536 92.357V94.7771C89.2536 94.8106 89.26 94.8353 89.2727 94.8511C89.2854 94.867 89.2981 94.8728 89.3108 94.8685C89.3489 94.8558 89.3806 94.8252 89.406 94.7765C89.6156 94.4657 89.8252 94.2251 90.0348 94.0548C90.2508 93.8824 90.4889 93.7528 90.7493 93.666C91.5432 93.4014 92.0862 93.525 92.3784 94.0368C92.48 94.2239 92.5435 94.427 92.5689 94.6461C92.5943 94.8653 92.607 95.1422 92.607 95.4769V98.6201C92.607 98.7138 92.5626 98.7755 92.4737 98.8052L91.6163 99.091C91.5273 99.1206 91.4829 99.0886 91.4829 98.9948V95.8517C91.4829 95.2893 91.3908 94.9317 91.2066 94.7789C91.0542 94.6489 90.8128 94.639 90.4826 94.7491C90.1015 94.8761 89.8157 95.0919 89.6252 95.3964C89.4981 95.5927 89.4029 95.832 89.3394 96.1143C89.2822 96.3877 89.2536 96.742 89.2536 97.1772V99.7379C89.2536 99.8316 89.2092 99.8933 89.1202 99.923L88.2628 100.209ZM97.7245 97.1654C97.2037 97.339 96.7845 97.3347 96.4669 97.1527C96.1494 96.9707 95.9906 96.6219 95.9906 96.1065C95.9906 95.5843 96.1843 95.108 96.5717 94.6776C96.8512 94.3702 97.264 94.0686 97.8102 93.7727L99.3726 92.9406C99.4107 92.9212 99.4393 92.8949 99.4583 92.8618C99.4838 92.8265 99.4933 92.7865 99.4869 92.7418C99.4552 92.431 99.3631 92.2207 99.2107 92.1109C99.0138 91.9689 98.747 91.9541 98.4104 92.0663C98.1564 92.151 97.9309 92.2964 97.734 92.5027C97.5435 92.7068 97.4133 92.941 97.3434 93.2052C97.3117 93.3029 97.2608 93.3633 97.191 93.3866L96.3336 93.6724C96.2891 93.6872 96.2574 93.6844 96.2383 93.664C96.2192 93.6369 96.2129 93.5988 96.2192 93.5498C96.3336 92.9628 96.594 92.4542 97.0004 92.0241C97.4133 91.592 97.8864 91.287 98.4199 91.1091C98.7375 91.0033 99.0328 90.9517 99.3059 90.9544C99.5854 90.955 99.8235 91.0162 100.02 91.138C100.281 91.3056 100.443 91.5495 100.506 91.8698C100.576 92.1879 100.611 92.5813 100.611 93.0499V95.9521C100.611 96.0458 100.567 96.1075 100.478 96.1371L99.6203 96.423C99.5314 96.4526 99.4869 96.4205 99.4869 96.3268V95.9452C99.4869 95.8649 99.4679 95.8311 99.4298 95.8438C99.4171 95.848 99.3948 95.8721 99.3631 95.9162C99.2361 96.1259 99.0995 96.302 98.9534 96.4444C98.6549 96.7514 98.2453 96.9918 97.7245 97.1654ZM97.9722 96.1188C98.2326 96.032 98.4771 95.8935 98.7057 95.7035C98.9852 95.4631 99.1852 95.2022 99.3059 94.921C99.4266 94.6398 99.4933 94.3062 99.506 93.9204C99.506 93.8735 99.4933 93.8443 99.4679 93.8327C99.4425 93.8144 99.4075 93.816 99.3631 93.8375L98.0865 94.5342C97.7181 94.7373 97.4577 94.9379 97.3053 95.136C97.1783 95.3122 97.1148 95.5008 97.1148 95.7016C97.1148 95.9225 97.191 96.0712 97.3434 96.1476C97.5022 96.2152 97.7118 96.2055 97.9722 96.1188ZM104.412 94.9363C104.107 95.0379 103.843 95.0756 103.621 95.0492C103.399 95.0229 103.183 94.9208 102.973 94.743C102.935 94.7155 102.903 94.706 102.878 94.7145C102.84 94.7272 102.821 94.7637 102.821 94.8239V95.2156C102.821 95.3093 102.776 95.371 102.687 95.4006L101.83 95.6864C101.741 95.7161 101.697 95.684 101.697 95.5903V88.2094C101.697 88.1156 101.741 88.0539 101.83 88.0243L102.687 87.7385C102.776 87.7089 102.821 87.7409 102.821 87.8346V90.2548C102.821 90.2882 102.827 90.3129 102.84 90.3288C102.852 90.3446 102.865 90.3504 102.878 90.3462C102.916 90.3335 102.948 90.3028 102.973 90.2542C103.183 89.9366 103.399 89.6939 103.621 89.5261C103.843 89.3516 104.107 89.2135 104.412 89.1119C104.875 88.9573 105.282 88.9457 105.631 89.077C105.987 89.1994 106.263 89.4488 106.46 89.825C106.657 90.2012 106.755 90.6738 106.755 91.2429C106.755 91.8119 106.657 92.3502 106.46 92.8577C106.263 93.3652 105.987 93.802 105.631 94.1683C105.282 94.5258 104.875 94.7817 104.412 94.9363ZM104.183 93.9882C104.621 93.8421 104.971 93.5483 105.231 93.1067C105.491 92.6651 105.622 92.1698 105.622 91.6208C105.622 91.0718 105.491 90.6633 105.231 90.3953C104.971 90.1273 104.621 90.0663 104.183 90.2124C103.897 90.3077 103.643 90.4727 103.421 90.7074C103.199 90.9422 103.024 91.2247 102.897 91.5549C102.77 91.8851 102.706 92.231 102.706 92.5925C102.706 92.954 102.77 93.2576 102.897 93.5031C103.024 93.7486 103.199 93.9147 103.421 94.0013C103.643 94.0878 103.897 94.0835 104.183 93.9882ZM110.153 93.0225C109.632 93.1961 109.169 93.2268 108.762 93.1146C108.356 93.0024 108.038 92.7635 107.809 92.3978C107.587 92.0234 107.476 91.5483 107.476 90.9725C107.476 90.4169 107.587 89.8844 107.809 89.3752C108.038 88.8571 108.356 88.4098 108.762 88.0333C109.169 87.6501 109.632 87.3717 110.153 87.1981C110.674 87.0245 111.137 86.9938 111.544 87.106C111.95 87.2116 112.268 87.4471 112.497 87.8128C112.725 88.1717 112.839 88.629 112.839 89.1847C112.839 89.7537 112.725 90.3006 112.497 90.8254C112.274 91.3414 111.96 91.7943 111.553 92.1842C111.147 92.5674 110.68 92.8468 110.153 93.0225ZM110.153 91.9882C110.445 91.8908 110.709 91.7226 110.944 91.4836C111.179 91.2379 111.36 90.95 111.487 90.6197C111.62 90.2874 111.687 89.9371 111.687 89.5689C111.687 89.2208 111.62 88.9284 111.487 88.6917C111.36 88.4461 111.179 88.2822 110.944 88.1999C110.709 88.1175 110.445 88.125 110.153 88.2224C109.861 88.3198 109.597 88.488 109.362 88.727C109.127 88.9593 108.943 89.2416 108.81 89.574C108.683 89.8975 108.619 90.2367 108.619 90.5915C108.619 90.9664 108.686 91.2755 108.819 91.5189C108.953 91.7624 109.134 91.9263 109.362 92.0108C109.597 92.0931 109.861 92.0856 110.153 91.9882ZM115.257 91.2108C115.174 91.2383 115.12 91.2195 115.095 91.1543L113.228 86.4444C113.221 86.4331 113.218 86.4174 113.218 86.3973C113.218 86.3639 113.228 86.3339 113.247 86.3075C113.272 86.2722 113.304 86.2482 113.342 86.2355L114.276 85.9243C114.345 85.901 114.396 85.9243 114.428 85.994L115.505 88.9892C115.524 89.0431 115.552 89.0637 115.59 89.051C115.628 89.0383 115.657 88.9987 115.676 88.9321L116.772 85.2128C116.791 85.1261 116.841 85.069 116.924 85.0415L117.848 84.7335C117.899 84.7166 117.934 84.7216 117.953 84.7488C117.972 84.7759 117.975 84.815 117.962 84.8661L116.086 90.824C116.054 90.9083 116.003 90.962 115.933 90.9853L115.257 91.2108ZM121.005 89.4051C120.484 89.5787 120.021 89.6094 119.614 89.4972C119.214 89.3762 118.903 89.1351 118.681 88.7741C118.458 88.4063 118.347 87.948 118.347 87.399C118.347 86.8902 118.446 86.3787 118.643 85.8645C118.846 85.3482 119.144 84.8872 119.538 84.4815C119.938 84.0736 120.418 83.7765 120.977 83.5902C121.447 83.4336 121.882 83.3957 122.282 83.4765C122.688 83.5486 123.012 83.7586 123.254 84.1066C123.501 84.4525 123.625 84.9368 123.625 85.5594V85.72C123.625 85.7669 123.612 85.808 123.587 85.8432C123.562 85.8718 123.53 85.8924 123.492 85.9051L119.633 87.1912C119.538 87.223 119.5 87.2859 119.519 87.3799C119.544 87.5255 119.595 87.6658 119.671 87.8011C119.798 88.0734 119.979 88.2608 120.214 88.3632C120.456 88.4635 120.729 88.4629 121.034 88.3613C121.332 88.2618 121.593 88.098 121.815 87.8699C122.037 87.6418 122.206 87.3849 122.32 87.0991C122.358 87.0194 122.409 86.969 122.472 86.9478L123.368 86.6493C123.419 86.6324 123.454 86.6341 123.473 86.6546C123.498 86.6662 123.504 86.6908 123.492 86.7285C123.307 87.3389 123.006 87.8847 122.587 88.3658C122.167 88.847 121.64 89.1934 121.005 89.4051ZM122.301 85.3681C122.352 85.3512 122.387 85.3262 122.406 85.293C122.431 85.2578 122.437 85.2188 122.425 85.1762C122.374 85.0191 122.326 84.9078 122.282 84.8422C122.155 84.6503 121.98 84.5311 121.758 84.4847C121.536 84.4316 121.288 84.4505 121.015 84.5416C120.735 84.6347 120.488 84.7809 120.272 84.9801C120.056 85.1726 119.881 85.4082 119.748 85.687C119.678 85.8374 119.627 85.9816 119.595 86.1194C119.589 86.1349 119.586 86.1527 119.586 86.1727C119.586 86.2397 119.627 86.2594 119.71 86.2319L122.301 85.3681ZM132.229 83.2938C132.229 83.9766 132.01 84.5919 131.572 85.1397C131.14 85.6787 130.53 86.0861 129.743 86.362V87.2457C129.743 87.3394 129.698 87.4011 129.61 87.4307L129.476 87.4752C129.387 87.5048 129.343 87.4728 129.343 87.3791V86.4853C128.663 86.6583 128.076 86.6399 127.58 86.4301C127.085 86.2136 126.783 85.7585 126.675 85.0648V85.0347C126.675 84.961 126.713 84.9115 126.79 84.8861L127.733 84.5717C127.809 84.5463 127.857 84.5673 127.876 84.6346C127.977 85.0024 128.158 85.2433 128.419 85.3573C128.679 85.4714 128.987 85.4925 129.343 85.4209V83.071L129.286 83.08C128.771 83.131 128.355 83.1492 128.038 83.1345C127.726 83.1177 127.46 83.0125 127.237 82.8188C127.015 82.6184 126.904 82.2806 126.904 81.8052C126.904 81.1425 127.126 80.5495 127.571 80.0264C128.015 79.5033 128.597 79.1222 129.314 78.8829L129.343 78.8734V77.9897C129.343 77.896 129.387 77.8343 129.476 77.8047L129.61 77.7602C129.698 77.7306 129.743 77.7626 129.743 77.8563V78.7702C130.321 78.6445 130.813 78.6913 131.22 78.9106C131.626 79.1232 131.89 79.5174 132.01 80.0931V80.1333C132.01 80.2069 131.972 80.2564 131.896 80.2818L130.981 80.5867C130.905 80.6121 130.858 80.5911 130.839 80.5239C130.756 80.2568 130.619 80.0714 130.429 79.9675C130.238 79.857 130.01 79.816 129.743 79.8447V81.8933C130.264 81.8402 130.689 81.8255 131.02 81.8493C131.356 81.871 131.642 81.99 131.877 82.2062C132.112 82.4225 132.229 82.785 132.229 83.2938ZM128.057 81.3206C128.057 81.6151 128.165 81.8001 128.381 81.8754C128.597 81.9507 128.917 81.971 129.343 81.9363V79.9278L129.295 79.9437C128.914 80.0707 128.612 80.2583 128.39 80.5065C128.168 80.748 128.057 81.0193 128.057 81.3206ZM129.743 85.3076C130.149 85.1587 130.47 84.9547 130.705 84.6956C130.946 84.4277 131.067 84.113 131.067 83.7515C131.067 83.4234 130.953 83.2138 130.724 83.1227C130.502 83.0294 130.175 83.0012 129.743 83.0381V85.3076ZM135.684 84.4016C135.646 84.4143 135.614 84.4149 135.589 84.4033C135.564 84.3849 135.551 84.3524 135.551 84.3055V78.6116C135.551 78.5313 135.529 78.4985 135.484 78.5134C135.459 78.5218 135.43 78.5514 135.398 78.6022C135.183 78.9286 134.925 79.2285 134.627 79.5021C134.335 79.7735 134.02 80.0089 133.684 80.2081L133.646 80.2208C133.576 80.2441 133.541 80.2122 133.541 80.1252V79.2214C133.541 79.1411 133.579 79.0782 133.655 79.0327C134.068 78.788 134.439 78.47 134.77 78.0787C135.1 77.6874 135.357 77.2904 135.541 76.8876C135.579 76.8079 135.633 76.7564 135.703 76.7332L136.627 76.4251C136.716 76.3955 136.761 76.4275 136.761 76.5213V83.9022C136.761 83.9959 136.716 84.0576 136.627 84.0872L135.684 84.4016ZM139.053 83.2786C138.965 83.3082 138.92 83.2762 138.92 83.1824V82.4192C138.92 82.359 138.945 82.2936 138.996 82.2231L141.216 79.4648C141.692 78.8708 142.045 78.3583 142.273 77.9273C142.502 77.4896 142.616 77.0732 142.616 76.6782C142.616 76.2832 142.518 76.0081 142.321 75.8528C142.124 75.6908 141.829 75.6754 141.435 75.8067C140.609 76.0819 140.149 76.7408 140.054 77.7835C140.047 77.8794 140.003 77.941 139.92 77.9686L139.053 78.2575C139.009 78.2724 138.974 78.274 138.949 78.2623C138.923 78.244 138.914 78.2104 138.92 78.1614C138.971 77.321 139.212 76.6012 139.644 76.002C140.082 75.394 140.679 74.964 141.435 74.7121C141.886 74.5618 142.286 74.5221 142.635 74.5932C142.991 74.6554 143.264 74.8254 143.455 75.1033C143.652 75.3791 143.75 75.7447 143.75 76.1999C143.75 76.8024 143.585 77.4165 143.255 78.0421C142.931 78.6655 142.505 79.3128 141.978 79.984L140.864 81.3597C140.825 81.3992 140.806 81.4357 140.806 81.4691C140.806 81.5227 140.844 81.5368 140.921 81.5114L143.95 80.5015C144.039 80.4719 144.084 80.5039 144.084 80.5977V81.4613C144.084 81.555 144.039 81.6167 143.95 81.6463L139.053 83.2786ZM147.491 80.5866C146.652 80.8661 146.005 80.7573 145.547 80.2604C145.09 79.7634 144.861 78.8421 144.861 77.4965C144.861 76.1575 145.084 75.0926 145.528 74.3017C145.979 73.5087 146.617 72.9746 147.443 72.6994C148.281 72.4199 148.926 72.5297 149.377 73.0288C149.834 73.5258 150.063 74.4504 150.063 75.8028C150.063 77.135 149.838 78.1976 149.387 78.9906C148.942 79.7815 148.31 80.3135 147.491 80.5866ZM147.462 79.4514C147.907 79.3032 148.25 78.9713 148.491 78.4557C148.732 77.9401 148.853 77.1868 148.853 76.196C148.853 75.1918 148.729 74.5101 148.482 74.1508C148.234 73.7915 147.885 73.687 147.434 73.8373C146.989 73.9855 146.649 74.3197 146.414 74.8399C146.186 75.3579 146.071 76.1124 146.071 77.1032C146.071 78.1074 146.189 78.7879 146.424 79.1448C146.665 79.4995 147.011 79.6017 147.462 79.4514ZM153.665 78.408C153.576 78.4376 153.532 78.4056 153.532 78.3119V72.9795C153.532 72.9394 153.541 72.9027 153.56 72.8696C153.586 72.8343 153.621 72.8093 153.665 72.7945L154.523 72.5087C154.567 72.4939 154.599 72.4967 154.618 72.5171C154.643 72.5354 154.656 72.5646 154.656 72.6048V77.9371C154.656 78.0309 154.611 78.0926 154.523 78.1222L153.665 78.408ZM154.094 71.9285C153.891 71.9963 153.716 71.9876 153.57 71.9024C153.43 71.8083 153.36 71.6576 153.36 71.45C153.36 71.2425 153.43 71.0485 153.57 70.868C153.716 70.6787 153.891 70.5502 154.094 70.4825C154.303 70.4126 154.478 70.4247 154.618 70.5187C154.758 70.606 154.827 70.7535 154.827 70.961C154.827 71.1685 154.758 71.3659 154.618 71.553C154.478 71.7335 154.303 71.8587 154.094 71.9285ZM155.924 77.6552C155.835 77.6848 155.79 77.6528 155.79 77.559V72.2267C155.79 72.1865 155.8 72.1499 155.819 72.1167C155.844 72.0815 155.879 72.0565 155.924 72.0416L156.781 71.7558C156.826 71.741 156.857 71.7438 156.876 71.7642C156.902 71.7826 156.914 71.8118 156.914 71.852V72.2235C156.914 72.2972 156.933 72.3276 156.972 72.3149C156.997 72.3065 157.029 72.2758 157.067 72.2229C157.27 71.9142 157.477 71.6746 157.686 71.5044C157.902 71.332 158.14 71.2024 158.401 71.1156C159.201 70.8488 159.744 70.9724 160.03 71.4864C160.138 71.6713 160.204 71.8733 160.23 72.0925C160.255 72.3117 160.268 72.5886 160.268 72.9233V76.0665C160.268 76.1134 160.255 76.1544 160.23 76.1897C160.204 76.2182 160.173 76.2389 160.134 76.2516L159.268 76.5405C159.229 76.5532 159.198 76.5538 159.172 76.5422C159.147 76.5239 159.134 76.4913 159.134 76.4444V73.3012C159.134 73.0067 159.112 72.7731 159.067 72.6004C159.029 72.4257 158.963 72.3006 158.867 72.2253C158.715 72.0953 158.474 72.0854 158.143 72.1955C157.756 72.3246 157.467 72.5414 157.276 72.846C157.149 73.0423 157.057 73.2772 157 73.5506C156.943 73.8241 156.914 74.1817 156.914 74.6236V77.1843C156.914 77.278 156.87 77.3397 156.781 77.3694L155.924 77.6552ZM164.052 74.9458C164.014 74.9585 163.982 74.959 163.957 74.9474C163.931 74.9291 163.918 74.8965 163.918 74.8497V67.4687C163.918 67.4219 163.931 67.3842 163.957 67.3556C163.982 67.3204 164.014 67.2964 164.052 67.2837L168.596 65.7689C168.634 65.7562 168.666 65.759 168.691 65.7773C168.717 65.789 168.729 65.8182 168.729 65.8651V66.7287C168.729 66.7755 168.717 66.8166 168.691 66.8518C168.666 66.8804 168.634 66.901 168.596 66.9137L165.262 68.0252C165.173 68.0548 165.128 68.1165 165.128 68.2102V70.0379C165.128 70.1316 165.173 70.1637 165.262 70.134L168.196 69.1559C168.285 69.1263 168.329 69.1583 168.329 69.2521V70.1056C168.329 70.1994 168.285 70.2611 168.196 70.2907L165.262 71.2688C165.173 71.2984 165.128 71.3601 165.128 71.4538V74.4464C165.128 74.5401 165.084 74.6018 164.995 74.6314L164.052 74.9458ZM171.768 72.4841C171.248 72.6577 170.784 72.6884 170.377 72.5762C169.977 72.4551 169.666 72.2141 169.444 71.853C169.221 71.4853 169.11 71.0269 169.11 70.4779C169.11 69.9691 169.209 69.4577 169.406 68.9435C169.609 68.4272 169.907 67.9662 170.301 67.5604C170.701 67.1526 171.181 66.8555 171.74 66.6692C172.21 66.5125 172.645 66.4746 173.045 66.5555C173.451 66.6275 173.775 66.8376 174.017 67.1856C174.264 67.5315 174.388 68.0157 174.388 68.6383V68.799C174.388 68.8459 174.375 68.8869 174.35 68.9222C174.325 68.9507 174.293 68.9714 174.255 68.9841L170.396 70.2702C170.301 70.3019 170.263 70.3648 170.282 70.4589C170.308 70.6044 170.358 70.7448 170.435 70.8801C170.562 71.1524 170.743 71.3398 170.978 71.4422C171.219 71.5425 171.492 71.5418 171.797 71.4402C172.095 71.3407 172.356 71.1769 172.578 70.9489C172.8 70.7208 172.969 70.4638 173.083 70.178C173.121 70.0984 173.172 70.048 173.235 70.0268L174.131 69.7283C174.182 69.7113 174.217 69.7131 174.236 69.7335C174.261 69.7451 174.267 69.7698 174.255 69.8075C174.071 70.4179 173.769 70.9636 173.35 71.4448C172.931 71.9259 172.403 72.2724 171.768 72.4841ZM173.064 68.4471C173.115 68.4302 173.15 68.4051 173.169 68.372C173.194 68.3367 173.2 68.2978 173.188 68.2552C173.137 68.0981 173.089 67.9867 173.045 67.9212C172.918 67.7292 172.743 67.61 172.521 67.5636C172.299 67.5105 172.051 67.5295 171.778 67.6205C171.498 67.7137 171.251 67.8598 171.035 68.059C170.819 68.2515 170.644 68.4871 170.511 68.7659C170.441 68.9164 170.39 69.0605 170.358 69.1983C170.352 69.2138 170.349 69.2316 170.349 69.2517C170.349 69.3187 170.39 69.3384 170.473 69.3109L173.064 68.4471ZM178.015 70.4018C177.71 70.5034 177.447 70.5411 177.224 70.5147C177.002 70.4884 176.786 70.3863 176.577 70.2085C176.539 70.181 176.507 70.1715 176.481 70.18C176.443 70.1927 176.424 70.2292 176.424 70.2894V70.6811C176.424 70.7748 176.38 70.8365 176.291 70.8661L175.433 71.1519C175.345 71.1815 175.3 71.1495 175.3 71.0558V63.6748C175.3 63.5811 175.345 63.5194 175.433 63.4898L176.291 63.204C176.38 63.1744 176.424 63.2064 176.424 63.3001V65.7203C176.424 65.7537 176.431 65.7784 176.443 65.7943C176.456 65.8101 176.469 65.8159 176.481 65.8117C176.519 65.799 176.551 65.7683 176.577 65.7197C176.786 65.4021 177.002 65.1594 177.224 64.9916C177.447 64.8171 177.71 64.679 178.015 64.5774C178.479 64.4228 178.885 64.4112 179.235 64.5425C179.59 64.6649 179.867 64.9143 180.063 65.2905C180.26 65.6667 180.359 66.1393 180.359 66.7084C180.359 67.2774 180.26 67.8157 180.063 68.3232C179.867 68.8307 179.59 69.2675 179.235 69.6338C178.885 69.9912 178.479 70.2472 178.015 70.4018ZM177.787 69.4537C178.225 69.3076 178.574 69.0138 178.834 68.5722C179.095 68.1305 179.225 67.6353 179.225 67.0863C179.225 66.5373 179.095 66.1288 178.834 65.8608C178.574 65.5928 178.225 65.5318 177.787 65.6779C177.501 65.7732 177.247 65.9382 177.024 66.1729C176.802 66.4077 176.627 66.6902 176.5 67.0204C176.373 67.3506 176.31 67.6965 176.31 68.058C176.31 68.4195 176.373 68.7231 176.5 68.9686C176.627 69.2141 176.802 69.3802 177.024 69.4667C177.247 69.5533 177.501 69.549 177.787 69.4537ZM183.818 68.357C183.729 68.3867 183.685 68.3546 183.685 68.2609V67.4977C183.685 67.4375 183.71 67.3721 183.761 67.3016L185.981 64.5432C186.457 63.9493 186.809 63.4368 187.038 63.0058C187.267 62.568 187.381 62.1517 187.381 61.7567C187.381 61.3617 187.283 61.0866 187.086 60.9313C186.889 60.7693 186.593 60.7539 186.2 60.8852C185.374 61.1604 184.914 61.8193 184.818 62.862C184.812 62.9578 184.768 63.0195 184.685 63.047L183.818 63.336C183.774 63.3508 183.739 63.3524 183.713 63.3408C183.688 63.3225 183.678 63.2888 183.685 63.2399C183.735 62.3995 183.977 61.6797 184.409 61.0805C184.847 60.4725 185.444 60.0425 186.2 59.7906C186.651 59.6403 187.051 59.6006 187.4 59.6716C187.756 59.7338 188.029 59.9039 188.219 60.1818C188.416 60.4576 188.515 60.8231 188.515 61.2784C188.515 61.8809 188.35 62.495 188.019 63.1205C187.695 63.744 187.27 64.3913 186.743 65.0624L185.628 66.4382C185.59 66.4776 185.571 66.5141 185.571 66.5476C185.571 66.6012 185.609 66.6152 185.685 66.5898L188.715 65.58C188.804 65.5504 188.848 65.5824 188.848 65.6761V66.5397C188.848 66.6335 188.804 66.6952 188.715 66.7248L183.818 68.357ZM192.255 65.6651C191.417 65.9445 190.769 65.8358 190.312 65.3388C189.855 64.8419 189.626 63.9206 189.626 62.5749C189.626 61.236 189.848 60.1711 190.293 59.3802C190.744 58.5872 191.382 58.0531 192.208 57.7779C193.046 57.4984 193.691 57.6082 194.142 58.1073C194.599 58.6042 194.828 59.5289 194.828 60.8812C194.828 62.2135 194.602 63.2761 194.151 64.0691C193.707 64.86 193.075 65.392 192.255 65.6651ZM192.227 64.5298C192.671 64.3816 193.014 64.0497 193.256 63.5341C193.497 63.0185 193.618 62.2653 193.618 61.2745C193.618 60.2703 193.494 59.5885 193.246 59.2292C192.998 58.87 192.649 58.7655 192.198 58.9158C191.754 59.064 191.414 59.3982 191.179 59.9183C190.95 60.4364 190.836 61.1909 190.836 62.1817C190.836 63.1859 190.953 63.8664 191.188 64.2232C191.43 64.5779 191.776 64.6801 192.227 64.5298ZM195.815 64.358C195.726 64.3877 195.682 64.3556 195.682 64.2619V63.4987C195.682 63.4385 195.707 63.3731 195.758 63.3026L197.978 60.5442C198.454 59.9503 198.806 59.4378 199.035 59.0068C199.264 58.569 199.378 58.1527 199.378 57.7577C199.378 57.3627 199.28 57.0876 199.083 56.9323C198.886 56.7703 198.591 56.7549 198.197 56.8862C197.371 57.1614 196.911 57.8203 196.815 58.863C196.809 58.9588 196.765 59.0205 196.682 59.048L195.815 59.337C195.771 59.3518 195.736 59.3534 195.71 59.3418C195.685 59.3235 195.675 59.2898 195.682 59.2409C195.732 58.4005 195.974 57.6807 196.406 57.0815C196.844 56.4735 197.441 56.0435 198.197 55.7916C198.648 55.6413 199.048 55.6016 199.397 55.6726C199.753 55.7348 200.026 55.9049 200.216 56.1828C200.413 56.4586 200.512 56.8241 200.512 57.2794C200.512 57.8819 200.347 58.4959 200.016 59.1215C199.692 59.745 199.267 60.3923 198.74 61.0634L197.625 62.4392C197.587 62.4786 197.568 62.5151 197.568 62.5486C197.568 62.6022 197.606 62.6162 197.682 62.5908L200.712 61.581C200.801 61.5513 200.845 61.5834 200.845 61.6771V62.5407C200.845 62.6345 200.801 62.6961 200.712 62.7258L195.815 64.358ZM204.357 61.6412C203.474 61.9355 202.801 61.8318 202.338 61.3303C201.88 60.8266 201.652 59.989 201.652 58.8175C201.652 57.512 201.883 56.4104 202.347 55.5128C202.811 54.6151 203.49 54.017 204.386 53.7185C205.04 53.5005 205.573 53.5067 205.986 53.7373C206.405 53.9591 206.672 54.3723 206.787 54.9769V55.0171C206.787 55.0907 206.748 55.1402 206.672 55.1656L205.834 55.4451C205.751 55.4726 205.7 55.4494 205.681 55.3754C205.491 54.7761 205.059 54.5887 204.386 54.8131C203.884 54.9803 203.5 55.3026 203.233 55.7798C202.973 56.2482 202.827 56.8425 202.795 57.5627C202.795 57.6096 202.801 57.6443 202.814 57.6668C202.833 57.6806 202.855 57.6832 202.881 57.6747C202.912 57.6641 202.947 57.6324 202.985 57.5795C203.366 57.0107 203.868 56.6225 204.491 56.415C204.948 56.2626 205.351 56.2319 205.7 56.323C206.05 56.4141 206.32 56.6187 206.51 56.9368C206.707 57.2528 206.806 57.6618 206.806 58.1639C206.806 58.6727 206.701 59.1662 206.491 59.6445C206.288 60.1139 205.999 60.5249 205.624 60.8774C205.25 61.2299 204.827 61.4845 204.357 61.6412ZM204.338 60.5429C204.726 60.4138 205.03 60.1682 205.253 59.8063C205.481 59.4422 205.596 59.0359 205.596 58.5873C205.596 58.1388 205.485 57.8143 205.262 57.6139C205.04 57.4135 204.732 57.379 204.338 57.5102C203.925 57.6478 203.589 57.9006 203.328 58.2686C203.074 58.6278 202.947 59.0283 202.947 59.4701C202.947 59.9254 203.074 60.2546 203.328 60.4578C203.589 60.6521 203.925 60.6805 204.338 60.5429ZM209.251 57.2485C209.251 56.8736 209.298 56.5464 209.393 56.2669C209.489 55.9875 209.603 55.7552 209.736 55.5702C209.87 55.3851 210.044 55.1729 210.26 54.9336C210.508 54.6703 210.689 54.4426 210.803 54.2505C210.918 54.0584 210.975 53.8285 210.975 53.5607C210.975 53.2125 210.87 52.983 210.661 52.8721C210.451 52.7612 210.168 52.7651 209.813 52.8836C209.432 53.0106 209.127 53.2328 208.898 53.55C208.669 53.8605 208.542 54.2343 208.517 54.6712L207.498 55.011C207.523 54.5205 207.634 54.0684 207.831 53.6546C208.034 53.232 208.304 52.8743 208.641 52.5813C208.984 52.2795 209.371 52.0567 209.803 51.9127C210.451 51.6968 210.981 51.7008 211.394 51.9247C211.813 52.1465 212.023 52.5954 212.023 53.2716C212.023 53.5662 211.982 53.8276 211.899 54.056C211.823 54.2822 211.728 54.478 211.613 54.6433C211.499 54.8019 211.343 54.991 211.146 55.2107C210.969 55.4105 210.826 55.5854 210.718 55.7352C210.616 55.8761 210.524 56.0441 210.441 56.239C210.365 56.4317 210.321 56.6508 210.308 56.896L210.27 57.2903L209.251 57.6301V57.2485ZM209.746 59.8248C209.555 59.8884 209.39 59.8698 209.251 59.7691C209.117 59.6662 209.051 59.5144 209.051 59.3136C209.051 59.1194 209.117 58.9298 209.251 58.7448C209.39 58.5509 209.555 58.4222 209.746 58.3587C209.937 58.2952 210.098 58.3115 210.232 58.4076C210.372 58.5016 210.441 58.6491 210.441 58.8499C210.441 59.0575 210.372 59.2582 210.232 59.452C210.098 59.6371 209.937 59.7613 209.746 59.8248Z" fill="white"/>
<rect width="115.484" height="27.6157" transform="matrix(0.948683 -0.316228 0 1 11.9087 143.871)" fill="#25FFD7" fill-opacity="0.16"/>
<path d="M54.6661 146.925C54.5883 146.951 54.5494 146.923 54.5494 146.841V144.442C54.5494 144.384 54.5355 144.339 54.5077 144.307L52.2904 141.162C52.2737 141.138 52.2653 141.118 52.2653 141.1C52.2653 141.077 52.2737 141.056 52.2904 141.039C52.3126 141.014 52.3404 140.996 52.3737 140.985L53.349 140.66C53.4101 140.64 53.4574 140.653 53.4907 140.701L55.0079 142.972C55.0356 143.003 55.0634 143.014 55.0912 143.005C55.119 142.996 55.1468 142.966 55.1746 142.916L56.7167 139.625C56.739 139.559 56.7834 139.515 56.8501 139.493L57.8171 139.171C57.8504 139.159 57.8754 139.16 57.8921 139.172C57.9143 139.176 57.9254 139.19 57.9254 139.214C57.9254 139.231 57.9171 139.257 57.9004 139.292L55.6914 143.912C55.6692 143.967 55.6581 144.02 55.6581 144.073V146.472C55.6581 146.554 55.6192 146.608 55.5414 146.634L54.6661 146.925ZM59.6452 145.362C59.1895 145.514 58.7839 145.541 58.4282 145.443C58.0781 145.337 57.8058 145.126 57.6113 144.81C57.4168 144.488 57.3195 144.087 57.3195 143.607C57.3195 143.162 57.4057 142.714 57.5779 142.264C57.7558 141.812 58.017 141.409 58.3615 141.054C58.7116 140.697 59.1312 140.437 59.6202 140.274C60.0315 140.137 60.4121 140.104 60.7622 140.175C61.1179 140.238 61.4013 140.422 61.6125 140.726C61.8292 141.029 61.9376 141.452 61.9376 141.997V142.138C61.9376 142.179 61.9265 142.215 61.9043 142.246C61.882 142.271 61.8543 142.289 61.8209 142.3L58.4449 143.425C58.3615 143.453 58.3282 143.508 58.3448 143.59C58.3671 143.718 58.4115 143.84 58.4782 143.959C58.5894 144.197 58.7477 144.361 58.9534 144.451C59.1645 144.538 59.4035 144.538 59.6702 144.449C59.9314 144.362 60.1593 144.218 60.3538 144.019C60.5483 143.819 60.6956 143.594 60.7956 143.344C60.8289 143.275 60.8734 143.231 60.929 143.212L61.7125 142.951C61.757 142.936 61.7876 142.938 61.8042 142.955C61.8265 142.966 61.832 142.987 61.8209 143.02C61.6597 143.554 61.3958 144.032 61.029 144.453C60.6622 144.874 60.201 145.177 59.6452 145.362ZM60.7789 141.83C60.8234 141.815 60.8539 141.793 60.8706 141.764C60.8928 141.733 60.8984 141.699 60.8873 141.662C60.8428 141.524 60.8012 141.427 60.7622 141.37C60.6511 141.202 60.4983 141.097 60.3038 141.057C60.1093 141.01 59.8925 141.027 59.6536 141.107C59.4091 141.188 59.1923 141.316 59.0034 141.49C58.8144 141.659 58.6616 141.865 58.5449 142.109C58.4838 142.24 58.4393 142.367 58.4115 142.487C58.406 142.501 58.4032 142.516 58.4032 142.534C58.4032 142.592 58.4393 142.61 58.5116 142.586L60.7789 141.83ZM64.7778 143.651C64.2276 143.835 63.7553 143.857 63.3607 143.72C62.9661 143.576 62.7161 143.264 62.6105 142.783V142.748C62.6105 142.684 62.6466 142.64 62.7188 142.615L63.4774 142.363C63.5441 142.34 63.5886 142.361 63.6108 142.424C63.6886 142.644 63.8247 142.789 64.0192 142.859C64.2193 142.927 64.4722 142.91 64.7778 142.808C65.0501 142.717 65.2669 142.592 65.428 142.433C65.5947 142.266 65.6781 142.083 65.6781 141.884C65.6781 141.726 65.6253 141.617 65.5197 141.559C65.4197 141.498 65.2919 141.471 65.1363 141.476C64.9862 141.473 64.7778 141.487 64.5111 141.517C64.1443 141.563 63.8442 141.584 63.6108 141.58C63.3829 141.574 63.1857 141.505 63.0189 141.373C62.8578 141.234 62.7772 140.997 62.7772 140.663C62.7772 140.194 62.9439 139.781 63.2774 139.424C63.6108 139.067 64.0331 138.803 64.5444 138.633C65.0557 138.462 65.4836 138.452 65.8281 138.6C66.1782 138.741 66.4061 139.032 66.5117 139.471V139.506C66.5117 139.57 66.4756 139.615 66.4033 139.639L65.7114 139.869C65.6503 139.89 65.6058 139.869 65.5781 139.808C65.5003 139.6 65.3697 139.471 65.1863 139.421C65.0084 139.369 64.7945 139.384 64.5444 139.468C64.2943 139.551 64.097 139.666 63.9526 139.814C63.8081 139.962 63.7358 140.121 63.7358 140.291C63.7358 140.431 63.7831 140.53 63.8775 140.586C63.9776 140.635 64.0998 140.658 64.2443 140.657C64.3944 140.648 64.6 140.626 64.8612 140.592C65.2335 140.538 65.5392 140.515 65.7781 140.524C66.0171 140.532 66.2227 140.607 66.395 140.749C66.5673 140.885 66.6534 141.125 66.6534 141.471C66.6534 141.945 66.4867 142.379 66.1532 142.771C65.8198 143.163 65.3613 143.457 64.7778 143.651Z" fill="#25FFD7"/>
<path d="M74.8608 138.219C74.8608 138.816 74.6691 139.355 74.2856 139.834C73.9077 140.305 73.3742 140.662 72.6851 140.903V141.677C72.6851 141.759 72.6462 141.813 72.5684 141.838L72.4517 141.877C72.3739 141.903 72.335 141.875 72.335 141.793V141.011C71.7404 141.163 71.2263 141.146 70.7929 140.963C70.3594 140.774 70.0954 140.375 70.0009 139.768V139.742C70.0009 139.677 70.0343 139.634 70.101 139.612L70.9262 139.337C70.9929 139.315 71.0346 139.333 71.0513 139.392C71.1402 139.714 71.2986 139.924 71.5264 140.024C71.7543 140.124 72.0238 140.143 72.335 140.08V138.024L72.285 138.032C71.8348 138.076 71.4708 138.092 71.193 138.079C70.9207 138.065 70.6873 137.973 70.4928 137.803C70.2983 137.628 70.201 137.332 70.201 136.916C70.201 136.336 70.3955 135.817 70.7845 135.36C71.1735 134.902 71.682 134.568 72.31 134.359L72.335 134.351V133.578C72.335 133.496 72.3739 133.442 72.4517 133.416L72.5684 133.377C72.6462 133.351 72.6851 133.379 72.6851 133.461V134.26C73.1908 134.15 73.6215 134.191 73.9772 134.383C74.3328 134.569 74.5635 134.914 74.6691 135.418V135.453C74.6691 135.518 74.6357 135.561 74.569 135.583L73.7688 135.85C73.7021 135.872 73.6604 135.854 73.6437 135.795C73.5715 135.561 73.452 135.399 73.2853 135.308C73.1186 135.211 72.9185 135.176 72.6851 135.201V136.993C73.1408 136.947 73.5131 136.934 73.8021 136.955C74.0967 136.974 74.3467 137.078 74.5524 137.267C74.758 137.456 74.8608 137.773 74.8608 138.219ZM71.2097 136.492C71.2097 136.75 71.3041 136.912 71.4931 136.978C71.682 137.043 71.9627 137.061 72.335 137.031V135.273L72.2933 135.287C71.9599 135.398 71.6959 135.563 71.5014 135.78C71.3069 135.991 71.2097 136.228 71.2097 136.492ZM72.6851 139.981C73.0408 139.85 73.3214 139.672 73.527 139.445C73.7382 139.211 73.8438 138.935 73.8438 138.619C73.8438 138.332 73.7438 138.149 73.5437 138.069C73.3492 137.987 73.063 137.963 72.6851 137.995V139.981ZM76.2583 139.73C76.2138 139.745 76.1833 139.74 76.1666 139.716C76.1499 139.693 76.1527 139.657 76.1749 139.608L78.8007 133.329C78.8119 133.29 78.8174 133.268 78.8174 133.262C78.8174 133.203 78.7813 133.186 78.709 133.21L75.6748 134.222C75.597 134.248 75.5581 134.22 75.5581 134.138V133.382C75.5581 133.3 75.597 133.246 75.6748 133.22L79.8427 131.831C79.9205 131.805 79.9594 131.833 79.9594 131.915V132.679C79.9594 132.732 79.9483 132.788 79.9261 132.849L77.3086 139.292C77.2753 139.362 77.228 139.407 77.1669 139.427L76.2583 139.73Z" fill="#25FFD7"/>
<rect width="115.484" height="27.6157" transform="matrix(0.948683 -0.316228 0 1 126.23 105.766)" fill="#FF7752" fill-opacity="0.16"/>
<path d="M168.668 108.928C168.635 108.939 168.607 108.939 168.585 108.929C168.562 108.913 168.551 108.885 168.551 108.844V102.385C168.551 102.344 168.562 102.311 168.585 102.286C168.607 102.256 168.635 102.235 168.668 102.224L169.735 101.868C169.807 101.844 169.855 101.854 169.877 101.9L172.386 105.896C172.408 105.93 172.433 105.942 172.461 105.933C172.478 105.927 172.491 105.914 172.503 105.892C172.519 105.869 172.528 105.84 172.528 105.805V101.06C172.528 100.978 172.566 100.924 172.644 100.898L173.461 100.626C173.539 100.6 173.578 100.628 173.578 100.71V107.168C173.578 107.25 173.539 107.304 173.461 107.33L172.394 107.686C172.327 107.708 172.28 107.697 172.252 107.654L169.752 103.664C169.729 103.624 169.704 103.609 169.677 103.618C169.66 103.624 169.643 103.641 169.627 103.67C169.616 103.691 169.61 103.717 169.61 103.746V108.491C169.61 108.573 169.571 108.627 169.493 108.653L168.668 108.928ZM176.871 106.29C176.416 106.442 176.01 106.469 175.654 106.371C175.299 106.272 175.021 106.063 174.821 105.743C174.626 105.416 174.529 105 174.529 104.496C174.529 104.01 174.626 103.544 174.821 103.099C175.021 102.645 175.299 102.254 175.654 101.925C176.01 101.589 176.416 101.346 176.871 101.194C177.327 101.042 177.733 101.015 178.088 101.113C178.444 101.205 178.722 101.412 178.922 101.732C179.122 102.046 179.222 102.446 179.222 102.932C179.222 103.43 179.122 103.908 178.922 104.368C178.727 104.819 178.452 105.215 178.097 105.557C177.741 105.892 177.333 106.136 176.871 106.29ZM176.871 105.385C177.127 105.3 177.358 105.153 177.563 104.944C177.769 104.729 177.927 104.477 178.038 104.188C178.155 103.897 178.213 103.59 178.213 103.268C178.213 102.964 178.155 102.708 178.038 102.501C177.927 102.286 177.769 102.142 177.563 102.07C177.358 101.998 177.127 102.005 176.871 102.09C176.616 102.175 176.385 102.322 176.179 102.532C175.974 102.735 175.813 102.982 175.696 103.273C175.585 103.556 175.529 103.852 175.529 104.163C175.529 104.491 175.588 104.761 175.704 104.974C175.821 105.187 175.979 105.331 176.179 105.405C176.385 105.477 176.616 105.47 176.871 105.385Z" fill="#FF7752"/>
<path d="M187.759 100.586C187.759 101.183 187.567 101.722 187.184 102.201C186.806 102.673 186.272 103.029 185.583 103.27V104.044C185.583 104.126 185.544 104.18 185.466 104.206L185.35 104.245C185.272 104.27 185.233 104.242 185.233 104.16V103.378C184.638 103.53 184.124 103.514 183.691 103.33C183.257 103.141 182.993 102.742 182.899 102.135V102.109C182.899 102.045 182.932 102.001 182.999 101.979L183.824 101.704C183.891 101.682 183.933 101.7 183.949 101.759C184.038 102.081 184.197 102.292 184.424 102.391C184.652 102.491 184.922 102.51 185.233 102.447V100.391L185.183 100.399C184.733 100.443 184.369 100.459 184.091 100.446C183.819 100.432 183.585 100.34 183.391 100.17C183.196 99.9949 183.099 99.6993 183.099 99.2833C183.099 98.7034 183.293 98.1846 183.682 97.7269C184.071 97.2692 184.58 96.9357 185.208 96.7263L185.233 96.718V95.9448C185.233 95.8627 185.272 95.8088 185.35 95.7828L185.466 95.7439C185.544 95.718 185.583 95.746 185.583 95.8281V96.6277C186.089 96.5177 186.519 96.5586 186.875 96.7505C187.231 96.9366 187.461 97.2815 187.567 97.7852V97.8204C187.567 97.8848 187.534 97.9281 187.467 97.9504L186.667 98.2171C186.6 98.2393 186.558 98.221 186.542 98.1621C186.469 97.9285 186.35 97.7662 186.183 97.6753C186.017 97.5786 185.816 97.5428 185.583 97.5678V99.3604C186.039 99.3139 186.411 99.3011 186.7 99.3219C186.995 99.3409 187.245 99.445 187.45 99.6342C187.656 99.8234 187.759 100.141 187.759 100.586ZM184.108 98.8593C184.108 99.117 184.202 99.2788 184.391 99.3447C184.58 99.4106 184.861 99.4284 185.233 99.398V97.6406L185.191 97.6545C184.858 97.7657 184.594 97.9298 184.399 98.1469C184.205 98.3582 184.108 98.5957 184.108 98.8593ZM185.583 102.348C185.939 102.218 186.219 102.039 186.425 101.812C186.636 101.578 186.742 101.303 186.742 100.986C186.742 100.699 186.642 100.516 186.442 100.436C186.247 100.355 185.961 100.33 185.583 100.362V102.348ZM190.707 101.686C190.023 101.913 189.47 101.913 189.048 101.685C188.626 101.451 188.384 101.028 188.323 100.415V100.398C188.323 100.328 188.359 100.28 188.431 100.256L189.265 99.9784C189.337 99.9543 189.376 99.9794 189.381 100.054C189.492 100.755 189.943 100.974 190.732 100.711C191.099 100.588 191.385 100.393 191.59 100.126C191.796 99.8522 191.899 99.5397 191.899 99.1882C191.899 98.825 191.774 98.5973 191.524 98.5049C191.279 98.4106 190.943 98.4349 190.515 98.5775L190.24 98.6692C190.162 98.6951 190.123 98.6671 190.123 98.5851V97.8997C190.123 97.8645 190.132 97.8325 190.148 97.8035C190.17 97.7727 190.201 97.7507 190.24 97.7378L190.482 97.6572C190.787 97.5553 191.04 97.389 191.24 97.1583C191.446 96.9258 191.549 96.6542 191.549 96.3438C191.549 96.0684 191.465 95.8795 191.299 95.7769C191.137 95.6725 190.907 95.6703 190.607 95.7703C190.323 95.8648 190.087 96.0255 189.898 96.2525C189.715 96.4777 189.595 96.7606 189.54 97.1013C189.523 97.183 189.481 97.235 189.415 97.2572L188.648 97.5128C188.614 97.5239 188.587 97.5215 188.564 97.5055C188.542 97.4895 188.534 97.4629 188.539 97.4259C188.573 97.0341 188.681 96.6611 188.864 96.3071C189.053 95.9512 189.298 95.6442 189.598 95.386C189.904 95.1201 190.24 94.926 190.607 94.8037C190.996 94.6741 191.337 94.6392 191.632 94.6992C191.932 94.7515 192.163 94.8884 192.324 95.11C192.491 95.3239 192.574 95.6037 192.574 95.9493C192.574 96.2597 192.496 96.5639 192.341 96.8618C192.185 97.1597 191.988 97.3924 191.749 97.56C191.71 97.5788 191.69 97.597 191.69 97.6146C191.69 97.6263 191.71 97.6286 191.749 97.6215C192.11 97.5831 192.402 97.6762 192.624 97.9009C192.846 98.1197 192.957 98.4399 192.957 98.8617C192.957 99.2659 192.86 99.6586 192.666 100.04C192.477 100.413 192.21 100.745 191.865 101.036C191.526 101.325 191.14 101.541 190.707 101.686Z" fill="#FF7752"/>
<defs>
<clipPath id="clip0_146_4399">
<rect width="9.41445" height="9.41445" fill="white" transform="matrix(0.948683 -0.316228 0 1 11.9087 92.9414)"/>
</clipPath>
</defs>
</svg>
