<svg width="111" height="32" viewBox="0 0 111 32" fill="none" xmlns="http://www.w3.org/2000/svg">
<path d="M33.8013 32V28.0774H35.9096C36.6009 28.0774 37.1194 27.9742 37.465 27.7677C37.8337 27.5842 38.1447 27.1599 38.3982 26.4946L38.9166 25.1183L31.762 5.74624H36.8083L41.3361 19.9226L45.4145 5.74624H50.4262L42.8914 27.3204C42.2923 29.0409 41.555 30.2452 40.6794 30.9333C39.8268 31.6444 38.6056 32 37.0157 32H33.8013Z" fill="white"/>
<path d="M60.7409 25.428C58.7823 25.428 57.0542 25.0036 55.5564 24.1548C54.0587 23.3061 52.8951 22.1362 52.0655 20.6452C51.2591 19.1312 50.8558 17.4222 50.8558 15.5183C50.8558 13.752 51.213 12.1004 51.9273 10.5634C52.6646 9.00358 53.7592 7.74194 55.2108 6.77849C56.6855 5.81505 58.4828 5.33333 60.6027 5.33333C62.3539 5.33333 63.9668 5.70036 65.4415 6.43441C66.9162 7.14552 68.1029 8.25806 69.0016 9.77204C69.9002 11.2631 70.3495 13.1211 70.3495 15.3462V16.3441H55.6947C55.7638 17.147 56.0058 17.9039 56.4205 18.6151C56.8814 19.5097 57.492 20.2093 58.2524 20.714C59.0358 21.1957 59.9229 21.4366 60.9137 21.4366C61.9737 21.4366 62.8839 21.1728 63.6442 20.6452C64.4046 20.0946 64.9461 19.395 65.2687 18.5462H70.0385C69.4163 20.5878 68.3218 22.2509 66.7549 23.5355C65.1881 24.7971 63.1834 25.428 60.7409 25.428ZM65.5798 12.8688C65.4876 12.1348 65.2457 11.5384 64.854 11.0796C64.4162 10.4143 63.8401 9.90968 63.1258 9.56559C62.4115 9.19857 61.6165 9.01505 60.7409 9.01505C59.8653 9.01505 59.0704 9.1871 58.3561 9.53118C57.6648 9.87527 57.1003 10.3914 56.6625 11.0796C56.2477 11.5842 55.9942 12.1806 55.9021 12.8688H65.5798Z" fill="white"/>
<path d="M72.3766 25.0495V5.74624H77.0427V8.18925C77.78 7.15699 78.575 6.42294 79.4275 5.9871C80.2801 5.55125 81.2478 5.33333 82.3308 5.33333C85.3263 5.33333 87.3425 6.41147 88.3794 8.56774C88.725 9.32473 88.9439 10.0932 89.0361 10.8731C89.1283 11.653 89.1744 12.6738 89.1744 13.9355V25.0495H84.5429V13.8667C84.5429 12.0086 84.2203 10.724 83.5751 10.0129C83.0221 9.43943 82.2041 9.15269 81.1211 9.15269C79.8077 9.15269 78.8284 9.54265 78.1832 10.3226C77.7915 10.7814 77.5035 11.4007 77.3192 12.1806C77.1348 12.9376 77.0427 13.947 77.0427 15.2086V25.0495H72.3766Z" fill="white"/>
<path d="M101.046 25.428C99.1102 25.428 97.3936 25.0036 95.8958 24.1548C94.3981 23.3061 93.2229 22.1133 92.3704 20.5763C91.5409 19.0394 91.1261 17.2731 91.1261 15.2774C91.1261 13.3505 91.5409 11.6301 92.3704 10.1161C93.2229 8.60215 94.3981 7.43226 95.8958 6.60645C97.3936 5.75771 99.1102 5.33333 101.046 5.33333C102.981 5.33333 104.698 5.75771 106.196 6.60645C107.716 7.4552 108.892 8.63656 109.721 10.1505C110.574 11.6416 111 13.3505 111 15.2774C111 17.2731 110.585 19.0394 109.756 20.5763C108.926 22.1133 107.751 23.3061 106.23 24.1548C104.733 25.0036 103.004 25.428 101.046 25.428ZM101.046 21.4366C102.567 21.4366 103.799 20.8631 104.744 19.7161C105.689 18.5692 106.161 17.0896 106.161 15.2774C106.161 13.534 105.689 12.1118 104.744 11.0108C103.799 9.88674 102.567 9.32473 101.046 9.32473C100.055 9.32473 99.1678 9.57706 98.3844 10.0817C97.601 10.5864 96.9903 11.2975 96.5525 12.2151C96.1147 13.1097 95.8958 14.1305 95.8958 15.2774C95.8958 17.1125 96.3682 18.6036 97.3129 19.7505C98.2807 20.8746 99.525 21.4366 101.046 21.4366Z" fill="white"/>
<path d="M24.9796 6.99997L24.7638 21.634L20.8629 19.1594C20.2719 18.8058 20.1035 18.6646 19.7303 19.026L7.0327 31.2978L7.02126 25.8253C7.02126 25.0896 7.31789 24.3836 7.84691 23.8601L24.9796 6.99997Z" fill="white"/>
<path d="M0 24.2978L0.215788 9.66382L4.11673 12.1384C4.70776 12.492 4.87612 12.6332 5.24929 12.2718L17.9469 0L17.9584 5.47251C17.9584 6.20815 17.6617 6.91418 17.1327 7.43768L0 24.2978Z" fill="white"/>
</svg>
